<svg xmlns="http://www.w3.org/2000/svg" xmlns:xlink="http://www.w3.org/1999/xlink" xmlns:lucid="lucid" width="1070" height="164"><g transform="translate(-244 -293)" lucid:page-tab-id="0_0"><path d="M0 0h1870.4v1323.2H0z" fill="#fff"/><path d="M440.85 342.56h760v60h-760z" stroke="#000" stroke-opacity="0" stroke-width="2" fill="#fff" fill-opacity="0"/><use xlink:href="#a" transform="matrix(1,0,0,1,445.85352866125334,347.56058598376006) translate(37.611762152777715 32.32855902777778)"/><use xlink:href="#b" transform="matrix(1,0,0,1,445.85352866125334,347.56058598376006) translate(66.9498697916666 32.32855902777778)"/><use xlink:href="#c" transform="matrix(1,0,0,1,445.85352866125334,347.56058598376006) translate(257.64756944444446 32.32855902777778)"/><use xlink:href="#d" transform="matrix(1,0,0,1,445.85352866125334,347.56058598376006) translate(301.65473090277777 32.32855902777778)"/><use xlink:href="#e" transform="matrix(1,0,0,1,445.85352866125334,347.56058598376006) translate(419.0071614583333 32.32855902777778)"/><use xlink:href="#f" transform="matrix(1,0,0,1,445.85352866125334,347.56058598376006) translate(507.021484375 32.32855902777778)"/><use xlink:href="#g" transform="matrix(1,0,0,1,445.85352866125334,347.56058598376006) translate(551.0286458333334 32.32855902777778)"/><use xlink:href="#h" transform="matrix(1,0,0,1,445.85352866125334,347.56058598376006) translate(697.7191840277778 32.32855902777778)"/><path d="M420 400h800v40H420z" stroke="#000" stroke-opacity="0" stroke-width="2" fill="#fff" fill-opacity="0"/><g><use xlink:href="#i" transform="matrix(1,0,0,1,425,405) translate(14.6826171875 20.99609375)"/><use xlink:href="#j" transform="matrix(1,0,0,1,425,405) translate(50.6884765625 20.99609375)"/><use xlink:href="#k" transform="matrix(1,0,0,1,425,405) translate(81.4697265625 20.99609375)"/><use xlink:href="#l" transform="matrix(1,0,0,1,425,405) translate(112.2509765625 20.99609375)"/><use xlink:href="#m" transform="matrix(1,0,0,1,425,405) translate(180.5908203125 20.99609375)"/><use xlink:href="#n" transform="matrix(1,0,0,1,425,405) translate(230.1513671875 20.99609375)"/><use xlink:href="#o" transform="matrix(1,0,0,1,425,405) translate(298.4912109375 20.99609375)"/><use xlink:href="#p" transform="matrix(1,0,0,1,425,405) translate(385.6103515625 20.99609375)"/><use xlink:href="#q" transform="matrix(1,0,0,1,425,405) translate(503.5107421875 20.99609375)"/><use xlink:href="#r" transform="matrix(1,0,0,1,425,405) translate(527.5146484375 20.99609375)"/><use xlink:href="#s" transform="matrix(1,0,0,1,425,405) translate(551.5185546875 20.99609375)"/><use xlink:href="#t" transform="matrix(1,0,0,1,425,405) translate(601.0791015625 20.99609375)"/><use xlink:href="#u" transform="matrix(1,0,0,1,425,405) translate(669.4189453125 20.99609375)"/></g><path d="M300 300h880v60H300z" stroke="#000" stroke-opacity="0" stroke-width="2" fill="#fff" fill-opacity="0"/><g><use xlink:href="#v" transform="matrix(1,0,0,1,305,305) translate(31.601019965277715 32.32855902777778)"/><use xlink:href="#w" transform="matrix(1,0,0,1,305,305) translate(104.94628906249994 32.32855902777778)"/><use xlink:href="#b" transform="matrix(1,0,0,1,305,305) translate(207.62966579861106 32.32855902777778)"/><use xlink:href="#c" transform="matrix(1,0,0,1,305,305) translate(398.3273654513889 32.32855902777778)"/><use xlink:href="#d" transform="matrix(1,0,0,1,305,305) translate(442.3345269097223 32.32855902777778)"/><use xlink:href="#e" transform="matrix(1,0,0,1,305,305) translate(559.6869574652778 32.32855902777778)"/><use xlink:href="#x" transform="matrix(1,0,0,1,305,305) translate(647.7012803819445 32.32855902777778)"/><use xlink:href="#g" transform="matrix(1,0,0,1,305,305) translate(677.0393880208334 32.32855902777778)"/><use xlink:href="#y" transform="matrix(1,0,0,1,305,305) translate(823.7299262152778 32.32855902777778)"/></g><defs><path d="M677 91c1 136 41 195 171 195h213v139H796c-186-8-294-116-294-303v-351c-3-164-120-222-275-232v-137c155-10 275-69 275-231v-352c6-189 106-303 294-303h265v139H848c-126-3-171 67-171 195v346c-5 158-108 234-231 274 128 36 231 115 231 274V91" id="z"/><use transform="matrix(0.01193576388888889,0,0,0.01193576388888889,0,0)" xlink:href="#z" id="a"/><path d="M891-1484c-201 251-362 514-362 954 0 441 161 704 362 955H701C500 176 342-90 342-532c0-440 159-704 359-952h190" id="A"/><path fill="#0c7cba" d="M622-1349c296 4 497 117 497 404 0 282-193 424-485 431H353V0H162v-1349h460zm-15 684c195-3 320-88 320-277 0-184-129-255-328-254H353v531h254" id="B"/><path fill="#0c7cba" d="M1000-272c3 95 12 159 101 161 21 0 41-3 59-7V-6c-44 10-86 16-139 16-141 2-191-84-197-217h-6C748-76 648 20 446 20c-207 0-318-120-318-322 0-266 194-348 454-354l236-4c12-191-40-305-222-305-140 0-220 47-232 172l-188-17c33-204 181-292 423-292 255 0 401 118 401 364v466zm-683-27c0 109 63 184 175 182 166-3 259-96 306-217 24-65 20-120 20-200-232 7-501-28-501 235" id="C"/><path fill="#0c7cba" d="M839-1102c70 0 148 7 206 17v167c-112-18-268-36-363 15-129 69-208 203-208 395V0H294c-10-367 32-789-52-1082h171c21 75 41 161 48 250h5c67-152 152-270 373-270" id="D"/><path fill="#0c7cba" d="M904-1102c199 0 220 177 220 381V0H956v-686c-3-114 0-215-60-264-70-33-125-4-158 71-26 56-39 140-39 252V0H531v-686c-3-114-1-215-61-264-78-41-136 24-157 84-24 69-39 159-39 259V0H105c-3-360 6-732-6-1082h149c6 50 3 123 8 175 36-100 83-195 216-195 135 0 166 79 196 196 42-105 93-196 236-196" id="E"/><path fill="#0c7cba" d="M617-1102c355 0 481 238 477 599H322c5 222 84 388 301 388 144 0 244-59 284-166l158 45C1002-72 854 20 623 20c-342 0-490-220-490-568 0-346 151-554 484-554zm291 461c-18-192-90-328-289-328-194 0-287 128-295 328h584" id="F"/><path fill="#0c7cba" d="M682 16c-209 0-323-80-324-285v-671H190v-142h170l58-282h120v282h432v142H538v652c2 114 60 155 182 155 106 0 209-16 297-34v137C921-4 806 16 682 16" id="G"/><path fill="#0c7cba" d="M873-819c-18-114-119-146-250-146-163 0-245 50-245 151 0 151 170 148 294 185 182 54 388 94 388 320 0 240-189 325-439 329-245 4-410-69-454-268l159-31c24 133 136 168 295 165 144-2 270-31 270-171 0-164-195-160-331-202-167-52-350-87-350-299 0-218 173-315 413-313 220 2 373 77 412 260" id="H"/><path d="M528-1484c201 248 357 511 357 952 0 442-156 709-357 957H336C537 174 700-89 700-530c0-440-163-703-364-954h192" id="I"/><g id="b"><use transform="matrix(0.01193576388888889,0,0,0.01193576388888889,0,0)" xlink:href="#A"/><use transform="matrix(0.01193576388888889,0,0,0.01193576388888889,14.669053819444446,0)" xlink:href="#B"/><use transform="matrix(0.01193576388888889,0,0,0.01193576388888889,29.338107638888893,0)" xlink:href="#C"/><use transform="matrix(0.01193576388888889,0,0,0.01193576388888889,44.00716145833334,0)" xlink:href="#D"/><use transform="matrix(0.01193576388888889,0,0,0.01193576388888889,58.676215277777786,0)" xlink:href="#C"/><use transform="matrix(0.01193576388888889,0,0,0.01193576388888889,73.34526909722223,0)" xlink:href="#E"/><use transform="matrix(0.01193576388888889,0,0,0.01193576388888889,88.01432291666667,0)" xlink:href="#F"/><use transform="matrix(0.01193576388888889,0,0,0.01193576388888889,102.68337673611111,0)" xlink:href="#G"/><use transform="matrix(0.01193576388888889,0,0,0.01193576388888889,117.35243055555557,0)" xlink:href="#F"/><use transform="matrix(0.01193576388888889,0,0,0.01193576388888889,132.021484375,0)" xlink:href="#D"/><use transform="matrix(0.01193576388888889,0,0,0.01193576388888889,146.69053819444446,0)" xlink:href="#H"/><path fill="#0c7cba" d="M13.45 5.2h149.13v1H13.45z"/><use transform="matrix(0.01193576388888889,0,0,0.01193576388888889,161.3595920138889,0)" xlink:href="#I"/></g><path d="M334-464v-160h560v160H334" id="J"/><path d="M116-154v-153l858-367-858-366v-154l995 418v205" id="K"/><g id="c"><use transform="matrix(0.01193576388888889,0,0,0.01193576388888889,0,0)" xlink:href="#J"/><use transform="matrix(0.01193576388888889,0,0,0.01193576388888889,14.669053819444446,0)" xlink:href="#K"/></g><path fill="#19967d" d="M1121-976c0 225-142 341-344 379L1177 0H957L591-575H353V0H162v-1349h482c281 3 477 100 477 373zM633-726c181-1 296-73 296-247 0-149-101-223-304-223H353v470h280" id="L"/><path fill="#19967d" d="M617-1102c355 0 481 238 477 599H322c5 222 84 388 301 388 144 0 244-59 284-166l158 45C1002-72 854 20 623 20c-342 0-490-220-490-568 0-346 151-554 484-554zm291 461c-18-192-90-328-289-328-194 0-287 128-295 328h584" id="M"/><path fill="#19967d" d="M682 16c-209 0-323-80-324-285v-671H190v-142h170l58-282h120v282h432v142H538v652c2 114 60 155 182 155 106 0 209-16 297-34v137C921-4 806 16 682 16" id="N"/><path fill="#19967d" d="M528 20c-247 0-343-132-343-381v-721h180v686c-4 177 45 284 224 277 194-8 279-136 279-336v-627h181c3 360-6 732 6 1082H885c-4-54-7-126-8-185h-3C809-64 714 20 528 20" id="O"/><path fill="#19967d" d="M839-1102c70 0 148 7 206 17v167c-112-18-268-36-363 15-129 69-208 203-208 395V0H294c-10-367 32-789-52-1082h171c21 75 41 161 48 250h5c67-152 152-270 373-270" id="P"/><path fill="#19967d" d="M706-1102c241 0 344 136 343 381V0H868v-695c1-168-57-273-220-268-190 6-283 138-283 336V0H185c-3-360 6-732-6-1082h170c4 54 7 126 8 185h3c63-121 164-204 346-205" id="Q"/><g id="d"><use transform="matrix(0.01193576388888889,0,0,0.01193576388888889,0,0)" xlink:href="#A"/><use transform="matrix(0.01193576388888889,0,0,0.01193576388888889,14.669053819444446,0)" xlink:href="#L"/><use transform="matrix(0.01193576388888889,0,0,0.01193576388888889,29.338107638888893,0)" xlink:href="#M"/><use transform="matrix(0.01193576388888889,0,0,0.01193576388888889,44.00716145833334,0)" xlink:href="#N"/><use transform="matrix(0.01193576388888889,0,0,0.01193576388888889,58.676215277777786,0)" xlink:href="#O"/><use transform="matrix(0.01193576388888889,0,0,0.01193576388888889,73.34526909722223,0)" xlink:href="#P"/><use transform="matrix(0.01193576388888889,0,0,0.01193576388888889,88.01432291666667,0)" xlink:href="#Q"/><path fill="#19967d" d="M13.45 5.2h105.13v1H13.45z"/></g><path fill="#19967d" d="M168 279c222 39 310-114 368-290L66-1082h192c120 299 249 590 362 896 115-301 235-597 351-896h190L705 0c-65 164-130 320-275 396-67 36-177 35-262 18V279" id="R"/><path fill="#19967d" d="M698-1104c312 3 392 244 392 558 0 315-82 566-392 566-169 0-277-65-331-184h-5c8 188 2 394 4 589H185V-858c0-76-1-156-6-224h175c6 52 9 120 10 178h4c58-122 150-202 330-200zm-49 991c225 0 255-203 255-433 0-225-32-419-253-419-236 0-285 192-285 441 0 237 53 411 283 411" id="S"/><g id="e"><use transform="matrix(0.01193576388888889,0,0,0.01193576388888889,0,0)" xlink:href="#N"/><use transform="matrix(0.01193576388888889,0,0,0.01193576388888889,14.669053819444446,0)" xlink:href="#R"/><use transform="matrix(0.01193576388888889,0,0,0.01193576388888889,29.338107638888893,0)" xlink:href="#S"/><use transform="matrix(0.01193576388888889,0,0,0.01193576388888889,44.00716145833334,0)" xlink:href="#M"/><path fill="#19967d" d="M-1.22 5.2H59.9v1H-1.22z"/><use transform="matrix(0.01193576388888889,0,0,0.01193576388888889,58.676215277777786,0)" xlink:href="#I"/></g><path fill="#c92d39" d="M745-142h380V0H143v-142h422v-798H246v-142h499v940zM545-1292v-192h200v192H545" id="T"/><path fill="#c92d39" d="M706-1102c241 0 344 136 343 381V0H868v-695c1-168-57-273-220-268-190 6-283 138-283 336V0H185c-3-360 6-732-6-1082h170c4 54 7 126 8 185h3c63-121 164-204 346-205" id="U"/><g id="f"><use transform="matrix(0.01193576388888889,0,0,0.01193576388888889,0,0)" xlink:href="#T"/><use transform="matrix(0.01193576388888889,0,0,0.01193576388888889,14.669053819444446,0)" xlink:href="#U"/></g><path fill="#19967d" d="M614-1226c-167 1-283 53-283 213 0 183 186 193 334 234 230 63 463 120 463 409 0 286-219 387-518 390C309 23 131-98 79-338l185-37c34 165 149 248 351 246 184-2 324-58 324-238 0-203-207-221-372-266-210-57-422-111-422-377 0-267 201-356 470-360 279-5 430 101 480 324l-188 33c-28-141-121-215-293-213" id="V"/><path fill="#19967d" d="M1000-272c3 95 12 159 101 161 21 0 41-3 59-7V-6c-44 10-86 16-139 16-141 2-191-84-197-217h-6C748-76 648 20 446 20c-207 0-318-120-318-322 0-266 194-348 454-354l236-4c12-191-40-305-222-305-140 0-220 47-232 172l-188-17c33-204 181-292 423-292 255 0 401 118 401 364v466zm-683-27c0 109 63 184 175 182 166-3 259-96 306-217 24-65 20-120 20-200-232 7-501-28-501 235" id="W"/><path fill="#19967d" d="M904-1102c199 0 220 177 220 381V0H956v-686c-3-114 0-215-60-264-70-33-125-4-158 71-26 56-39 140-39 252V0H531v-686c-3-114-1-215-61-264-78-41-136 24-157 84-24 69-39 159-39 259V0H105c-3-360 6-732-6-1082h149c6 50 3 123 8 175 36-100 83-195 216-195 135 0 166 79 196 196 42-105 93-196 236-196" id="X"/><g id="g"><use transform="matrix(0.01193576388888889,0,0,0.01193576388888889,0,0)" xlink:href="#V"/><use transform="matrix(0.01193576388888889,0,0,0.01193576388888889,14.669053819444446,0)" xlink:href="#N"/><use transform="matrix(0.01193576388888889,0,0,0.01193576388888889,29.338107638888893,0)" xlink:href="#W"/><use transform="matrix(0.01193576388888889,0,0,0.01193576388888889,44.00716145833334,0)" xlink:href="#N"/><use transform="matrix(0.01193576388888889,0,0,0.01193576388888889,58.676215277777786,0)" xlink:href="#M"/><use transform="matrix(0.01193576388888889,0,0,0.01193576388888889,73.34526909722223,0)" xlink:href="#X"/><use transform="matrix(0.01193576388888889,0,0,0.01193576388888889,88.01432291666667,0)" xlink:href="#M"/><use transform="matrix(0.01193576388888889,0,0,0.01193576388888889,102.68337673611111,0)" xlink:href="#Q"/><use transform="matrix(0.01193576388888889,0,0,0.01193576388888889,117.35243055555557,0)" xlink:href="#N"/><path fill="#19967d" d="M-1.22 5.2h134.47v1H-1.22z"/></g><path d="M726 122c-7 187-108 303-294 303H167V286h213c129-2 172-59 172-195v-347c5-160 106-236 230-276-125-36-230-116-230-272v-346c2-128-45-195-172-195H167v-139h265c187 7 294 114 294 303v352c4 162 120 221 275 231v137c-155 10-275 68-275 232v351" id="Y"/><use transform="matrix(0.01193576388888889,0,0,0.01193576388888889,0,0)" xlink:href="#Y" id="h"/><g id="i"><use transform="matrix(0.009765625,0,0,0.009765625,0,0)" xlink:href="#T"/><use transform="matrix(0.009765625,0,0,0.009765625,12.001953125,0)" xlink:href="#U"/></g><path d="M1832-649c51 0 51 119 0 125H91c-34 0-28-57-28-97-6-17 17-28 28-28h1741zm-233-557c0 290-330 364-637 364s-637-74-637-364c0-302 319-364 637-364 307 0 637 68 637 364zm-154 0c0-210-262-239-484-239s-484 28-484 239c0 210 273 239 484 239 210 0 484-28 484-239zm165 1331c51 6 51 125 0 125H501c-267 11-125-364-159-580 0-40 142-51 142 0V85c0 34 11 40 51 40h1075" id="Z"/><use transform="matrix(0.009765625,0,0,0.009765625,0,0)" xlink:href="#Z" id="j"/><path d="M341-1320c-46-6-40-125 0-125h1098c324 34 91 586 114 916l-51 370h330c46-6 34 51 34 97 0 11-23 28-34 28H91c-34 0-28-57-28-97-6-17 11-34 28-28h1274c57-324 108-740 91-1121 6-40-11-40-46-40H340" id="aa"/><use transform="matrix(0.009765625,0,0,0.009765625,0,0)" xlink:href="#aa" id="k"/><path d="M336-432c11 102 165 34 256 51l643-80c51-11 40 51 51 85-182 119-614 108-933 119-125 0-154-51-159-171v-876c6-119 40-148 159-148h700c46 0 23 63 28 102 0 17-11 23-28 23H376c-40 0-40 6-40 46v848zm1553-370c0 40 11 102-28 97h-284v961c0 46-74 23-114 28-17 0-28-11-28-28v-1826c0-51 68-28 114-34 17 0 28 17 28 34v745c102 11 262-28 313 23" id="ab"/><path d="M501 273C262 296 342-17 342-216c0-119 40-137 159-142h922c245-34 154 290 154 484 0 119-34 148-154 148H501zm933-455c0-51-6-51-46-57H535c-40 6-51 11-51 57V97c0 46 11 46 51 51h853c34-6 51-6 46-51v-279zm398-506c40 0 34 51 34 97 0 11-17 34-34 28H91c-40 6-28-57-28-97-6-17 17-28 28-28h1741zm-239-529c0 302-341 364-637 364-302 0-631-63-631-364 0-296 330-358 631-358 302 0 637 68 637 358zm-148 5c-23-199-273-239-489-239-210 0-466 34-484 239 23 199 273 233 484 233 216 0 461-40 489-233" id="ac"/><path d="M677-1479c358 0 495 302 495 660 0 347-137 654-495 654-364 0-484-313-484-654 0-353 119-660 484-660zm0 1195c472 0 478-1075 0-1075-273 0-336 267-336 535 0 279 68 540 336 540zm973 540c0 46-74 23-114 28-17 0-28-11-28-28v-1826c0-51 68-28 114-34 17 0 28 17 28 34V256" id="ad"/><g id="l"><use transform="matrix(0.009765625,0,0,0.009765625,0,0)" xlink:href="#ab"/><use transform="matrix(0.009765625,0,0,0.009765625,18.779296875,0)" xlink:href="#ac"/><use transform="matrix(0.009765625,0,0,0.009765625,37.55859375,0)" xlink:href="#ad"/></g><path fill="#19967d" d="M563 273C341 296 409 28 409-159c0-119 34-148 154-148h859c228-34 159 245 159 432 0 119-40 148-159 148H563zm125-1377c245 0 444 102 444 330 0 233-199 336-444 336S250-546 250-774s193-330 438-330zM1439 97c-17-91 46-279-51-279H597c-91 17-28 188-46 279 0 40 11 46 46 51h791c40-6 51-6 51-51zM387-774c0 284 609 302 609 0-11-290-597-290-609 0zm1502-216c0 40 11 97-28 97h-284v455c0 46-74 23-114 28-17 0-28-11-28-28v-1132c0-51 68-28 114-34 17 0 28 17 28 34v552h284c17-6 34 11 28 28zM125-1195c-46-11-40-125 0-125h1132c46 0 23 57 28 97 0 17-6 28-28 28H125zm245-278c6-40-11-97 23-97h563c51 0 28 57 34 97 0 17-11 28-34 28H398c-17 6-34-11-28-28" id="ae"/><path fill="#19967d" d="M1030 245c0 40-68 28-114 28-17 6-34-11-28-28v-671H92c-40 6-28-51-28-91-6-17 11-34 28-28h1741c46-6 34 51 34 97 0 11-17 28-34 23h-802v671zM199-887c296-148 637-307 694-683 11-40 137-28 142 11l-23 102c108 284 387 432 694 523 23 34 0 142-63 125-302-74-552-256-700-489-137 245-370 393-666 512-63 11-63-51-80-102" id="af"/><g id="m"><use transform="matrix(0.009765625,0,0,0.009765625,0,0)" xlink:href="#ae"/><use transform="matrix(0.009765625,0,0,0.009765625,18.779296875,0)" xlink:href="#af"/></g><path fill="#19967d" d="M472-80c17-518 1161-501 1183 0-28 506-1161 518-1183 0zm142 6c40 353 865 319 899 0-40-347-865-358-899 0zm154-836C603-773 421-586 188-546c-11-34-63-74-28-108 330-159 597-358 745-671 17-34 0-51-34-51H268c-34 0-40-114 0-125 256 17 603-46 791 40 46 176-108 341-205 455 97 119 273 193 415 279-23 40-23 102-85 102-154-74-302-165-415-284zm740-216v-444c0-51 68-28 114-34 17 0 28 17 28 34v1075c0 46-74 23-114 28-17 0-28-11-28-28v-506h-381c-34 0-40-114 0-125h381" id="ag"/><path fill="#19967d" d="M1650 256c0 46-74 23-114 28-17 0-28-11-28-28v-1826c0-51 68-28 114-34 17 0 28 17 28 34V256zM688-1485c290 0 495 171 495 466 0 290-199 461-495 461-290 0-484-176-484-461 0-296 188-466 484-466zm0 802c210-11 353-125 353-341 0-222-142-336-353-336-210 0-336 114-336 336-6 205 131 347 336 341zM85-154c-17-205 387-74 649-114 210-34 449-46 643-74 40-11 28 51 40 85-302 125-853 119-1297 125-17 6-34-11-34-23" id="ah"/><path d="M546-1473c313 0 421 256 444 575h228v-637c0-46 68-23 108-28 17 0 28 11 28 28V183c0 46-68 23-108 28-17 0-28-11-28-28v-956H990c-28 313-137 563-444 563-324 0-427-290-427-637 0-341 102-626 427-626zm0 1137c415 0 410-1018 0-1018-233 0-284 267-284 506 0 245 51 512 284 512zm1172 592c0 46-68 23-108 28-17 0-28-11-28-28v-1826c0-46 63-34 108-34 17 0 28 17 28 34V256" id="ai"/><g id="n"><use transform="matrix(0.009765625,0,0,0.009765625,0,0)" xlink:href="#ag"/><use transform="matrix(0.009765625,0,0,0.009765625,18.779296875,0)" xlink:href="#ah"/><use transform="matrix(0.009765625,0,0,0.009765625,37.55859375,0)" xlink:href="#ai"/></g><path d="M1320-825h262v-745c0-46 63-34 108-34 17 0 28 17 28 34V256c0 46-68 23-108 28-17 0-28-11-28-28v-961h-262v887c0 46-68 23-108 28-17 0-28-11-28-28v-1718c0-46 68-23 108-28 17 0 28 11 28 28v711zm-723-68c245 0 393 154 393 393 0 245-154 398-393 398-245 0-393-154-393-398 0-239 142-393 393-393zm0 665c171 0 256-108 256-273s-97-267-256-273-262 114-262 273c6 165 91 273 262 273zm-478-807c-51-6-51-125 0-125h922c51 0 28 57 34 97 0 17-11 28-34 28H119zm228-325c-46 0-40-125-6-125h484c46 0 23 57 28 97 0 17-6 28-28 28H347" id="aj"/><path d="M415-80c23-518 1161-501 1189 0-34 506-1161 512-1189 0zm148 6c28 358 865 319 893 0-40-341-865-364-893 0zM410-751c307 23 660-91 882-57 0 34 34 85-11 97-250 57-597 85-905 85-125 0-154-51-159-171v-575c6-119 40-137 159-142h694c46-6 23 63 28 97 0 17-11 28-28 28H399c-34 0-40 0-40 40v546c0 46 11 46 51 51zm1479-307c0 40 11 97-28 97h-284v466c0 46-74 23-114 28-17 0-28-11-28-28v-1075c0-51 68-28 114-34 17 0 28 17 28 34v484h284c17-6 34 11 28 28" id="ak"/><path d="M563 273C341 296 409 28 409-159c0-119 34-148 154-148h859c228-34 159 245 159 432 0 119-40 148-159 148H563zm125-1377c245 0 444 102 444 330 0 233-199 336-444 336S250-546 250-774s193-330 438-330zM1439 97c-17-91 46-279-51-279H597c-91 17-28 188-46 279 0 40 11 46 46 51h791c40-6 51-6 51-51zM387-774c0 284 609 302 609 0-11-290-597-290-609 0zm1502-216c0 40 11 97-28 97h-284v455c0 46-74 23-114 28-17 0-28-11-28-28v-1132c0-51 68-28 114-34 17 0 28 17 28 34v552h284c17-6 34 11 28 28zM125-1195c-46-11-40-125 0-125h1132c46 0 23 57 28 97 0 17-6 28-28 28H125zm245-278c6-40-11-97 23-97h563c51 0 28 57 34 97 0 17-11 28-34 28H398c-17 6-34-11-28-28" id="al"/><path d="M1587-1274c0 296-319 353-626 353s-631-57-631-353c0-290 336-347 631-347 307 0 626 57 626 347zm-148 5c-17-199-267-228-478-228-216 0-478 23-478 228 0 199 267 222 478 222 216 0 455-28 478-222zm393 473c51 0 51 119 0 125H91c-34 0-28-57-28-97-6-17 17-28 28-28h1741zm-245 950c40-6 28 57 28 97 6 11-11 28-23 23H500C312 297 352 132 346-28c0-125 40-142 165-148h876c80 17 40-102 46-159 6-46-6-46-40-51H369c-40 0-28-51-28-91 0-11 17-23 28-23h1041c182-28 171 125 165 296 0 125-46 148-165 148H528c-80-11-34 108-46 165 6 34 6 51 46 46h1058" id="am"/><g id="o"><use transform="matrix(0.009765625,0,0,0.009765625,0,0)" xlink:href="#aj"/><use transform="matrix(0.009765625,0,0,0.009765625,18.779296875,0)" xlink:href="#ak"/><use transform="matrix(0.009765625,0,0,0.009765625,37.55859375,0)" xlink:href="#al"/><use transform="matrix(0.009765625,0,0,0.009765625,56.337890625,0)" xlink:href="#am"/></g><path d="M649-1559c273 0 484 165 484 449 0 279-199 444-484 444-279 0-472-159-472-444 0-290 193-449 472-449zm944 1735c40 0 28 51 28 91 0 11-17 23-28 23H563C375 313 409 142 409-17c0-125 34-142 159-148h819c85 17 34-102 46-165 6-40-6-46-40-46H432c-40 0-28-57-28-97 0-11 17-23 28-23h984c182-23 159 142 159 307 0 125-40 137-165 142H591c-74-6-34 108-46 171 0 34 11 51 46 51h1001zM649-796c210 0 341-119 341-313 0-199-137-319-341-319-205 0-330 114-330 319 0 199 125 307 330 313zm1240-342c0 40 11 97-28 97h-284v404c0 46-74 23-114 28-17 0-28-11-28-28v-933c0-51 68-28 114-34 17 0 28 17 28 34v404h284c17-6 34 11 28 28" id="an"/><path d="M398-762c-40 0-40 6-46 46v375c0 34 17 46 46 46 279 6 506-17 740-68 40-11 40 51 46 85 0 17 0 34-23 40-233 51-506 63-791 63-262 0-142-347-159-563-23-256 370-148 580-148 40 0 40-6 46-46v-347c6-46-11-46-46-46H251c-46 6-23-63-28-102 0-11 23-23 28-23h563c256-23 148 330 165 540 17 250-364 148-580 148zm1110-336v-472c0-51 68-28 114-34 17 0 28 17 28 34V256c0 46-74 23-114 28-17 0-28-11-28-28v-779h-381c-40 0-17-63-23-97 0-17 6-23 23-23h381v-336h-381c-40 0-17-63-23-97 0-17 6-23 23-23h381" id="ao"/><path d="M1576 142c-6 108-34 131-154 131H495c-279 11-108-427-154-660 6-34 142-40 142 0v188h950c6-102-46-250 119-210 11-6 28 11 23 23v529zM267-887c-51 11-40-46-57-80-6-23 0-34 17-34 398-63 774-199 1052-375 40-23 40-51-6-57H386c-46 6-23-63-28-97 0-17 11-23 28-23h939c210 0 245 80 114 205-80 74-171 137-284 188l552 131c46 17-6 119-46 114l-666-171c-216 85-461 159-728 199zm763 273c-23 114 74 330-114 290-63-46-17-199-28-290H92c-34 0-28-57-28-97-6-17 11-34 28-28h1741c46-6 34 51 34 97 0 11-23 28-34 28h-802zm358 768c91 0 28-154 46-228H484c11 80-40 228 51 228h853" id="ap"/><path d="M1650 256c0 46-74 23-114 28-17 0-28-11-28-28v-1826c0-51 68-28 114-34 17 0 28 17 28 34V256zM404-461c11 102 176 34 267 57l654-74c46-11 40 51 51 85-176 125-631 114-950 114-119 0-165-57-165-171v-1007c0-46 74-23 114-28 17 0 28 11 28 28v996" id="aq"/><path d="M496 0v-299h235V0H496" id="ar"/><g id="p"><use transform="matrix(0.009765625,0,0,0.009765625,0,0)" xlink:href="#an"/><use transform="matrix(0.009765625,0,0,0.009765625,18.779296875,0)" xlink:href="#ao"/><use transform="matrix(0.009765625,0,0,0.009765625,37.55859375,0)" xlink:href="#ap"/><use transform="matrix(0.009765625,0,0,0.009765625,56.337890625,0)" xlink:href="#aq"/><use transform="matrix(0.009765625,0,0,0.009765625,75.1171875,0)" xlink:href="#ab"/><use transform="matrix(0.009765625,0,0,0.009765625,93.896484375,0)" xlink:href="#ar"/></g><path fill="#c92d39" d="M677 91c1 136 41 195 171 195h213v139H796c-186-8-294-116-294-303v-351c-3-164-120-222-275-232v-137c155-10 275-69 275-231v-352c6-189 106-303 294-303h265v139H848c-126-3-171 67-171 195v346c-5 158-108 234-231 274 128 36 231 115 231 274V91" id="as"/><use transform="matrix(0.009765625,0,0,0.009765625,0,0)" xlink:href="#as" id="q"/><path fill="#c92d39" d="M726 122c-7 187-108 303-294 303H167V286h213c129-2 172-59 172-195v-347c5-160 106-236 230-276-125-36-230-116-230-272v-346c2-128-45-195-172-195H167v-139h265c187 7 294 114 294 303v352c4 162 120 221 275 231v137c-155 10-275 68-275 232v351" id="at"/><use transform="matrix(0.009765625,0,0,0.009765625,0,0)" xlink:href="#at" id="r"/><path d="M1030 245c0 40-68 28-114 28-17 6-34-11-28-28v-671H92c-40 6-28-51-28-91-6-17 11-34 28-28h1741c46-6 34 51 34 97 0 11-17 28-34 23h-802v671zM199-887c296-148 637-307 694-683 11-40 137-28 142 11l-23 102c108 284 387 432 694 523 23 34 0 142-63 125-302-74-552-256-700-489-137 245-370 393-666 512-63 11-63-51-80-102" id="au"/><g id="s"><use transform="matrix(0.009765625,0,0,0.009765625,0,0)" xlink:href="#al"/><use transform="matrix(0.009765625,0,0,0.009765625,18.779296875,0)" xlink:href="#au"/></g><path d="M1832-779c46-6 34 51 34 97 0 11-23 28-34 28H91c-34 0-28-57-28-97-6-17 11-34 28-28h1741zm-245 933c40-6 28 57 28 97 6 11-11 28-23 23H500C312 297 352 132 346-28c0-125 40-142 165-148h876c80 17 40-97 46-154 6-40 0-46-40-46H369c-40 0-28-57-28-97 0-11 17-23 28-23h1041c176-23 171 125 165 290 0 125-46 148-165 148H528c-80-11-34 108-46 165 6 34 6 51 46 46h1058zm-23-1229c0 114-34 131-154 131H511c-114 6-159-34-154-142v-501c0-40 74-17 114-23 51 17 11 148 23 216h933c11-102-51-256 114-216 11-6 28 11 23 23v512zm-187 11c97 11 34-137 51-210H495c11 74-40 210 51 210h831" id="av"/><path d="M1132-734c17 23 46 125-6 119-233 34-466 57-745 57-216 0-142-222-154-398-17-256 370-114 580-148 91 6 28-154 46-228 0-46-6-46-40-51H261c-46 6-23-63-28-97 0-17 11-23 28-23h575c210-34 154 193 159 375 17 262-375 108-586 148-40 0-46 6-40 46 11 85-40 245 46 256 233-17 478-11 688-57h28zM484-216c-46 0-40-125 0-119h1007c279-17 119 387 159 603 0 46-74 23-114 28-17 0-28-11-28-28v-438c-6-34-6-51-46-46H484zm1024-859v-495c0-51 68-28 114-34 17 0 28 17 28 34v1092c0 46-74 23-114 28-17 0-28-11-28-28v-478h-353c-46 6-23-63-28-97 0-17 11-23 28-23h353" id="aw"/><path d="M1860-774c46 0 40 125 0 125h-284v905c0 46-74 23-114 28-17 0-28-11-28-28v-1826c0-51 68-28 114-34 17 0 28 17 28 34v796h284zM529-808c0-40 154-51 142 0 11 182-23 404 11 563 188-23 455-17 626-68 51-17 34 51 46 85 0 17 0 28-23 28-358 74-791 85-1234 80-40 0-28-57-28-97 74-57 302-6 461-23v-569zm-336-529c0-46-11-102 34-97h768c302 6 108 575 97 848-6 46-68 23-114 23-63-137 85-444 28-705 0-40-6-51-46-46H226c-23 6-28-11-34-23" id="ax"/><g id="t"><use transform="matrix(0.009765625,0,0,0.009765625,0,0)" xlink:href="#av"/><use transform="matrix(0.009765625,0,0,0.009765625,18.779296875,0)" xlink:href="#aw"/><use transform="matrix(0.009765625,0,0,0.009765625,37.55859375,0)" xlink:href="#ax"/></g><path d="M956-370c290 0 643 46 643 336 0 284-341 336-643 336-296 0-631-46-631-336 0-284 347-336 631-336zm876-267c46-6 34 51 34 97 0 11-23 28-34 28H91c-34 0-28-57-28-97-6-17 11-34 28-28h796v-262c-199-28-558 91-535-148 17-199-102-512 159-512h1041c46-6 23 57 28 91 0 17-11 28-28 28H545c-40 6-51 11-51 57v307c0 40 11 51 51 51h1018c40 0 23 57 28 97 0 17-11 28-28 28h-535v262h802zM472-34c68 296 705 245 922 108 40-23 57-63 57-108 0-188-284-205-495-205-205 0-461 17-484 205" id="ay"/><path d="M1650-643c0 46-74 23-114 28-17 0-28-11-28-28v-927c0-51 68-28 114-34 17 0 28 17 28 34v927zm-990-916c279 0 484 171 484 449 0 279-199 444-484 444-279 0-472-159-472-444 0-290 188-449 472-449zm0 763c205 0 336-114 336-313 0-205-137-319-336-319s-330 108-330 319c6 205 125 313 330 313zm1001 972c40-6 28 51 28 91 6 11-11 28-23 23H636C443 313 477 148 477-17c0-119 40-142 165-148h819c85 17 34-102 46-165 6-46-11-46-46-46H505c-40 6-28-57-28-97-6-11 17-28 28-23h978c182-23 171 137 165 307 0 125-40 137-165 142H664c-80-11-34 102-46 171 0 34 11 51 46 51h996" id="az"/><path d="M1576 137c-6 108-34 131-154 137H563c-108 0-154-34-154-148v-529c6-34 119-40 137 0v193h887c6-102-46-256 119-216 11 0 23 17 23 28v535zM250-825c0-427 882-427 882 0 0 228-205 324-444 324S250-603 250-825zm1138 973c91 0 28-159 46-239H547c17 80-40 239 51 239h791zM387-825c11 284 597 267 609 0-6-262-603-279-609 0zm1502-250c0 40 17 97-28 97h-284v415c0 46-74 23-114 28-17 0-28-11-28-28v-1007c0-51 68-28 114-34 17 0 28 17 28 34v472c102 11 262-28 313 23zM125-1229c-46 0-40-119 0-119h1132c51-6 23 63 28 97 0 17-6 23-28 23H125zm245-256c0-40-11-97 23-102h563c51 0 28 57 34 97 0 17-11 28-34 28H398c-11 0-34-6-28-23" id="aA"/><g id="u"><use transform="matrix(0.009765625,0,0,0.009765625,0,0)" xlink:href="#ay"/><use transform="matrix(0.009765625,0,0,0.009765625,18.779296875,0)" xlink:href="#az"/><use transform="matrix(0.009765625,0,0,0.009765625,37.55859375,0)" xlink:href="#aA"/><use transform="matrix(0.009765625,0,0,0.009765625,56.337890625,0)" xlink:href="#aq"/><use transform="matrix(0.009765625,0,0,0.009765625,75.1171875,0)" xlink:href="#ab"/><use transform="matrix(0.009765625,0,0,0.009765625,93.896484375,0)" xlink:href="#ar"/></g><path d="M839-1335c-182-6-269 67-259 253h491v142H580V0H400v-940H138v-142h262c-15-293 132-408 418-402 94 2 200 7 281 21v145c-75-10-177-14-260-17" id="aB"/><path d="M528 20c-247 0-343-132-343-381v-721h180v686c-4 177 45 284 224 277 194-8 279-136 279-336v-627h181c3 360-6 732 6 1082H885c-4-54-7-126-8-185h-3C809-64 714 20 528 20" id="aC"/><path d="M706-1102c241 0 344 136 343 381V0H868v-695c1-168-57-273-220-268-190 6-283 138-283 336V0H185c-3-360 6-732-6-1082h170c4 54 7 126 8 185h3c63-121 164-204 346-205" id="aD"/><path d="M631 20c-350 0-501-215-501-562 0-355 162-560 502-560 250 0 399 118 446 323l-192 14c-23-124-109-196-262-196-242 0-305 171-305 415 1 245 61 427 304 427 151 0 248-77 267-215l190 12C1039-107 883 20 631 20" id="aE"/><g id="v"><use transform="matrix(0.01193576388888889,0,0,0.01193576388888889,0,0)" xlink:href="#aB"/><use transform="matrix(0.01193576388888889,0,0,0.01193576388888889,14.669053819444446,0)" xlink:href="#aC"/><use transform="matrix(0.01193576388888889,0,0,0.01193576388888889,29.338107638888893,0)" xlink:href="#aD"/><use transform="matrix(0.01193576388888889,0,0,0.01193576388888889,44.00716145833334,0)" xlink:href="#aE"/></g><path fill="#b2b2b2" d="M706-1102c241 0 344 136 343 381V0H868v-695c1-168-57-273-220-268-190 6-283 138-283 336V0H185c-3-360 6-732-6-1082h170c4 54 7 126 8 185h3c63-121 164-204 346-205" id="aF"/><path fill="#b2b2b2" d="M615-1102c343 0 484 203 482 560-1 347-147 562-488 562-336 0-475-219-479-562-4-349 156-560 485-560zm-8 989c240 0 301-180 301-429 0-245-55-427-290-427-236 0-299 181-299 427 0 243 61 429 288 429" id="aG"/><path fill="#b2b2b2" d="M1000-272c3 95 12 159 101 161 21 0 41-3 59-7V-6c-44 10-86 16-139 16-141 2-191-84-197-217h-6C748-76 648 20 446 20c-207 0-318-120-318-322 0-266 194-348 454-354l236-4c12-191-40-305-222-305-140 0-220 47-232 172l-188-17c33-204 181-292 423-292 255 0 401 118 401 364v466zm-683-27c0 109 63 184 175 182 166-3 259-96 306-217 24-65 20-120 20-200-232 7-501-28-501 235" id="aH"/><path fill="#b2b2b2" d="M904-1102c199 0 220 177 220 381V0H956v-686c-3-114 0-215-60-264-70-33-125-4-158 71-26 56-39 140-39 252V0H531v-686c-3-114-1-215-61-264-78-41-136 24-157 84-24 69-39 159-39 259V0H105c-3-360 6-732-6-1082h149c6 50 3 123 8 175 36-100 83-195 216-195 135 0 166 79 196 196 42-105 93-196 236-196" id="aI"/><path fill="#b2b2b2" d="M617-1102c355 0 481 238 477 599H322c5 222 84 388 301 388 144 0 244-59 284-166l158 45C1002-72 854 20 623 20c-342 0-490-220-490-568 0-346 151-554 484-554zm291 461c-18-192-90-328-289-328-194 0-287 128-295 328h584" id="aJ"/><g id="w"><use transform="matrix(0.01193576388888889,0,0,0.01193576388888889,0,0)" xlink:href="#aF"/><use transform="matrix(0.01193576388888889,0,0,0.01193576388888889,14.669053819444446,0)" xlink:href="#aG"/><use transform="matrix(0.01193576388888889,0,0,0.01193576388888889,29.338107638888893,0)" xlink:href="#aF"/><use transform="matrix(0.01193576388888889,0,0,0.01193576388888889,44.00716145833334,0)" xlink:href="#aH"/><use transform="matrix(0.01193576388888889,0,0,0.01193576388888889,58.676215277777786,0)" xlink:href="#aI"/><use transform="matrix(0.01193576388888889,0,0,0.01193576388888889,73.34526909722223,0)" xlink:href="#aJ"/></g><use transform="matrix(0.01193576388888889,0,0,0.01193576388888889,0,0)" xlink:href="#as" id="x"/><use transform="matrix(0.01193576388888889,0,0,0.01193576388888889,0,0)" xlink:href="#at" id="y"/></defs></g></svg>