<svg xmlns="http://www.w3.org/2000/svg" xmlns:xlink="http://www.w3.org/1999/xlink" xmlns:lucid="lucid" width="1056" height="316"><g transform="translate(-88 -512)" lucid:page-tab-id="0_0"><path d="M0 0h1870.4v1323.2H0z" fill="#fff"/><path d="M241.5 560h740v250h-740z" stroke="#000" stroke-width="2" fill-opacity="0"/><path d="M370 586.66h64.47v60H370z" stroke="#0c7cba" stroke-width="2" fill-opacity="0"/><path d="M384.47 596.66H420v40h-35.53z" stroke="#000" stroke-opacity="0" stroke-width="2" fill="#fff" fill-opacity="0"/><use xlink:href="#a" transform="matrix(1,0,0,1,389.46700507614224,601.6633777968774) translate(5.665473090277777 22.32855902777778)"/><path d="M802.1 642.47h35.52v40H802.1z" stroke="#000" stroke-opacity="0" stroke-width="2" fill="#fff" fill-opacity="0"/><use xlink:href="#b" transform="matrix(1,0,0,1,807.0861773918832,647.474407040469) translate(-137.0244140625 20.99609375)"/><path d="M421.35 565.5h380.3v50h-380.3z" stroke="#000" stroke-opacity="0" stroke-width="2" fill="#fff" fill-opacity="0"/><use xlink:href="#c" transform="matrix(1,0,0,1,426.3494598176096,570.5066203694186) translate(35.4755859375 25.99609375)"/><path d="M340 616.66h124.47v40H340z" stroke="#000" stroke-opacity="0" stroke-width="2" fill="#fff" fill-opacity="0"/><use xlink:href="#d" transform="matrix(1,0,0,1,345,621.6633777968773) translate(36.16319444444444 20.32986111111111)"/><path d="M552.3 520h124.46v40H552.3z" stroke="#000" stroke-opacity="0" stroke-width="2" fill="#fff" fill-opacity="0"/><use xlink:href="#e" transform="matrix(1,0,0,1,557.2970510135871,525) translate(-2.509765625 20.99609375)"/><path d="M266.12 636.66h272.23v50H266.12z" stroke="#000" stroke-opacity="0" stroke-width="2" fill="#fff" fill-opacity="0"/><use xlink:href="#f" transform="matrix(1,0,0,1,271.11675126904106,641.6633777968773) translate(53.4873046875 25.99609375)"/><path d="M787.35 586.66h64.47v60h-64.47z" stroke="#0c7cba" stroke-width="2" fill-opacity="0"/><path d="M797.65 596.66h44.23v40h-44.23z" stroke="#0c7cba" stroke-width="2" fill-opacity="0"/><path d="M802 596.66h35.53v40H802z" stroke="#000" stroke-opacity="0" stroke-width="2" fill="#fff" fill-opacity="0"/><use xlink:href="#a" transform="matrix(1,0,0,1,806.9964280956942,601.6633777968774) translate(5.665473090277777 22.32855902777778)"/><path d="M421 616.66l358.82-1.1" stroke="#000" stroke-width="2" fill="none"/><path d="M421.03 617.66H420v-2h1.02z"/><path d="M795.1 615.52l-14.27 4.68-.02-9.28z" stroke="#000" stroke-width="2"/><path d="M758.3 625.65H882.8v25.48H758.3z" stroke="#000" stroke-opacity="0" stroke-width="2" fill="#fff" fill-opacity=".85"/><use xlink:href="#g" transform="matrix(1,0,0,1,763.3103694837466,630.6489409809501) translate(4.157986111111114 14.21875)"/><path d="M562.2 662.5h516.7v50H562.2z" stroke="#000" stroke-opacity="0" stroke-width="2" fill="#fff" fill-opacity="0"/><use xlink:href="#h" transform="matrix(1,0,0,1,567.1874553299652,667.5003263114817) translate(34.611111111111086 25.32986111111111)"/><use xlink:href="#i" transform="matrix(1,0,0,1,567.1874553299652,667.5003263114817) translate(128.74305555555554 25.32986111111111)"/><use xlink:href="#j" transform="matrix(1,0,0,1,567.1874553299652,667.5003263114817) translate(194.13368055555554 25.32986111111111)"/><use xlink:href="#k" transform="matrix(1,0,0,1,567.1874553299652,667.5003263114817) translate(306.8420138888889 25.32986111111111)"/><use xlink:href="#l" transform="matrix(1,0,0,1,567.1874553299652,667.5003263114817) translate(334.203125 25.32986111111111)"/><use xlink:href="#m" transform="matrix(1,0,0,1,567.1874553299652,667.5003263114817) translate(378.25694444444446 25.32986111111111)"/><path d="M85.67 510h1063v321.88h-1063z" stroke="#000" stroke-width="2" fill-opacity="0"/><defs><path fill="#19967d" d="M709-1193V0H519v-1193H76v-156h1076v156H709" id="n"/><use transform="matrix(0.01193576388888889,0,0,0.01193576388888889,0,0)" xlink:href="#n" id="a"/><path fill="#0c7cba" d="M1031-970c-23-138-92-244-250-244-306 0-381 266-440 533-17 75-25 147-25 229 1 197 73 317 266 317 202 0 293-151 377-282l146 65C986-167 844 20 550 20c-297 0-434-170-434-467 0-413 147-747 446-877 112-49 299-63 420-18 132 49 200 159 229 307" id="o"/><path fill="#0c7cba" d="M724-1102c292 0 423 159 388 460-35 307-154 537-400 628-65 24-136 34-212 34-254-2-388-131-388-387 0-255 97-480 226-595 103-92 231-140 386-140zM381-747C294-559 211-98 524-113c294-14 359-254 399-525 28-194-32-337-222-331-174 5-260 94-320 222" id="p"/><path fill="#0c7cba" d="M659-142h380L1011 0H29l28-142h422l233-1200H423l27-142h469" id="q"/><path fill="#0c7cba" d="M726-1102c256 0 385 126 386 379 1 67-11 147-25 220H315c-7 39-13 78-13 121 2 164 74 267 238 267 154 0 260-65 317-166l149 45C916-82 760 20 514 20c-259 0-398-131-398-390 0-357 148-615 421-704 62-20 125-28 189-28zm202 461c22-192-41-335-226-328-212 9-312 142-358 328h584" id="r"/><path fill="#0c7cba" d="M522 20c-267 0-410-127-410-389 0-365 156-619 438-707 169-53 390-23 481 68 54 54 92 128 93 229l-194 14c0-132-80-198-224-196-263 3-339 192-386 415-13 63-19 121-19 174-1 166 74 255 240 253 161-2 266-84 309-215l188 12C961-121 793 20 522 20" id="s"/><path fill="#0c7cba" d="M574 16c-199 5-309-85-269-285l131-671H268l27-142h170l113-282h120l-55 282h432l-27 142H616c-43 233-105 457-132 696-16 144 198 111 324 99 46-6 96-14 136-22L918-30C819-5 700 13 574 16" id="t"/><path fill="#0c7cba" d="M668-142h380L1020 0H38l28-142h422l155-798H324l27-142h499zm23-1150l37-192h200l-37 192H691" id="u"/><path fill="#0c7cba" d="M815-1102c202-2 311 102 279 314-40 267-101 525-150 788H763l135-695c7-39 11-71 11-98 2-119-62-175-179-170-208 9-312 151-348 336L260 0H80c67-361 144-713 204-1082h170c-6 58-17 130-28 185h3c86-116 194-203 386-205" id="v"/><path d="M116-571v-205l995-418v154L253-674l858 367v153" id="w"/><path fill="#19967d" d="M836-1193L604 0H414l232-1193H203l30-156h1076l-30 156H836" id="x"/><path d="M116-154v-153l858-367-858-366v-154l995 418v205" id="y"/><g id="b"><use transform="matrix(0.009765625,0,0,0.009765625,0,0)" xlink:href="#o"/><use transform="matrix(0.009765625,0,0,0.009765625,12.001953125,0)" xlink:href="#p"/><use transform="matrix(0.009765625,0,0,0.009765625,24.00390625,0)" xlink:href="#q"/><use transform="matrix(0.009765625,0,0,0.009765625,36.005859375,0)" xlink:href="#q"/><use transform="matrix(0.009765625,0,0,0.009765625,48.0078125,0)" xlink:href="#r"/><use transform="matrix(0.009765625,0,0,0.009765625,60.009765625,0)" xlink:href="#s"/><use transform="matrix(0.009765625,0,0,0.009765625,72.01171875,0)" xlink:href="#t"/><use transform="matrix(0.009765625,0,0,0.009765625,84.013671875,0)" xlink:href="#u"/><use transform="matrix(0.009765625,0,0,0.009765625,96.015625,0)" xlink:href="#p"/><use transform="matrix(0.009765625,0,0,0.009765625,108.017578125,0)" xlink:href="#v"/><use transform="matrix(0.009765625,0,0,0.009765625,120.01953125,0)" xlink:href="#w"/><use transform="matrix(0.009765625,0,0,0.009765625,132.021484375,0)" xlink:href="#o"/><use transform="matrix(0.009765625,0,0,0.009765625,144.0234375,0)" xlink:href="#p"/><use transform="matrix(0.009765625,0,0,0.009765625,156.025390625,0)" xlink:href="#q"/><use transform="matrix(0.009765625,0,0,0.009765625,168.02734375,0)" xlink:href="#q"/><use transform="matrix(0.009765625,0,0,0.009765625,180.029296875,0)" xlink:href="#r"/><use transform="matrix(0.009765625,0,0,0.009765625,192.03125,0)" xlink:href="#s"/><use transform="matrix(0.009765625,0,0,0.009765625,204.033203125,0)" xlink:href="#t"/><use transform="matrix(0.009765625,0,0,0.009765625,216.03515625,0)" xlink:href="#u"/><use transform="matrix(0.009765625,0,0,0.009765625,228.037109375,0)" xlink:href="#p"/><use transform="matrix(0.009765625,0,0,0.009765625,240.0390625,0)" xlink:href="#v"/><use transform="matrix(0.009765625,0,0,0.009765625,252.041015625,0)" xlink:href="#w"/><use transform="matrix(0.009765625,0,0,0.009765625,264.04296875,0)" xlink:href="#x"/><use transform="matrix(0.009765625,0,0,0.009765625,276.044921875,0)" xlink:href="#y"/><use transform="matrix(0.009765625,0,0,0.009765625,288.046875,0)" xlink:href="#y"/></g><path d="M512-1193l-96 494h676l-31 158H385L280 0H89l262-1349h891l-30 156H512" id="z"/><path d="M419 20c-186 0-282-64-284-243 0-40 5-86 15-138l140-721h180c-47 251-101 497-144 752-25 145 40 219 181 211 211-12 308-150 344-336l122-627h181C1087-721 1010-369 950 0H780c6-58 18-129 28-185h-3C720-71 616 20 419 20" id="A"/><path d="M815-1102c202-2 311 102 279 314-40 267-101 525-150 788H763l135-695c7-39 11-71 11-98 2-119-62-175-179-170-208 9-312 151-348 336L260 0H80c67-361 144-713 204-1082h170c-6 58-17 130-28 185h3c86-116 194-203 386-205" id="B"/><path d="M522 20c-267 0-410-127-410-389 0-365 156-619 438-707 169-53 390-23 481 68 54 54 92 128 93 229l-194 14c0-132-80-198-224-196-263 3-339 192-386 415-13 63-19 121-19 174-1 166 74 255 240 253 161-2 266-84 309-215l188 12C961-121 793 20 522 20" id="C"/><path d="M574 16c-199 5-309-85-269-285l131-671H268l27-142h170l113-282h120l-55 282h432l-27 142H616c-43 233-105 457-132 696-16 144 198 111 324 99 46-6 96-14 136-22L918-30C819-5 700 13 574 16" id="D"/><path d="M668-142h380L1020 0H38l28-142h422l155-798H324l27-142h499zm23-1150l37-192h200l-37 192H691" id="E"/><path d="M724-1102c292 0 423 159 388 460-35 307-154 537-400 628-65 24-136 34-212 34-254-2-388-131-388-387 0-255 97-480 226-595 103-92 231-140 386-140zM381-747C294-559 211-98 524-113c294-14 359-254 399-525 28-194-32-337-222-331-174 5-260 94-320 222" id="F"/><path fill="#19967d" d="M83 363l298-662h265L206 363H83" id="G"/><g id="c"><use transform="matrix(0.009765625,0,0,0.009765625,0,0)" xlink:href="#z"/><use transform="matrix(0.009765625,0,0,0.009765625,12.001953125,0)" xlink:href="#A"/><use transform="matrix(0.009765625,0,0,0.009765625,24.00390625,0)" xlink:href="#B"/><use transform="matrix(0.009765625,0,0,0.009765625,36.005859375,0)" xlink:href="#C"/><use transform="matrix(0.009765625,0,0,0.009765625,48.0078125,0)" xlink:href="#D"/><use transform="matrix(0.009765625,0,0,0.009765625,60.009765625,0)" xlink:href="#E"/><use transform="matrix(0.009765625,0,0,0.009765625,72.01171875,0)" xlink:href="#F"/><use transform="matrix(0.009765625,0,0,0.009765625,84.013671875,0)" xlink:href="#B"/><use transform="matrix(0.009765625,0,0,0.009765625,96.015625,0)" xlink:href="#w"/><use transform="matrix(0.009765625,0,0,0.009765625,108.017578125,0)" xlink:href="#x"/><use transform="matrix(0.009765625,0,0,0.009765625,120.01953125,0)" xlink:href="#G"/><use transform="matrix(0.009765625,0,0,0.009765625,132.021484375,0)" xlink:href="#o"/><use transform="matrix(0.009765625,0,0,0.009765625,144.0234375,0)" xlink:href="#p"/><use transform="matrix(0.009765625,0,0,0.009765625,156.025390625,0)" xlink:href="#q"/><use transform="matrix(0.009765625,0,0,0.009765625,168.02734375,0)" xlink:href="#q"/><use transform="matrix(0.009765625,0,0,0.009765625,180.029296875,0)" xlink:href="#r"/><use transform="matrix(0.009765625,0,0,0.009765625,192.03125,0)" xlink:href="#s"/><use transform="matrix(0.009765625,0,0,0.009765625,204.033203125,0)" xlink:href="#t"/><use transform="matrix(0.009765625,0,0,0.009765625,216.03515625,0)" xlink:href="#u"/><use transform="matrix(0.009765625,0,0,0.009765625,228.037109375,0)" xlink:href="#p"/><use transform="matrix(0.009765625,0,0,0.009765625,240.0390625,0)" xlink:href="#v"/><use transform="matrix(0.009765625,0,0,0.009765625,252.041015625,0)" xlink:href="#w"/><use transform="matrix(0.009765625,0,0,0.009765625,264.04296875,0)" xlink:href="#x"/><use transform="matrix(0.009765625,0,0,0.009765625,276.044921875,0)" xlink:href="#y"/><use transform="matrix(0.009765625,0,0,0.009765625,288.046875,0)" xlink:href="#y"/></g><path fill="#19967d" d="M473-1349c438-1 655 221 652 661C1122-268 945-8 532 0H162v-1349h311zm42 1193c308-4 416-205 418-532 2-330-131-509-459-505H353v1037h162" id="H"/><path fill="#19967d" d="M1000-272c3 95 12 159 101 161 21 0 41-3 59-7V-6c-44 10-86 16-139 16-141 2-191-84-197-217h-6C748-76 648 20 446 20c-207 0-318-120-318-322 0-266 194-348 454-354l236-4c12-191-40-305-222-305-140 0-220 47-232 172l-188-17c33-204 181-292 423-292 255 0 401 118 401 364v466zm-683-27c0 109 63 184 175 182 166-3 259-96 306-217 24-65 20-120 20-200-232 7-501-28-501 235" id="I"/><path fill="#19967d" d="M682 16c-209 0-323-80-324-285v-671H190v-142h170l58-282h120v282h432v142H538v652c2 114 60 155 182 155 106 0 209-16 297-34v137C921-4 806 16 682 16" id="J"/><g id="d"><use transform="matrix(0.008680555555555556,0,0,0.008680555555555556,0,0)" xlink:href="#H"/><use transform="matrix(0.008680555555555556,0,0,0.008680555555555556,10.668402777777779,0)" xlink:href="#I"/><use transform="matrix(0.008680555555555556,0,0,0.008680555555555556,21.336805555555557,0)" xlink:href="#J"/><use transform="matrix(0.008680555555555556,0,0,0.008680555555555556,32.005208333333336,0)" xlink:href="#I"/></g><path d="M462-1121v384h621v228H462V0H167v-1349h939v228H462" id="K"/><path d="M471 20c-247 0-336-169-336-415v-687h281v607c4 148 31 285 172 285 152 0 207-150 207-312v-580h281c4 359-9 736 8 1082H816c-7-63-11-146-12-215h-5C736-76 644 20 471 20" id="L"/><path d="M768-1103c247 0 336 167 336 416V0H824v-619c-3-164-24-273-171-273-164 0-229 142-229 312V0H143c-4-359 9-736-8-1082h268c7 63 12 146 13 215h4c67-145 160-236 348-236" id="M"/><path d="M1109-360C1066-122 902 20 624 20c-347 0-514-209-514-555 0-353 168-567 518-567 270 0 425 136 473 361l-283 14c-16-106-75-183-196-182-75 0-130 31-165 93s-52 152-52 270c0 249 74 374 221 374 120 0 188-82 201-201" id="N"/><path d="M711 13c-250 0-386-99-385-349l2-556H161v-190h181l88-282h176v282h385v190H606v530c-10 130 45 186 174 184 91-2 176-11 255-27v186C933-1 833 13 711 13" id="O"/><path d="M616-1102c361 0 521 202 521 560 0 354-171 562-527 562C259 20 92-192 92-542c0-351 169-560 524-560zm-9 930c200-2 236-165 236-370 0-199-27-367-223-367-195 0-233 146-233 367 0 129 18 223 55 282s92 88 165 88" id="P"/><path d="M875-1102c70 0 148 7 206 17v237c-110-17-267-37-359 15-123 69-192 207-192 395V0H250c-10-367 32-789-52-1082h271c19 69 36 149 46 228h4c52-151 151-250 356-248" id="Q"/><path d="M116-571v-205l995-418v154L253-674l858 367v153" id="R"/><path d="M116-154v-153l858-367-858-366v-154l995 418v205" id="S"/><g id="e"><use transform="matrix(0.009765625,0,0,0.009765625,0,0)" xlink:href="#K"/><use transform="matrix(0.009765625,0,0,0.009765625,12.001953125,0)" xlink:href="#L"/><use transform="matrix(0.009765625,0,0,0.009765625,24.00390625,0)" xlink:href="#M"/><use transform="matrix(0.009765625,0,0,0.009765625,36.005859375,0)" xlink:href="#N"/><use transform="matrix(0.009765625,0,0,0.009765625,48.0078125,0)" xlink:href="#O"/><use transform="matrix(0.009765625,0,0,0.009765625,60.009765625,0)" xlink:href="#P"/><use transform="matrix(0.009765625,0,0,0.009765625,72.01171875,0)" xlink:href="#Q"/><use transform="matrix(0.009765625,0,0,0.009765625,84.013671875,0)" xlink:href="#R"/><use transform="matrix(0.009765625,0,0,0.009765625,96.015625,0)" xlink:href="#n"/><use transform="matrix(0.009765625,0,0,0.009765625,108.017578125,0)" xlink:href="#S"/></g><g id="f"><use transform="matrix(0.009765625,0,0,0.009765625,0,0)" xlink:href="#o"/><use transform="matrix(0.009765625,0,0,0.009765625,12.001953125,0)" xlink:href="#p"/><use transform="matrix(0.009765625,0,0,0.009765625,24.00390625,0)" xlink:href="#q"/><use transform="matrix(0.009765625,0,0,0.009765625,36.005859375,0)" xlink:href="#q"/><use transform="matrix(0.009765625,0,0,0.009765625,48.0078125,0)" xlink:href="#r"/><use transform="matrix(0.009765625,0,0,0.009765625,60.009765625,0)" xlink:href="#s"/><use transform="matrix(0.009765625,0,0,0.009765625,72.01171875,0)" xlink:href="#t"/><use transform="matrix(0.009765625,0,0,0.009765625,84.013671875,0)" xlink:href="#u"/><use transform="matrix(0.009765625,0,0,0.009765625,96.015625,0)" xlink:href="#p"/><use transform="matrix(0.009765625,0,0,0.009765625,108.017578125,0)" xlink:href="#v"/><use transform="matrix(0.009765625,0,0,0.009765625,120.01953125,0)" xlink:href="#w"/><use transform="matrix(0.009765625,0,0,0.009765625,132.021484375,0)" xlink:href="#x"/><use transform="matrix(0.009765625,0,0,0.009765625,144.0234375,0)" xlink:href="#y"/></g><path fill="#0c7cba" d="M650-1214c-281 0-336 244-336 533 0 295 60 546 347 546 188 0 263-142 322-282l159 65C1058-155 935 20 659 20c-401 0-546-295-546-701 0-407 135-689 536-689 264 0 391 146 466 335l-168 65c-47-129-127-244-297-244" id="T"/><path fill="#0c7cba" d="M615-1102c343 0 484 203 482 560-1 347-147 562-488 562-336 0-475-219-479-562-4-349 156-560 485-560zm-8 989c240 0 301-180 301-429 0-245-55-427-290-427-236 0-299 181-299 427 0 243 61 429 288 429" id="U"/><path fill="#0c7cba" d="M736-142h380V0H134v-142h422v-1200H267v-142h469v1342" id="V"/><path fill="#0c7cba" d="M617-1102c355 0 481 238 477 599H322c5 222 84 388 301 388 144 0 244-59 284-166l158 45C1002-72 854 20 623 20c-342 0-490-220-490-568 0-346 151-554 484-554zm291 461c-18-192-90-328-289-328-194 0-287 128-295 328h584" id="W"/><path fill="#0c7cba" d="M631 20c-350 0-501-215-501-562 0-355 162-560 502-560 250 0 399 118 446 323l-192 14c-23-124-109-196-262-196-242 0-305 171-305 415 1 245 61 427 304 427 151 0 248-77 267-215l190 12C1039-107 883 20 631 20" id="X"/><path fill="#0c7cba" d="M682 16c-209 0-323-80-324-285v-671H190v-142h170l58-282h120v282h432v142H538v652c2 114 60 155 182 155 106 0 209-16 297-34v137C921-4 806 16 682 16" id="Y"/><path fill="#0c7cba" d="M745-142h380V0H143v-142h422v-798H246v-142h499v940zM545-1292v-192h200v192H545" id="Z"/><path fill="#0c7cba" d="M706-1102c241 0 344 136 343 381V0H868v-695c1-168-57-273-220-268-190 6-283 138-283 336V0H185c-3-360 6-732-6-1082h170c4 54 7 126 8 185h3c63-121 164-204 346-205" id="aa"/><g id="g"><use transform="matrix(0.008680555555555556,0,0,0.008680555555555556,0,0)" xlink:href="#T"/><use transform="matrix(0.008680555555555556,0,0,0.008680555555555556,10.668402777777779,0)" xlink:href="#U"/><use transform="matrix(0.008680555555555556,0,0,0.008680555555555556,21.336805555555557,0)" xlink:href="#V"/><use transform="matrix(0.008680555555555556,0,0,0.008680555555555556,32.005208333333336,0)" xlink:href="#V"/><use transform="matrix(0.008680555555555556,0,0,0.008680555555555556,42.673611111111114,0)" xlink:href="#W"/><use transform="matrix(0.008680555555555556,0,0,0.008680555555555556,53.34201388888889,0)" xlink:href="#X"/><use transform="matrix(0.008680555555555556,0,0,0.008680555555555556,64.01041666666667,0)" xlink:href="#Y"/><use transform="matrix(0.008680555555555556,0,0,0.008680555555555556,74.67881944444446,0)" xlink:href="#Z"/><use transform="matrix(0.008680555555555556,0,0,0.008680555555555556,85.34722222222223,0)" xlink:href="#U"/><use transform="matrix(0.008680555555555556,0,0,0.008680555555555556,96.015625,0)" xlink:href="#aa"/></g><path fill="#c92d39" d="M1451-1593c23-57 142-17 210-28 17 0 28 11 28 28V301c-23 51-199 46-239 0v-1894zM1189-495c-171-28-313-131-444-199-137 97-302 193-478 239-68 17-125-137-74-171 279-108 501-233 654-438-159-34-387 0-569-11-46-6-46-159 0-182h711c74 0 159 34 165 97-34 154-154 245-256 341 102 74 262 108 358 171 11 51-34 119-68 154zm-580 17c17-57 137-17 205-28 23 0 28 6 28 28v245l512-46c28 28 46 159 6 188C990-40 518-11 97-17c-57-6-17-114-28-171 0-17 6-28 28-28l512-6v-256zm318-1075c57 17 51 182 0 182H443c-40-11-51-165 0-182h484" id="ab"/><path fill="#c92d39" d="M956-375c330 0 649 57 649 353s-330 353-649 353-643-57-643-353c0-290 319-353 643-353zm256-808l540 114c-6 57-17 154-85 165l-717-165c-205 85-427 159-677 193-63 11-102-142-63-182 336-68 677-165 933-319 6-11-6-17-34-17H369c-57-11-17-108-28-165 0-17 11-23 28-23h973c85 0 176 23 182 102-40 165-182 216-313 296zm631 483c57 11 51 193 6 193H68c-46-6-46-171 0-193h774c11-80-34-216 28-245 68 11 188-28 205 28v216h768zM1371-23c-46-245-779-239-825 0 46 245 779 239 825 0" id="ac"/><path fill="#c92d39" d="M751-848C603-706 438-569 216-495c-51-23-125-137-74-188 284-137 546-307 649-614-137-46-370-6-540-17-51-6-23-114-28-165-6-17 11-34 28-28h649c114-6 188 28 171 131-28 154-97 256-182 375 114 91 222 199 364 256 63 57-40 148-74 193-176-51-302-193-427-296zm939 1138c-6 57-137 17-205 28-23 6-28-11-28-28v-444c0-28-11-34-40-34H467c-46-6-51-176 0-193h1087c114-6 131 40 137 142v529zM1456-956c-114-11-284 28-353-23 6-57-23-154 28-171h324v-444c17-51 205-51 233 0v1081c-17 46-205 51-233 0v-444" id="ad"/><path fill="#c92d39" d="M1849-222c57 23 51 199 0 199H68c-46-11-51-182 0-199h1781zm-216-802c-11 631-1331 626-1343 0 11-631 1331-626 1343 0zm-245 0c-28-370-831-364-853 0 23 375 831 370 853 0" id="ae"/><path fill="#c92d39" d="M1593-939c51 6 40 171 6 188h-523v188h774c51 0 17 102 28 159 6 17-17 28-28 28H69c-51 0-17-102-28-159 0-17 11-28 28-28h774v-188c-182-23-518 80-506-125 6-159-68-381 137-381l882-6v-137H378c-51-6-57-171 0-188h1070c210-23 142 216 142 381 0 102-34 119-142 125H578c-11 34-11 108 0 142h1018zm28 1041c63 11 51 193 0 193H483C233 312 358-24 329-223c17-57 137-17 205-28 17-6 34 11 28 28V67c6 23 6 40 40 34h1018" id="af"/><g id="h"><use transform="matrix(0.008680555555555556,0,0,0.008680555555555556,0,0)" xlink:href="#ab"/><use transform="matrix(0.008680555555555556,0,0,0.008680555555555556,16.692708333333336,0)" xlink:href="#ac"/><use transform="matrix(0.008680555555555556,0,0,0.008680555555555556,33.38541666666667,0)" xlink:href="#ad"/><use transform="matrix(0.008680555555555556,0,0,0.008680555555555556,50.07812500000001,0)" xlink:href="#ae"/><use transform="matrix(0.008680555555555556,0,0,0.008680555555555556,66.77083333333334,0)" xlink:href="#af"/></g><path fill="#c92d39" d="M714-844H515l-37-641h273" id="ag"/><path fill="#c92d39" d="M1849-563c63 11 51 193 0 193h-768v649c-17 63-142 17-205 28-17 0-28-11-28-28v-649H69c-51-6-23-108-28-165-6-17 11-34 28-28h1781zm-239-404c6 57 28 176-17 193H461c-108 0-148-46-148-148v-523c0-108 46-125 148-131h1115c57 6 17 114 28 171 0 17-11 23-28 23H586c-23 0-40 11-40 34v341c0 23 17 34 40 34" id="ah"/><path fill="#c92d39" d="M1109-939c-11 176 57 398-154 398H363c-119 0-154-34-159-148v-819c23-46 205-51 233 0v313h438v-319c17-40 199-34 233 0v381h347v-461c17-63 142-17 205-28 17 0 28 11 28 28v1331c-28 51-142 11-210 23-17 0-23-6-23-23v-677h-347zM1718 97c51 6 46 193 0 193H654C375 313 535-85 495-302c23-46 205-51 239 0V62c0 23 11 40 40 34h944zM876-1007H438c17 85-46 250 40 273h358c85-17 23-188 40-273" id="ai"/><g id="i"><use transform="matrix(0.008680555555555556,0,0,0.008680555555555556,0,0)" xlink:href="#ag"/><use transform="matrix(0.008680555555555556,0,0,0.008680555555555556,10.668402777777779,0)" xlink:href="#ah"/><use transform="matrix(0.008680555555555556,0,0,0.008680555555555556,27.36111111111111,0)" xlink:href="#ag"/><use transform="matrix(0.008680555555555556,0,0,0.008680555555555556,38.02951388888889,0)" xlink:href="#ai"/></g><path fill="#c92d39" d="M1018 0H770c-49-215-106-420-154-636C567-419 511-214 459 0H211L0-1349h259c35 320 94 617 105 961 37-206 100-393 154-583h195c54 191 118 375 154 583 14-339 68-641 102-961h259" id="aj"/><path fill="#c92d39" d="M875-1102c70 0 148 7 206 17v237c-110-17-267-37-359 15-123 69-192 207-192 395V0H250c-10-367 32-789-52-1082h271c19 69 36 149 46 228h4c52-151 151-250 356-248" id="ak"/><path fill="#c92d39" d="M775-193C708-75 621 20 439 20 226 20 106-93 106-306c0-251 170-341 417-346l223-4c4-143-12-264-148-264-103 0-141 58-150 153l-293-14c37-219 194-321 455-321 263 0 418 130 417 390v392c1 84 5 161 89 160 21 0 42-2 62-6v152c-57 15-108 27-180 26-145 0-202-73-217-205h-6zm-256 17c168 0 234-139 227-325-166 4-347-25-347 173 0 94 33 152 120 152" id="al"/><path fill="#c92d39" d="M427-171c3 195 2 397 2 596H148V-846c1-83-4-168-8-236h272c10 49 14 118 15 176h4c59-114 151-197 316-197 291 0 385 259 385 560 0 243-65 433-220 521-50 28-109 42-176 42-162-2-253-78-309-191zm69-661c-91 113-92 463-1 586 46 62 145 101 225 54 96-57 118-191 119-351 0-123-18-215-53-276-46-82-128-115-220-74-25 12-48 33-70 61" id="am"/><path fill="#c92d39" d="M794-190h353V0H118v-190h395v-702H223v-190h571v892zM513-1277v-207h281v207H513" id="an"/><path fill="#c92d39" d="M768-1103c247 0 336 167 336 416V0H824v-619c-3-164-24-273-171-273-164 0-229 142-229 312V0H143c-4-359 9-736-8-1082h268c7 63 12 146 13 215h4c67-145 160-236 348-236" id="ao"/><path fill="#c92d39" d="M1108-33c-3 314-178 467-492 467-243 0-400-94-447-291l281-33c17 79 82 141 174 141 176 0 212-155 205-347-2-40 5-80 0-115C773-85 665-12 501-12c-288 0-377-242-377-538 0-242 65-426 223-510 50-26 108-39 175-39 160 0 253 78 307 191h5c1-58 5-125 14-174h266c-12 335-3 703-6 1049zM811-384c25-82 27-259 1-342-30-99-77-180-190-180-172 0-205 171-205 356 0 116 18 202 54 258 48 76 129 107 221 70 62-25 96-86 119-162" id="ap"/><path fill="#c92d39" d="M1320-643c63 0 68 171 28 193-375 51-819 68-1252 63-46-11-51-182 0-205 165 6 341 6 523 0v-239c-176-6-410 40-387-154 28-199-91-535 148-535h768c57 11 17 108 28 165 0 17-6 28-28 28H505c-80 23-23 182-40 267 0 23 17 34 40 34h666c57 0 57 176 0 193H847v233zm381 728c51 11 46 199 0 199H580C324 307 461-35 426-234c6-51 210-46 239 0V50c0 23 6 40 34 34h1001zm-11-324c-17 57-142 17-210 28-17 0-28-11-28-28v-1354c23-51 199-46 239 0v1354" id="aq"/><g id="j"><use transform="matrix(0.008680555555555556,0,0,0.008680555555555556,0,0)" xlink:href="#aj"/><use transform="matrix(0.008680555555555556,0,0,0.008680555555555556,10.668402777777779,0)" xlink:href="#ak"/><use transform="matrix(0.008680555555555556,0,0,0.008680555555555556,21.336805555555557,0)" xlink:href="#al"/><use transform="matrix(0.008680555555555556,0,0,0.008680555555555556,32.005208333333336,0)" xlink:href="#am"/><use transform="matrix(0.008680555555555556,0,0,0.008680555555555556,42.673611111111114,0)" xlink:href="#am"/><use transform="matrix(0.008680555555555556,0,0,0.008680555555555556,53.34201388888889,0)" xlink:href="#an"/><use transform="matrix(0.008680555555555556,0,0,0.008680555555555556,64.01041666666667,0)" xlink:href="#ao"/><use transform="matrix(0.008680555555555556,0,0,0.008680555555555556,74.67881944444446,0)" xlink:href="#ap"/><use transform="matrix(0.008680555555555556,0,0,0.008680555555555556,85.34722222222223,0)" xlink:href="#aq"/></g><path fill="#c92d39" d="M1690 296c-17 63-142 17-210 28-17 0-28-11-28-28v-1889c17-63 142-17 210-28 17 0 28 11 28 28V296zM677-358c375-40 370-893 0-927-381 28-370 899 0 927zm501-467c0 375-131 677-501 677-358 0-506-296-506-677 0-375 142-671 506-671s501 296 501 671" id="ar"/><use transform="matrix(0.008680555555555556,0,0,0.008680555555555556,0,0)" xlink:href="#ar" id="k"/><path fill="#c92d39" d="M1445 17c-80 131-193 245-336 319-40-11-57-57-85-80-57 131-336 74-506 74-119 0-154-28-154-148v-614c17-40 182-34 216 0v210h239c11-80-34-222 28-239 63 11 176-28 188 28v580c193-125 296-284 296-586 6-80 125-23 188-34 74 57-23 245 63 319 57 125 154 216 262 284 74 51-40 114-57 165-159 11-262-165-341-279zM893-1553c176-17 182 114 142 245-119 375-415 626-802 762-91 28-148-125-102-182 302-131 592-279 666-626-165-34-410 0-597-11-40-6-40-171 6-188h688zm984 364c63 11 51 199 0 199h-273v393c-23 46-210 51-239-6v-990c23-57 142-17 210-28 17 0 28 11 28 28v404h273zM819-40H580c11 63-28 176 34 188 68-11 205 34 205-40V-40" id="as"/><g id="l"><use transform="matrix(0.008680555555555556,0,0,0.008680555555555556,0,0)" xlink:href="#as"/><use transform="matrix(0.008680555555555556,0,0,0.008680555555555556,16.692708333333336,0)" xlink:href="#ar"/></g><path fill="#c92d39" d="M859-1007H427v239c0 23 11 34 34 34h364c74-28 17-188 34-273zm233 324c0 102-46 142-154 142H346c-119 0-148-34-154-148v-819c17-51 199-46 233 0v313h432v-319c23-46 142-11 210-23 11-6 28 11 23 23v831zm563 774c51 28 46 188 0 199H568C301 307 454-80 414-290c17-46 205-51 233 0V57c6 23 6 40 40 34h967zm222-1069c63 11 51 193 0 193h-273v518c-17 63-142 17-210 28-17 0-28-11-28-28v-1326c17-63 142-17 210-28 17 0 28 11 28 28v614h273" id="at"/><path fill="#c92d39" d="M375-250c-142 0-353 74-302-154 91-74 324 0 512-28v-137c-165-28-324-97-324-279 0-404 887-398 887 0 0 188-171 245-336 279v131l472-34c17 34 40 148 0 171-284 34-597 51-910 51zm1508-609c51 17 46 193 0 193h-267v535c-17 63-142 17-210 28-17 0-28-11-28-28v-1462c17-63 142-17 210-28 17 0 28 11 28 28v734h267zm-205 967c51 6 46 193 0 193H535C296 335 404 45 381-137c6-57 137-17 205-28 91 17-40 273 68 273h1024zm-478-1473c51 17 40 159 0 171H170c-40-11-51-165 6-171h1024zm-261-245c63 6 46 165 0 171H433c-46-6-46-154 0-171h506zm-23 762c-6-171-415-165-427 0 17 159 410 171 427 0" id="au"/><path fill="#c92d39" d="M1690 171c0 97-46 137-154 137H592c-119 0-154-23-154-142v-546c17-40 199-34 233 0v171h785c11-68-28-188 28-205 68 11 188-28 205 28v558zm-518-1269c68 0 40 182 6 188H848v199c176 17 387-68 518-11 0 51 40 148-17 159-381 46-819 46-1246 46-57 0-17-108-28-159 0-17 6-28 28-28h512v-205c-171-6-404 46-381-148 23-188-85-472 148-472h768c57 6 17 108 28 159 0 17-11 23-28 23H507c-74 11-28 142-40 210 6 23 11 40 40 40h666zm279-495c23-57 142-17 210-28 17 0 28 11 28 28v1052c-17 63-142 17-210 28-17 6-28-17-28-28v-1052zm5 1570H671c6 57-23 142 40 142h705c63 0 34-85 40-142" id="av"/><path fill="#c92d39" d="M1690 296c-17 63-142 17-210 28-17 0-28-11-28-28v-1889c17-63 142-17 210-28 17 0 28 11 28 28V296zM603-245c-182 0-381 28-381-159v-1070c17-51 199-46 233 0v990c0 28 6 34 40 34 262 11 518-23 757-63 68-11 97 171 34 188-193 57-444 80-683 80" id="aw"/><path fill="#c92d39" d="M1877-870c63 11 51 199 0 199h-273v967c-17 63-142 17-210 28-17 0-28-11-28-28v-1889c17-63 142-17 210-28 17 0 28 11 28 28v722h273zM410-489c108 154 575 6 796-11 51-6 74 154 34 188-199 51-466 85-711 85-176 0-353 46-353-137v-973c6-102 28-131 137-131h740c46 11 51 176 0 199H444c-23 0-34 11-34 34v745" id="ax"/><path fill="#c92d39" d="M470 0v-305h289V0H470" id="ay"/><g id="m"><use transform="matrix(0.008680555555555556,0,0,0.008680555555555556,0,0)" xlink:href="#at"/><use transform="matrix(0.008680555555555556,0,0,0.008680555555555556,16.692708333333336,0)" xlink:href="#au"/><use transform="matrix(0.008680555555555556,0,0,0.008680555555555556,33.38541666666667,0)" xlink:href="#av"/><use transform="matrix(0.008680555555555556,0,0,0.008680555555555556,50.07812500000001,0)" xlink:href="#aw"/><use transform="matrix(0.008680555555555556,0,0,0.008680555555555556,66.77083333333334,0)" xlink:href="#ax"/><use transform="matrix(0.008680555555555556,0,0,0.008680555555555556,83.46354166666669,0)" xlink:href="#ay"/></g></defs></g></svg>