<svg xmlns="http://www.w3.org/2000/svg" xmlns:xlink="http://www.w3.org/1999/xlink" xmlns:lucid="lucid" width="1054" height="411"><g transform="translate(-182 -386)" lucid:page-tab-id="0_0"><path d="M0 0h1870.4v1323.2H0z" fill="#fff"/><path d="M177 380h1063v420H177z" stroke="#000" stroke-width="2" fill-opacity="0"/><path d="M420 520h580.43v250H420z" stroke="#000" stroke-width="2" fill-opacity="0"/><path d="M850.43 550h64.46v60h-64.47zM508.2 550h64.46v60H508.2z" stroke="#0c7cba" stroke-width="2" fill-opacity="0"/><path d="M522.66 410h35.53v40h-35.54z" stroke="#000" stroke-opacity="0" stroke-width="2" fill="#fff" fill-opacity="0"/><use xlink:href="#a" transform="matrix(1,0,0,1,527.6611759609956,415) translate(5.665473090277777 22.32855902777778)"/><path d="M865.48 410H901v40H865.5z" stroke="#000" stroke-opacity="0" stroke-width="2" fill="#fff" fill-opacity="0"/><use xlink:href="#b" transform="matrix(1,0,0,1,870.4813259175139,415) translate(-9.003580729166671 22.32855902777778)"/><path d="M559.2 430h279.76" stroke="#000" stroke-width="2" fill="none"/><path d="M559.22 431h-1.03v-2h1.02z"/><path d="M854.23 430l-14.27 4.64v-9.28z" stroke="#000" stroke-width="2"/><path d="M581.94 385H840.3v50H581.93z" stroke="#000" stroke-opacity="0" stroke-width="2" fill="#fff" fill-opacity="0"/><use xlink:href="#c" transform="matrix(1,0,0,1,586.9416243654849,390) translate(4.48046875 25.99609375)"/><path d="M478.2 430h124.46v40H478.2z" stroke="#000" stroke-opacity="0" stroke-width="2" fill="#fff" fill-opacity="0"/><use xlink:href="#d" transform="matrix(1,0,0,1,483.1941708848534,435) translate(36.16319444444444 20.32986111111111)"/><path d="M821 430H945.5v40H821z" stroke="#000" stroke-opacity="0" stroke-width="2" fill="#fff" fill-opacity="0"/><use xlink:href="#d" transform="matrix(1,0,0,1,826.0143208413717,435) translate(36.16319444444444 20.32986111111111)"/><path d="M440.43 720h200v50h-200z" stroke="#000" stroke-opacity="0" stroke-width="2" fill="#fff" fill-opacity="0"/><use xlink:href="#e" transform="matrix(1,0,0,1,445.4276734229245,725) translate(5.4853515625 25.99609375)"/><path d="M782.66 720h200v50h-200z" stroke="#000" stroke-opacity="0" stroke-width="2" fill="#fff" fill-opacity="0"/><use xlink:href="#f" transform="matrix(1,0,0,1,787.6611759609957,725) translate(-12.517578125 25.99609375)"/><path d="M522.66 560h35.53v40h-35.54z" stroke="#000" stroke-opacity="0" stroke-width="2" fill="#fff" fill-opacity="0"/><use xlink:href="#a" transform="matrix(1,0,0,1,527.6611759609956,565) translate(5.665473090277777 22.32855902777778)"/><path d="M864.9 560h35.53v40H864.9z" stroke="#000" stroke-opacity="0" stroke-width="2" fill="#fff" fill-opacity="0"/><use xlink:href="#b" transform="matrix(1,0,0,1,869.8946784990668,565) translate(-9.003580729166671 22.32855902777778)"/><path d="M559.2 580H837.2" stroke="#000" stroke-width="2" fill="none"/><path d="M559.22 581h-1.03v-2h1.02z"/><path d="M852.5 580l-14.28 4.64v-9.28z" stroke="#000" stroke-width="2"/><path d="M649.3 540H773.8v40H649.3z" stroke="#000" stroke-opacity="0" stroke-width="2" fill="#fff" fill-opacity="0"/><use xlink:href="#g" transform="matrix(1,0,0,1,654.310922153889,545) translate(-62.51953125 20.99609375)"/><path d="M478.2 580h124.46v40H478.2z" stroke="#000" stroke-opacity="0" stroke-width="2" fill="#fff" fill-opacity="0"/><use xlink:href="#d" transform="matrix(1,0,0,1,483.1941708848534,585) translate(36.16319444444444 20.32986111111111)"/><path d="M820.43 580H944.9v40H820.42z" stroke="#000" stroke-opacity="0" stroke-width="2" fill="#fff" fill-opacity="0"/><use xlink:href="#d" transform="matrix(1,0,0,1,825.4276734229246,585) translate(36.16319444444444 20.32986111111111)"/><path d="M508.2 610h64.46v60H508.2zM850.43 610h64.46v60h-64.47zM850.43 670h64.46v60h-64.47zM508.2 670h64.46v60H508.2z" stroke="#0c7cba" stroke-width="2" fill-opacity="0"/><path d="M522.66 620h35.53v40h-35.54z" stroke="#000" stroke-opacity="0" stroke-width="2" fill="#fff" fill-opacity="0"/><use xlink:href="#h" transform="matrix(1,0,0,1,527.6611759609956,625) translate(5.665473090277777 22.32855902777778)"/><path d="M864.9 620h35.53v40H864.9z" stroke="#000" stroke-opacity="0" stroke-width="2" fill="#fff" fill-opacity="0"/><use xlink:href="#i" transform="matrix(1,0,0,1,869.8946784990668,625) translate(-9.003580729166671 22.32855902777778)"/><path d="M522.66 680h35.53v40h-35.54z" stroke="#000" stroke-opacity="0" stroke-width="2" fill="#fff" fill-opacity="0"/><use xlink:href="#j" transform="matrix(1,0,0,1,527.6611759609956,685) translate(5.665473090277777 22.32855902777778)"/><path d="M864.9 680h35.53v40H864.9z" stroke="#000" stroke-opacity="0" stroke-width="2" fill="#fff" fill-opacity="0"/><use xlink:href="#k" transform="matrix(1,0,0,1,869.8946784990668,685) translate(-9.003580729166671 22.32855902777778)"/><defs><path fill="#19967d" d="M148-1120c216-7 379-89 463-229h166v1204h353V0H157v-145h439v-1021c-79 124-254 184-448 194v-148" id="l"/><use transform="matrix(0.01193576388888889,0,0,0.01193576388888889,0,0)" xlink:href="#l" id="a"/><path fill="#19967d" d="M908-845H766l-40-639h224zm-449 0H318l-41-639h224" id="m"/><path fill="#19967d" d="M611-1370c266 0 451 106 451 368 0 147-77 243-154 327-132 144-316 255-451 395-42 44-75 87-96 134h723V0H144v-117c124-264 387-411 582-603 73-72 151-147 151-271 0-161-104-231-266-231-163 0-249 90-268 238l-184-17c35-233 185-369 452-369" id="n"/><g id="b"><use transform="matrix(0.01193576388888889,0,0,0.01193576388888889,0,0)" xlink:href="#m"/><use transform="matrix(0.01193576388888889,0,0,0.01193576388888889,14.669053819444446,0)" xlink:href="#n"/><use transform="matrix(0.01193576388888889,0,0,0.01193576388888889,29.338107638888893,0)" xlink:href="#m"/></g><path d="M462-1121v384h621v228H462V0H167v-1349h939v228H462" id="o"/><path d="M471 20c-247 0-336-169-336-415v-687h281v607c4 148 31 285 172 285 152 0 207-150 207-312v-580h281c4 359-9 736 8 1082H816c-7-63-11-146-12-215h-5C736-76 644 20 471 20" id="p"/><path d="M768-1103c247 0 336 167 336 416V0H824v-619c-3-164-24-273-171-273-164 0-229 142-229 312V0H143c-4-359 9-736-8-1082h268c7 63 12 146 13 215h4c67-145 160-236 348-236" id="q"/><path d="M1109-360C1066-122 902 20 624 20c-347 0-514-209-514-555 0-353 168-567 518-567 270 0 425 136 473 361l-283 14c-16-106-75-183-196-182-75 0-130 31-165 93s-52 152-52 270c0 249 74 374 221 374 120 0 188-82 201-201" id="r"/><path d="M711 13c-250 0-386-99-385-349l2-556H161v-190h181l88-282h176v282h385v190H606v530c-10 130 45 186 174 184 91-2 176-11 255-27v186C933-1 833 13 711 13" id="s"/><path d="M794-190h353V0H118v-190h395v-702H223v-190h571v892zM513-1277v-207h281v207H513" id="t"/><path d="M616-1102c361 0 521 202 521 560 0 354-171 562-527 562C259 20 92-192 92-542c0-351 169-560 524-560zm-9 930c200-2 236-165 236-370 0-199-27-367-223-367-195 0-233 146-233 367 0 129 18 223 55 282s92 88 165 88" id="u"/><path d="M116-571v-205l995-418v154L253-674l858 367v153" id="v"/><path fill="#19967d" d="M202-1349h823v156H709v1037h316V0H202v-156h316v-1037H202v-156" id="w"/><path fill="#19967d" d="M706-1102c241 0 344 136 343 381V0H868v-695c1-168-57-273-220-268-190 6-283 138-283 336V0H185c-3-360 6-732-6-1082h170c4 54 7 126 8 185h3c63-121 164-204 346-205" id="x"/><path fill="#19967d" d="M682 16c-209 0-323-80-324-285v-671H190v-142h170l58-282h120v282h432v142H538v652c2 114 60 155 182 155 106 0 209-16 297-34v137C921-4 806 16 682 16" id="y"/><path fill="#19967d" d="M259 363l169-662h265L382 363H259" id="z"/><path fill="#19967d" d="M614-1226c-167 1-283 53-283 213 0 183 186 193 334 234 230 63 463 120 463 409 0 286-219 387-518 390C309 23 131-98 79-338l185-37c34 165 149 248 351 246 184-2 324-58 324-238 0-203-207-221-372-266-210-57-422-111-422-377 0-267 201-356 470-360 279-5 430 101 480 324l-188 33c-28-141-121-215-293-213" id="A"/><path fill="#19967d" d="M839-1102c70 0 148 7 206 17v167c-112-18-268-36-363 15-129 69-208 203-208 395V0H294c-10-367 32-789-52-1082h171c21 75 41 161 48 250h5c67-152 152-270 373-270" id="B"/><path fill="#19967d" d="M745-142h380V0H143v-142h422v-798H246v-142h499v940zM545-1292v-192h200v192H545" id="C"/><path fill="#19967d" d="M1048-32c-2 300-135 456-433 456-222-1-358-88-400-267l184-25c22 99 100 157 222 156 184-2 248-125 248-315 0-64 3-133-2-194C807-100 706-13 524-12c-306 0-381-228-381-537 0-318 85-550 400-550 164 0 271 83 325 202h3c1-60 3-134 12-185h171c-13 339-4 702-6 1050zM585-145c210-8 284-178 284-406 0-192-52-331-177-392-33-16-69-22-104-22-223 2-259 184-259 414 0 229 31 415 256 406" id="D"/><path d="M116-154v-153l858-367-858-366v-154l995 418v205" id="E"/><g id="c"><use transform="matrix(0.009765625,0,0,0.009765625,0,0)" xlink:href="#o"/><use transform="matrix(0.009765625,0,0,0.009765625,12.001953125,0)" xlink:href="#p"/><use transform="matrix(0.009765625,0,0,0.009765625,24.00390625,0)" xlink:href="#q"/><use transform="matrix(0.009765625,0,0,0.009765625,36.005859375,0)" xlink:href="#r"/><use transform="matrix(0.009765625,0,0,0.009765625,48.0078125,0)" xlink:href="#s"/><use transform="matrix(0.009765625,0,0,0.009765625,60.009765625,0)" xlink:href="#t"/><use transform="matrix(0.009765625,0,0,0.009765625,72.01171875,0)" xlink:href="#u"/><use transform="matrix(0.009765625,0,0,0.009765625,84.013671875,0)" xlink:href="#q"/><use transform="matrix(0.009765625,0,0,0.009765625,96.015625,0)" xlink:href="#v"/><use transform="matrix(0.009765625,0,0,0.009765625,108.017578125,0)" xlink:href="#w"/><use transform="matrix(0.009765625,0,0,0.009765625,120.01953125,0)" xlink:href="#x"/><use transform="matrix(0.009765625,0,0,0.009765625,132.021484375,0)" xlink:href="#y"/><use transform="matrix(0.009765625,0,0,0.009765625,144.0234375,0)" xlink:href="#z"/><use transform="matrix(0.009765625,0,0,0.009765625,156.025390625,0)" xlink:href="#A"/><use transform="matrix(0.009765625,0,0,0.009765625,168.02734375,0)" xlink:href="#y"/><use transform="matrix(0.009765625,0,0,0.009765625,180.029296875,0)" xlink:href="#B"/><use transform="matrix(0.009765625,0,0,0.009765625,192.03125,0)" xlink:href="#C"/><use transform="matrix(0.009765625,0,0,0.009765625,204.033203125,0)" xlink:href="#x"/><use transform="matrix(0.009765625,0,0,0.009765625,216.03515625,0)" xlink:href="#D"/><use transform="matrix(0.009765625,0,0,0.009765625,228.037109375,0)" xlink:href="#E"/></g><path fill="#19967d" d="M473-1349c438-1 655 221 652 661C1122-268 945-8 532 0H162v-1349h311zm42 1193c308-4 416-205 418-532 2-330-131-509-459-505H353v1037h162" id="F"/><path fill="#19967d" d="M1000-272c3 95 12 159 101 161 21 0 41-3 59-7V-6c-44 10-86 16-139 16-141 2-191-84-197-217h-6C748-76 648 20 446 20c-207 0-318-120-318-322 0-266 194-348 454-354l236-4c12-191-40-305-222-305-140 0-220 47-232 172l-188-17c33-204 181-292 423-292 255 0 401 118 401 364v466zm-683-27c0 109 63 184 175 182 166-3 259-96 306-217 24-65 20-120 20-200-232 7-501-28-501 235" id="G"/><g id="d"><use transform="matrix(0.008680555555555556,0,0,0.008680555555555556,0,0)" xlink:href="#F"/><use transform="matrix(0.008680555555555556,0,0,0.008680555555555556,10.668402777777779,0)" xlink:href="#G"/><use transform="matrix(0.008680555555555556,0,0,0.008680555555555556,21.336805555555557,0)" xlink:href="#y"/><use transform="matrix(0.008680555555555556,0,0,0.008680555555555556,32.005208333333336,0)" xlink:href="#G"/></g><path fill="#0c7cba" d="M1031-970c-23-138-92-244-250-244-306 0-381 266-440 533-17 75-25 147-25 229 1 197 73 317 266 317 202 0 293-151 377-282l146 65C986-167 844 20 550 20c-297 0-434-170-434-467 0-413 147-747 446-877 112-49 299-63 420-18 132 49 200 159 229 307" id="H"/><path fill="#0c7cba" d="M724-1102c292 0 423 159 388 460-35 307-154 537-400 628-65 24-136 34-212 34-254-2-388-131-388-387 0-255 97-480 226-595 103-92 231-140 386-140zM381-747C294-559 211-98 524-113c294-14 359-254 399-525 28-194-32-337-222-331-174 5-260 94-320 222" id="I"/><path fill="#0c7cba" d="M659-142h380L1011 0H29l28-142h422l233-1200H423l27-142h469" id="J"/><path fill="#0c7cba" d="M726-1102c256 0 385 126 386 379 1 67-11 147-25 220H315c-7 39-13 78-13 121 2 164 74 267 238 267 154 0 260-65 317-166l149 45C916-82 760 20 514 20c-259 0-398-131-398-390 0-357 148-615 421-704 62-20 125-28 189-28zm202 461c22-192-41-335-226-328-212 9-312 142-358 328h584" id="K"/><path fill="#0c7cba" d="M522 20c-267 0-410-127-410-389 0-365 156-619 438-707 169-53 390-23 481 68 54 54 92 128 93 229l-194 14c0-132-80-198-224-196-263 3-339 192-386 415-13 63-19 121-19 174-1 166 74 255 240 253 161-2 266-84 309-215l188 12C961-121 793 20 522 20" id="L"/><path fill="#0c7cba" d="M574 16c-199 5-309-85-269-285l131-671H268l27-142h170l113-282h120l-55 282h432l-27 142H616c-43 233-105 457-132 696-16 144 198 111 324 99 46-6 96-14 136-22L918-30C819-5 700 13 574 16" id="M"/><path fill="#0c7cba" d="M668-142h380L1020 0H38l28-142h422l155-798H324l27-142h499zm23-1150l37-192h200l-37 192H691" id="N"/><path fill="#0c7cba" d="M815-1102c202-2 311 102 279 314-40 267-101 525-150 788H763l135-695c7-39 11-71 11-98 2-119-62-175-179-170-208 9-312 151-348 336L260 0H80c67-361 144-713 204-1082h170c-6 58-17 130-28 185h3c86-116 194-203 386-205" id="O"/><path d="M116-571v-205l995-418v154L253-674l858 367v153" id="P"/><path fill="#19967d" d="M359-1349h823l-30 156H836L634-156h316L920 0H97l30-156h316l202-1037H329" id="Q"/><path fill="#19967d" d="M815-1102c202-2 311 102 279 314-40 267-101 525-150 788H763l135-695c7-39 11-71 11-98 2-119-62-175-179-170-208 9-312 151-348 336L260 0H80c67-361 144-713 204-1082h170c-6 58-17 130-28 185h3c86-116 194-203 386-205" id="R"/><path fill="#19967d" d="M574 16c-199 5-309-85-269-285l131-671H268l27-142h170l113-282h120l-55 282h432l-27 142H616c-43 233-105 457-132 696-16 144 198 111 324 99 46-6 96-14 136-22L918-30C819-5 700 13 574 16" id="S"/><path d="M116-154v-153l858-367-858-366v-154l995 418v205" id="T"/><g id="e"><use transform="matrix(0.009765625,0,0,0.009765625,0,0)" xlink:href="#H"/><use transform="matrix(0.009765625,0,0,0.009765625,12.001953125,0)" xlink:href="#I"/><use transform="matrix(0.009765625,0,0,0.009765625,24.00390625,0)" xlink:href="#J"/><use transform="matrix(0.009765625,0,0,0.009765625,36.005859375,0)" xlink:href="#J"/><use transform="matrix(0.009765625,0,0,0.009765625,48.0078125,0)" xlink:href="#K"/><use transform="matrix(0.009765625,0,0,0.009765625,60.009765625,0)" xlink:href="#L"/><use transform="matrix(0.009765625,0,0,0.009765625,72.01171875,0)" xlink:href="#M"/><use transform="matrix(0.009765625,0,0,0.009765625,84.013671875,0)" xlink:href="#N"/><use transform="matrix(0.009765625,0,0,0.009765625,96.015625,0)" xlink:href="#I"/><use transform="matrix(0.009765625,0,0,0.009765625,108.017578125,0)" xlink:href="#O"/><use transform="matrix(0.009765625,0,0,0.009765625,120.01953125,0)" xlink:href="#P"/><use transform="matrix(0.009765625,0,0,0.009765625,132.021484375,0)" xlink:href="#Q"/><use transform="matrix(0.009765625,0,0,0.009765625,144.0234375,0)" xlink:href="#R"/><use transform="matrix(0.009765625,0,0,0.009765625,156.025390625,0)" xlink:href="#S"/><use transform="matrix(0.009765625,0,0,0.009765625,168.02734375,0)" xlink:href="#T"/></g><path fill="#19967d" d="M747-1226c-195 1-328 74-328 254 0 150 168 158 292 193 206 58 444 122 384 409-56 265-271 388-594 390C217 22 49-81 40-338l192-37c3 179 117 247 303 246 215-2 375-80 375-283 0-168-187-179-325-221-168-51-357-87-357-299 0-308 229-433 548-438 258-4 409 81 417 324l-194 33c-2-154-93-214-252-213" id="U"/><path fill="#19967d" d="M523-832c93-143 191-271 425-270 69 0 147 7 203 17l-33 167c-114-19-266-34-366 15-148 73-248 213-284 395L369 0H189l136-701c21-116 30-253 22-381h171c8 76 8 174 0 250h5" id="V"/><path fill="#19967d" d="M668-142h380L1020 0H38l28-142h422l155-798H324l27-142h499zm23-1150l37-192h200l-37 192H691" id="W"/><path fill="#19967d" d="M940-897c13-60 29-133 48-185h171c-77 342-140 701-210 1050-56 281-202 456-521 456-206 0-338-74-349-267l189-25c4 106 77 157 192 156 278-2 302-269 347-509h-2C725-106 614-12 421-12c-211 0-301-105-301-316 0-334 99-623 338-734 55-26 121-37 194-37 155 0 253 77 285 202h3zM384-742c-65 178-183 620 124 597 157-12 241-101 302-217 41-78 77-217 77-335 0-159-63-268-216-268-166 0-240 95-287 223" id="X"/><g id="f"><use transform="matrix(0.009765625,0,0,0.009765625,0,0)" xlink:href="#H"/><use transform="matrix(0.009765625,0,0,0.009765625,12.001953125,0)" xlink:href="#I"/><use transform="matrix(0.009765625,0,0,0.009765625,24.00390625,0)" xlink:href="#J"/><use transform="matrix(0.009765625,0,0,0.009765625,36.005859375,0)" xlink:href="#J"/><use transform="matrix(0.009765625,0,0,0.009765625,48.0078125,0)" xlink:href="#K"/><use transform="matrix(0.009765625,0,0,0.009765625,60.009765625,0)" xlink:href="#L"/><use transform="matrix(0.009765625,0,0,0.009765625,72.01171875,0)" xlink:href="#M"/><use transform="matrix(0.009765625,0,0,0.009765625,84.013671875,0)" xlink:href="#N"/><use transform="matrix(0.009765625,0,0,0.009765625,96.015625,0)" xlink:href="#I"/><use transform="matrix(0.009765625,0,0,0.009765625,108.017578125,0)" xlink:href="#O"/><use transform="matrix(0.009765625,0,0,0.009765625,120.01953125,0)" xlink:href="#P"/><use transform="matrix(0.009765625,0,0,0.009765625,132.021484375,0)" xlink:href="#U"/><use transform="matrix(0.009765625,0,0,0.009765625,144.0234375,0)" xlink:href="#S"/><use transform="matrix(0.009765625,0,0,0.009765625,156.025390625,0)" xlink:href="#V"/><use transform="matrix(0.009765625,0,0,0.009765625,168.02734375,0)" xlink:href="#W"/><use transform="matrix(0.009765625,0,0,0.009765625,180.029296875,0)" xlink:href="#R"/><use transform="matrix(0.009765625,0,0,0.009765625,192.03125,0)" xlink:href="#X"/><use transform="matrix(0.009765625,0,0,0.009765625,204.033203125,0)" xlink:href="#T"/></g><path d="M512-1193l-96 494h676l-31 158H385L280 0H89l262-1349h891l-30 156H512" id="Y"/><path d="M419 20c-186 0-282-64-284-243 0-40 5-86 15-138l140-721h180c-47 251-101 497-144 752-25 145 40 219 181 211 211-12 308-150 344-336l122-627h181C1087-721 1010-369 950 0H780c6-58 18-129 28-185h-3C720-71 616 20 419 20" id="Z"/><path d="M815-1102c202-2 311 102 279 314-40 267-101 525-150 788H763l135-695c7-39 11-71 11-98 2-119-62-175-179-170-208 9-312 151-348 336L260 0H80c67-361 144-713 204-1082h170c-6 58-17 130-28 185h3c86-116 194-203 386-205" id="aa"/><path d="M522 20c-267 0-410-127-410-389 0-365 156-619 438-707 169-53 390-23 481 68 54 54 92 128 93 229l-194 14c0-132-80-198-224-196-263 3-339 192-386 415-13 63-19 121-19 174-1 166 74 255 240 253 161-2 266-84 309-215l188 12C961-121 793 20 522 20" id="ab"/><path d="M574 16c-199 5-309-85-269-285l131-671H268l27-142h170l113-282h120l-55 282h432l-27 142H616c-43 233-105 457-132 696-16 144 198 111 324 99 46-6 96-14 136-22L918-30C819-5 700 13 574 16" id="ac"/><path d="M668-142h380L1020 0H38l28-142h422l155-798H324l27-142h499zm23-1150l37-192h200l-37 192H691" id="ad"/><path d="M724-1102c292 0 423 159 388 460-35 307-154 537-400 628-65 24-136 34-212 34-254-2-388-131-388-387 0-255 97-480 226-595 103-92 231-140 386-140zM381-747C294-559 211-98 524-113c294-14 359-254 399-525 28-194-32-337-222-331-174 5-260 94-320 222" id="ae"/><path fill="#19967d" d="M83 363l298-662h265L206 363H83" id="af"/><g id="g"><use transform="matrix(0.009765625,0,0,0.009765625,0,0)" xlink:href="#Y"/><use transform="matrix(0.009765625,0,0,0.009765625,12.001953125,0)" xlink:href="#Z"/><use transform="matrix(0.009765625,0,0,0.009765625,24.00390625,0)" xlink:href="#aa"/><use transform="matrix(0.009765625,0,0,0.009765625,36.005859375,0)" xlink:href="#ab"/><use transform="matrix(0.009765625,0,0,0.009765625,48.0078125,0)" xlink:href="#ac"/><use transform="matrix(0.009765625,0,0,0.009765625,60.009765625,0)" xlink:href="#ad"/><use transform="matrix(0.009765625,0,0,0.009765625,72.01171875,0)" xlink:href="#ae"/><use transform="matrix(0.009765625,0,0,0.009765625,84.013671875,0)" xlink:href="#aa"/><use transform="matrix(0.009765625,0,0,0.009765625,96.015625,0)" xlink:href="#P"/><use transform="matrix(0.009765625,0,0,0.009765625,108.017578125,0)" xlink:href="#Q"/><use transform="matrix(0.009765625,0,0,0.009765625,120.01953125,0)" xlink:href="#R"/><use transform="matrix(0.009765625,0,0,0.009765625,132.021484375,0)" xlink:href="#S"/><use transform="matrix(0.009765625,0,0,0.009765625,144.0234375,0)" xlink:href="#af"/><use transform="matrix(0.009765625,0,0,0.009765625,156.025390625,0)" xlink:href="#U"/><use transform="matrix(0.009765625,0,0,0.009765625,168.02734375,0)" xlink:href="#S"/><use transform="matrix(0.009765625,0,0,0.009765625,180.029296875,0)" xlink:href="#V"/><use transform="matrix(0.009765625,0,0,0.009765625,192.03125,0)" xlink:href="#W"/><use transform="matrix(0.009765625,0,0,0.009765625,204.033203125,0)" xlink:href="#R"/><use transform="matrix(0.009765625,0,0,0.009765625,216.03515625,0)" xlink:href="#X"/><use transform="matrix(0.009765625,0,0,0.009765625,228.037109375,0)" xlink:href="#T"/></g><use transform="matrix(0.01193576388888889,0,0,0.01193576388888889,0,0)" xlink:href="#n" id="h"/><path fill="#19967d" d="M1060-1016c0 191-128 285-295 323v4c154 18 262 91 313 209 14 35 21 72 21 110 0 277-194 390-478 390-292 0-457-129-493-382l186-17c24 161 121 250 307 250 172 1 298-80 291-247-8-208-220-239-446-233v-156c217 9 409-34 409-232 0-152-102-225-264-225-159 0-264 88-278 233l-181-14c33-239 196-367 461-367 264 0 447 102 447 354" id="ag"/><g id="i"><use transform="matrix(0.01193576388888889,0,0,0.01193576388888889,0,0)" xlink:href="#m"/><use transform="matrix(0.01193576388888889,0,0,0.01193576388888889,14.669053819444446,0)" xlink:href="#ag"/><use transform="matrix(0.01193576388888889,0,0,0.01193576388888889,29.338107638888893,0)" xlink:href="#m"/></g><use transform="matrix(0.01193576388888889,0,0,0.01193576388888889,0,0)" xlink:href="#ag" id="j"/><path fill="#19967d" d="M937-319V0H757v-319H103v-140l635-890h199v888h188v142H937zm-180-835L257-461h500v-693" id="ah"/><g id="k"><use transform="matrix(0.01193576388888889,0,0,0.01193576388888889,0,0)" xlink:href="#m"/><use transform="matrix(0.01193576388888889,0,0,0.01193576388888889,14.669053819444446,0)" xlink:href="#ah"/><use transform="matrix(0.01193576388888889,0,0,0.01193576388888889,29.338107638888893,0)" xlink:href="#m"/></g></defs></g></svg>