<svg xmlns="http://www.w3.org/2000/svg" xmlns:xlink="http://www.w3.org/1999/xlink" xmlns:lucid="lucid" width="1057" height="394"><g transform="translate(-84 -884)" lucid:page-tab-id="n1pXkfntTfIS"><path d="M0 0h1870.4v2582.4H0z" fill="#fff"/><path d="M81.54 880h1063v402.42h-1063z" stroke="#000" stroke-width="2" fill-opacity="0"/><path d="M241.5 920h740v340h-740z" stroke="#000" stroke-width="2" fill-opacity="0"/><path d="M382.97 956.66h35.54v40h-35.53z" stroke="#000" stroke-opacity="0" stroke-width="2" fill="#fff" fill-opacity="0"/><use xlink:href="#a" transform="matrix(1,0,0,1,387.97441624730396,961.6633777968774) translate(5.665473090277777 22.32855902777778)"/><path d="M800.6 1002.47h35.53v40H800.6z" stroke="#000" stroke-opacity="0" stroke-width="2" fill="#fff" fill-opacity="0"/><use xlink:href="#b" transform="matrix(1,0,0,1,805.5935885630449,1007.474407040469) translate(-65.0126953125 20.99609375)"/><path d="M419.86 925.5h380.28v50H419.86z" stroke="#000" stroke-opacity="0" stroke-width="2" fill="#fff" fill-opacity="0"/><use xlink:href="#c" transform="matrix(1,0,0,1,424.85687098877133,930.5066203694186) translate(17.47265625 25.99609375)"/><use xlink:href="#d" transform="matrix(1,0,0,1,424.85687098877133,930.5066203694186) translate(53.478515625 25.99609375)"/><path d="M338.5 976.66h124.47v40H338.5z" stroke="#000" stroke-opacity="0" stroke-width="2" fill="#fff" fill-opacity="0"/><use xlink:href="#e" transform="matrix(1,0,0,1,343.5074111711617,981.6633777968773) translate(36.16319444444444 20.32986111111111)"/><path d="M550.8 880h124.47v40H550.8z" stroke="#000" stroke-opacity="0" stroke-width="2" fill="#fff" fill-opacity="0"/><use xlink:href="#f" transform="matrix(1,0,0,1,555.8044621847489,885) translate(9.4921875 20.99609375)"/><path d="M785.86 946.66h64.46v60h-64.46z" stroke="#0c7cba" stroke-width="2" fill-opacity="0"/><path d="M800.5 956.66h35.54v40H800.5z" stroke="#000" stroke-opacity="0" stroke-width="2" fill="#fff" fill-opacity="0"/><use xlink:href="#a" transform="matrix(1,0,0,1,805.503839266856,961.6633777968774) translate(5.665473090277777 22.32855902777778)"/><path d="M419.5 976.66l347.68-1.1" stroke="#000" stroke-width="2" fill="none"/><path d="M419.54 977.66h-1.03v-2h1.03z"/><path d="M782.45 975.52l-14.25 4.68-.03-9.27z" stroke="#000" stroke-width="2"/><path d="M526.3 1189.5h151.87v40H526.3z" stroke="#000" stroke-opacity="0" stroke-width="2" fill="#fff" fill-opacity="0"/><use xlink:href="#g" transform="matrix(1,0,0,1,531.2975521252127,1194.4933796305813) translate(10.990234375 20.99609375)"/><use xlink:href="#h" transform="matrix(1,0,0,1,531.2975521252127,1194.4933796305813) translate(46.99609375 20.99609375)"/><path d="M700.93 1102.5h39V1230h-339.4v-204.53" stroke="#000" stroke-width="2" fill="none"/><path d="M700.96 1103.5h-1.03v-2h1.03z"/><path d="M400.54 1010.2l4.63 14.27h-9.27z" stroke="#000" stroke-width="2"/><path d="M466.12 1027.5h272.23v50H466.12z" stroke="#000" stroke-opacity="0" stroke-width="2" fill="#fff" fill-opacity="0"/><use xlink:href="#i" transform="matrix(1,0,0,1,471.11675126901935,1032.5) translate(35.484375 25.99609375)"/><use xlink:href="#j" transform="matrix(1,0,0,1,471.11675126901935,1032.5) translate(71.490234375 25.99609375)"/><path d="M570 1072.5h64.47v60H570zM634.47 1072.5h64.46v60h-64.46zM505.53 1072.5H570v60h-64.47z" stroke="#0c7cba" stroke-width="2" fill-opacity="0"/><path d="M581.68 979.14h41.1v63.33h-41.1z" stroke="#000" stroke-opacity="0" stroke-width="2" fill="#fff" fill-opacity="0"/><use xlink:href="#k" transform="matrix(1,0,0,1,586.6751269035313,984.1410737071357) translate(-0.002604166666667851 42.98958333333333)"/><path d="M581.68 1136.25h41.1v63.33h-41.1z" stroke="#000" stroke-opacity="0" stroke-width="2" fill="#fff" fill-opacity="0"/><g><use xlink:href="#k" transform="matrix(1,0,0,1,586.6751269035317,1141.25) translate(-0.002604166666667851 42.98958333333333)"/></g><defs><path fill="#19967d" d="M709-1193V0H519v-1193H76v-156h1076v156H709" id="l"/><use transform="matrix(0.01193576388888889,0,0,0.01193576388888889,0,0)" xlink:href="#l" id="a"/><path fill="#0c7cba" d="M1031-970c-23-138-92-244-250-244-306 0-381 266-440 533-17 75-25 147-25 229 1 197 73 317 266 317 202 0 293-151 377-282l146 65C986-167 844 20 550 20c-297 0-434-170-434-467 0-413 147-747 446-877 112-49 299-63 420-18 132 49 200 159 229 307" id="m"/><path fill="#0c7cba" d="M724-1102c292 0 423 159 388 460-35 307-154 537-400 628-65 24-136 34-212 34-254-2-388-131-388-387 0-255 97-480 226-595 103-92 231-140 386-140zM381-747C294-559 211-98 524-113c294-14 359-254 399-525 28-194-32-337-222-331-174 5-260 94-320 222" id="n"/><path fill="#0c7cba" d="M659-142h380L1011 0H29l28-142h422l233-1200H423l27-142h469" id="o"/><path fill="#0c7cba" d="M726-1102c256 0 385 126 386 379 1 67-11 147-25 220H315c-7 39-13 78-13 121 2 164 74 267 238 267 154 0 260-65 317-166l149 45C916-82 760 20 514 20c-259 0-398-131-398-390 0-357 148-615 421-704 62-20 125-28 189-28zm202 461c22-192-41-335-226-328-212 9-312 142-358 328h584" id="p"/><path fill="#0c7cba" d="M522 20c-267 0-410-127-410-389 0-365 156-619 438-707 169-53 390-23 481 68 54 54 92 128 93 229l-194 14c0-132-80-198-224-196-263 3-339 192-386 415-13 63-19 121-19 174-1 166 74 255 240 253 161-2 266-84 309-215l188 12C961-121 793 20 522 20" id="q"/><path fill="#0c7cba" d="M574 16c-199 5-309-85-269-285l131-671H268l27-142h170l113-282h120l-55 282h432l-27 142H616c-43 233-105 457-132 696-16 144 198 111 324 99 46-6 96-14 136-22L918-30C819-5 700 13 574 16" id="r"/><path fill="#0c7cba" d="M668-142h380L1020 0H38l28-142h422l155-798H324l27-142h499zm23-1150l37-192h200l-37 192H691" id="s"/><path fill="#0c7cba" d="M815-1102c202-2 311 102 279 314-40 267-101 525-150 788H763l135-695c7-39 11-71 11-98 2-119-62-175-179-170-208 9-312 151-348 336L260 0H80c67-361 144-713 204-1082h170c-6 58-17 130-28 185h3c86-116 194-203 386-205" id="t"/><path d="M116-571v-205l995-418v154L253-674l858 367v153" id="u"/><path fill="#19967d" d="M836-1193L604 0H414l232-1193H203l30-156h1076l-30 156H836" id="v"/><path d="M116-154v-153l858-367-858-366v-154l995 418v205" id="w"/><g id="b"><use transform="matrix(0.009765625,0,0,0.009765625,0,0)" xlink:href="#m"/><use transform="matrix(0.009765625,0,0,0.009765625,12.001953125,0)" xlink:href="#n"/><use transform="matrix(0.009765625,0,0,0.009765625,24.00390625,0)" xlink:href="#o"/><use transform="matrix(0.009765625,0,0,0.009765625,36.005859375,0)" xlink:href="#o"/><use transform="matrix(0.009765625,0,0,0.009765625,48.0078125,0)" xlink:href="#p"/><use transform="matrix(0.009765625,0,0,0.009765625,60.009765625,0)" xlink:href="#q"/><use transform="matrix(0.009765625,0,0,0.009765625,72.01171875,0)" xlink:href="#r"/><use transform="matrix(0.009765625,0,0,0.009765625,84.013671875,0)" xlink:href="#s"/><use transform="matrix(0.009765625,0,0,0.009765625,96.015625,0)" xlink:href="#n"/><use transform="matrix(0.009765625,0,0,0.009765625,108.017578125,0)" xlink:href="#t"/><use transform="matrix(0.009765625,0,0,0.009765625,120.01953125,0)" xlink:href="#u"/><use transform="matrix(0.009765625,0,0,0.009765625,132.021484375,0)" xlink:href="#v"/><use transform="matrix(0.009765625,0,0,0.009765625,144.0234375,0)" xlink:href="#w"/></g><path d="M138-1120c207-4 339-93 415-229h266v1140h323V0H149v-209h389v-891c-70 121-216 187-400 194v-214" id="x"/><path d="M885-531c0 421-122 704-297 956H307c174-255 301-534 301-955 0-420-127-700-301-954h281c175 251 297 532 297 953" id="y"/><g id="c"><use transform="matrix(0.009765625,0,0,0.009765625,0,0)" xlink:href="#x"/><use transform="matrix(0.009765625,0,0,0.009765625,12.001953125,0)" xlink:href="#y"/></g><path d="M512-1193l-96 494h676l-31 158H385L280 0H89l262-1349h891l-30 156H512" id="z"/><path d="M419 20c-186 0-282-64-284-243 0-40 5-86 15-138l140-721h180c-47 251-101 497-144 752-25 145 40 219 181 211 211-12 308-150 344-336l122-627h181C1087-721 1010-369 950 0H780c6-58 18-129 28-185h-3C720-71 616 20 419 20" id="A"/><path d="M815-1102c202-2 311 102 279 314-40 267-101 525-150 788H763l135-695c7-39 11-71 11-98 2-119-62-175-179-170-208 9-312 151-348 336L260 0H80c67-361 144-713 204-1082h170c-6 58-17 130-28 185h3c86-116 194-203 386-205" id="B"/><path d="M522 20c-267 0-410-127-410-389 0-365 156-619 438-707 169-53 390-23 481 68 54 54 92 128 93 229l-194 14c0-132-80-198-224-196-263 3-339 192-386 415-13 63-19 121-19 174-1 166 74 255 240 253 161-2 266-84 309-215l188 12C961-121 793 20 522 20" id="C"/><path d="M574 16c-199 5-309-85-269-285l131-671H268l27-142h170l113-282h120l-55 282h432l-27 142H616c-43 233-105 457-132 696-16 144 198 111 324 99 46-6 96-14 136-22L918-30C819-5 700 13 574 16" id="D"/><path d="M668-142h380L1020 0H38l28-142h422l155-798H324l27-142h499zm23-1150l37-192h200l-37 192H691" id="E"/><path d="M724-1102c292 0 423 159 388 460-35 307-154 537-400 628-65 24-136 34-212 34-254-2-388-131-388-387 0-255 97-480 226-595 103-92 231-140 386-140zM381-747C294-559 211-98 524-113c294-14 359-254 399-525 28-194-32-337-222-331-174 5-260 94-320 222" id="F"/><path fill="#19967d" d="M83 363l298-662h265L206 363H83" id="G"/><g id="d"><use transform="matrix(0.009765625,0,0,0.009765625,0,0)" xlink:href="#z"/><use transform="matrix(0.009765625,0,0,0.009765625,12.001953125,0)" xlink:href="#A"/><use transform="matrix(0.009765625,0,0,0.009765625,24.00390625,0)" xlink:href="#B"/><use transform="matrix(0.009765625,0,0,0.009765625,36.005859375,0)" xlink:href="#C"/><use transform="matrix(0.009765625,0,0,0.009765625,48.0078125,0)" xlink:href="#D"/><use transform="matrix(0.009765625,0,0,0.009765625,60.009765625,0)" xlink:href="#E"/><use transform="matrix(0.009765625,0,0,0.009765625,72.01171875,0)" xlink:href="#F"/><use transform="matrix(0.009765625,0,0,0.009765625,84.013671875,0)" xlink:href="#B"/><use transform="matrix(0.009765625,0,0,0.009765625,96.015625,0)" xlink:href="#u"/><use transform="matrix(0.009765625,0,0,0.009765625,108.017578125,0)" xlink:href="#v"/><use transform="matrix(0.009765625,0,0,0.009765625,120.01953125,0)" xlink:href="#G"/><use transform="matrix(0.009765625,0,0,0.009765625,132.021484375,0)" xlink:href="#m"/><use transform="matrix(0.009765625,0,0,0.009765625,144.0234375,0)" xlink:href="#n"/><use transform="matrix(0.009765625,0,0,0.009765625,156.025390625,0)" xlink:href="#o"/><use transform="matrix(0.009765625,0,0,0.009765625,168.02734375,0)" xlink:href="#o"/><use transform="matrix(0.009765625,0,0,0.009765625,180.029296875,0)" xlink:href="#p"/><use transform="matrix(0.009765625,0,0,0.009765625,192.03125,0)" xlink:href="#q"/><use transform="matrix(0.009765625,0,0,0.009765625,204.033203125,0)" xlink:href="#r"/><use transform="matrix(0.009765625,0,0,0.009765625,216.03515625,0)" xlink:href="#s"/><use transform="matrix(0.009765625,0,0,0.009765625,228.037109375,0)" xlink:href="#n"/><use transform="matrix(0.009765625,0,0,0.009765625,240.0390625,0)" xlink:href="#t"/><use transform="matrix(0.009765625,0,0,0.009765625,252.041015625,0)" xlink:href="#u"/><use transform="matrix(0.009765625,0,0,0.009765625,264.04296875,0)" xlink:href="#v"/><use transform="matrix(0.009765625,0,0,0.009765625,276.044921875,0)" xlink:href="#w"/><use transform="matrix(0.009765625,0,0,0.009765625,288.046875,0)" xlink:href="#w"/></g><path fill="#19967d" d="M473-1349c438-1 655 221 652 661C1122-268 945-8 532 0H162v-1349h311zm42 1193c308-4 416-205 418-532 2-330-131-509-459-505H353v1037h162" id="H"/><path fill="#19967d" d="M1000-272c3 95 12 159 101 161 21 0 41-3 59-7V-6c-44 10-86 16-139 16-141 2-191-84-197-217h-6C748-76 648 20 446 20c-207 0-318-120-318-322 0-266 194-348 454-354l236-4c12-191-40-305-222-305-140 0-220 47-232 172l-188-17c33-204 181-292 423-292 255 0 401 118 401 364v466zm-683-27c0 109 63 184 175 182 166-3 259-96 306-217 24-65 20-120 20-200-232 7-501-28-501 235" id="I"/><path fill="#19967d" d="M682 16c-209 0-323-80-324-285v-671H190v-142h170l58-282h120v282h432v142H538v652c2 114 60 155 182 155 106 0 209-16 297-34v137C921-4 806 16 682 16" id="J"/><g id="e"><use transform="matrix(0.008680555555555556,0,0,0.008680555555555556,0,0)" xlink:href="#H"/><use transform="matrix(0.008680555555555556,0,0,0.008680555555555556,10.668402777777779,0)" xlink:href="#I"/><use transform="matrix(0.008680555555555556,0,0,0.008680555555555556,21.336805555555557,0)" xlink:href="#J"/><use transform="matrix(0.008680555555555556,0,0,0.008680555555555556,32.005208333333336,0)" xlink:href="#I"/></g><path d="M305-1169c27 366 9 780 14 1169H99v-1349h347c49 189 108 371 150 564 12 56 15 107 23 166 33-270 117-487 176-730h335V0H908c5-390-13-801 16-1169-52 285-130 541-199 809H507c-70-267-148-525-202-809" id="K"/><path d="M616-1102c361 0 521 202 521 560 0 354-171 562-527 562C259 20 92-192 92-542c0-351 169-560 524-560zm-9 930c200-2 236-165 236-370 0-199-27-367-223-367-195 0-233 146-233 367 0 129 18 223 55 282s92 88 165 88" id="L"/><path d="M768-1103c247 0 336 167 336 416V0H824v-619c-3-164-24-273-171-273-164 0-229 142-229 312V0H143c-4-359 9-736-8-1082h268c7 63 12 146 13 215h4c67-145 160-236 348-236" id="M"/><path d="M775-193C708-75 621 20 439 20 226 20 106-93 106-306c0-251 170-341 417-346l223-4c4-143-12-264-148-264-103 0-141 58-150 153l-293-14c37-219 194-321 455-321 263 0 418 130 417 390v392c1 84 5 161 89 160 21 0 42-2 62-6v152c-57 15-108 27-180 26-145 0-202-73-217-205h-6zm-256 17c168 0 234-139 227-325-166 4-347-25-347 173 0 94 33 152 120 152" id="N"/><path d="M802-909c-3-189-2-383-2-575h281v1248c-1 83 4 168 8 236H817c-9-50-14-117-15-176h-4C735-49 651 20 482 20 191 20 97-238 97-539c0-243 66-432 221-519 50-28 108-42 175-42 162 2 253 78 309 191zm-70 658c91-113 93-462 2-584-46-61-145-100-224-53-96 56-119 190-120 349 0 123 17 214 52 275 46 82 130 115 222 74 25-12 46-33 68-61" id="O"/><path d="M116-571v-205l995-418v154L253-674l858 367v153" id="P"/><path d="M116-154v-153l858-367-858-366v-154l995 418v205" id="Q"/><g id="f"><use transform="matrix(0.009765625,0,0,0.009765625,0,0)" xlink:href="#K"/><use transform="matrix(0.009765625,0,0,0.009765625,12.001953125,0)" xlink:href="#L"/><use transform="matrix(0.009765625,0,0,0.009765625,24.00390625,0)" xlink:href="#M"/><use transform="matrix(0.009765625,0,0,0.009765625,36.005859375,0)" xlink:href="#N"/><use transform="matrix(0.009765625,0,0,0.009765625,48.0078125,0)" xlink:href="#O"/><use transform="matrix(0.009765625,0,0,0.009765625,60.009765625,0)" xlink:href="#P"/><use transform="matrix(0.009765625,0,0,0.009765625,72.01171875,0)" xlink:href="#l"/><use transform="matrix(0.009765625,0,0,0.009765625,84.013671875,0)" xlink:href="#Q"/></g><path d="M788-691c191 26 337 112 337 315 0 286-214 399-510 399-306 0-483-128-522-391l286-25c18 124 91 190 235 188 132-2 223-58 223-188 0-176-191-182-378-179v-227c176 5 345-9 345-176 0-115-82-171-200-171s-198 55-206 169l-281-20c34-252 213-373 492-373 224 0 381 74 451 224 20 43 29 89 29 136 0 195-130 279-301 315v4" id="R"/><g id="g"><use transform="matrix(0.009765625,0,0,0.009765625,0,0)" xlink:href="#R"/><use transform="matrix(0.009765625,0,0,0.009765625,12.001953125,0)" xlink:href="#y"/></g><path d="M1250-1318c-146-12-362-44-462 30-59 45-85 113-103 206h491l-27 142H658L475 0H295l183-940H216l27-142h262c39-288 215-425 565-400 70 5 148 8 208 19" id="S"/><path d="M659-142h380L1011 0H29l28-142h422l233-1200H423l27-142h469" id="T"/><path d="M948-272c-17 76-19 161 70 161 21 0 42-3 60-7L1056-6c-45 10-88 14-142 16-138 6-175-86-155-217h-6C661-83 550 15 337 20 138 24 42-104 82-302c49-247 238-349 523-354l236-4c9-47 22-94 22-148 0-118-65-155-184-157-151-3-231 57-266 172l-185-17c67-189 220-292 480-292 245 0 377 119 330 364zm-678-27c-21 109 31 185 140 182 176-5 282-102 348-217 37-66 43-123 59-200-145 7-304-9-409 44-71 36-119 96-138 191" id="U"/><path d="M832 0c78-390 148-786 233-1169-124 253-264 488-400 729H528c-43-241-94-472-121-729C339-774 258-390 184 0H24l262-1349h237c39 239 98 457 113 720 117-256 262-480 395-720h225L994 0H832" id="V"/><path d="M808-1104c255 0 336 185 302 442-38 281-118 532-328 640-56 28-120 42-193 42-158 0-262-57-295-184-10-1-5 5-7 18-33 194-73 381-109 571H-3C92-78 198-570 284-1082h175c-4 58-14 124-24 178h4c78-115 178-200 369-200zM343-350c-1 156 68 242 223 237 244-7 292-220 339-433 43-194 50-428-171-419-257 11-321 210-371 441-15 68-20 127-20 174" id="W"/><g id="h"><use transform="matrix(0.009765625,0,0,0.009765625,0,0)" xlink:href="#S"/><use transform="matrix(0.009765625,0,0,0.009765625,12.001953125,0)" xlink:href="#T"/><use transform="matrix(0.009765625,0,0,0.009765625,24.00390625,0)" xlink:href="#U"/><use transform="matrix(0.009765625,0,0,0.009765625,36.005859375,0)" xlink:href="#D"/><use transform="matrix(0.009765625,0,0,0.009765625,48.0078125,0)" xlink:href="#V"/><use transform="matrix(0.009765625,0,0,0.009765625,60.009765625,0)" xlink:href="#U"/><use transform="matrix(0.009765625,0,0,0.009765625,72.01171875,0)" xlink:href="#W"/></g><path d="M135-968c34-256 187-402 480-402 217 0 371 75 441 220 45 93 40 219-8 308-114 212-348 323-508 488-38 39-66 80-85 123h654V0H123v-195c112-245 321-399 515-560 57-48 107-96 142-157 14-26 22-53 22-80-1-104-73-156-185-154-131 2-181 74-199 194" id="X"/><g id="i"><use transform="matrix(0.009765625,0,0,0.009765625,0,0)" xlink:href="#X"/><use transform="matrix(0.009765625,0,0,0.009765625,12.001953125,0)" xlink:href="#y"/></g><g id="j"><use transform="matrix(0.009765625,0,0,0.009765625,0,0)" xlink:href="#m"/><use transform="matrix(0.009765625,0,0,0.009765625,12.001953125,0)" xlink:href="#n"/><use transform="matrix(0.009765625,0,0,0.009765625,24.00390625,0)" xlink:href="#o"/><use transform="matrix(0.009765625,0,0,0.009765625,36.005859375,0)" xlink:href="#o"/><use transform="matrix(0.009765625,0,0,0.009765625,48.0078125,0)" xlink:href="#p"/><use transform="matrix(0.009765625,0,0,0.009765625,60.009765625,0)" xlink:href="#q"/><use transform="matrix(0.009765625,0,0,0.009765625,72.01171875,0)" xlink:href="#r"/><use transform="matrix(0.009765625,0,0,0.009765625,84.013671875,0)" xlink:href="#s"/><use transform="matrix(0.009765625,0,0,0.009765625,96.015625,0)" xlink:href="#n"/><use transform="matrix(0.009765625,0,0,0.009765625,108.017578125,0)" xlink:href="#t"/><use transform="matrix(0.009765625,0,0,0.009765625,120.01953125,0)" xlink:href="#u"/><use transform="matrix(0.009765625,0,0,0.009765625,132.021484375,0)" xlink:href="#v"/><use transform="matrix(0.009765625,0,0,0.009765625,144.0234375,0)" xlink:href="#w"/></g><path d="M687-608v428H540v-428H116v-146h424v-428h147v428h424v146H687" id="Y"/><use transform="matrix(0.026041666666666668,0,0,0.026041666666666668,0,0)" xlink:href="#Y" id="k"/></defs></g></svg>