<svg xmlns="http://www.w3.org/2000/svg" xmlns:xlink="http://www.w3.org/1999/xlink" xmlns:lucid="lucid" width="700" height="500"><g transform="translate(-200 -60)" lucid:page-tab-id="0_0"><path d="M0 0h1870.4v1323.2H0z" fill="#fff"/><path d="M640.5 510h56.27" stroke="#000" stroke-width="3" fill="none"/><path d="M640.5 511.5h-.5v-3h.5z"/><path d="M679.34 520.18l17.2-10.18-17.2-10.18" stroke="#000" stroke-width="3" fill="none"/><path d="M460 480h180v60H460z" stroke="#000" fill="#fff"/><use xlink:href="#a" transform="matrix(1,0,0,1,465,485) translate(47.19384765625 23.729817708333336)"/><use xlink:href="#b" transform="matrix(1,0,0,1,465,485) translate(40.99283854166666 37.997395833333336)"/><use xlink:href="#c" transform="matrix(1,0,0,1,465,485) translate(72.998046875 37.997395833333336)"/><path d="M700 480h180v60H700z" stroke="#000" fill="#fff"/><use xlink:href="#d" transform="matrix(1,0,0,1,705,485) translate(47.19384765625 30.396484375)"/><path d="M550 479.5v-58.38" fill="none"/><path d="M550 479.5v-4.38m0-5.84v-8.75m0-5.84v-8.77m0-5.84v-8.76m0-5.84v-4.38" stroke="#000" stroke-width="3" fill="none"/><path d="M551.5 480h-3v-.5h3z"/><path d="M550 405.35l4.64 14.27h-9.28z" stroke="#000" stroke-width="3" fill="#fff"/><path d="M460 340h180v60H460z" stroke="#000" fill="#fff"/><use xlink:href="#e" transform="matrix(1,0,0,1,465,345) translate(3.98681640625 30.396484375)"/><path d="M400.5 370h56.27" stroke="#000" stroke-width="3" fill="none"/><path d="M400.5 371.5h-.5v-3h.5z"/><path d="M439.34 380.18l17.2-10.18-17.2-10.18" stroke="#000" stroke-width="3" fill="none"/><path d="M220 340h180v60H220z" stroke="#000" fill="#fff"/><use xlink:href="#f" transform="matrix(1,0,0,1,225,345) translate(52.5947265625 17.063151041666664)"/><use xlink:href="#g" transform="matrix(1,0,0,1,225,345) translate(52.994791666666664 31.330729166666664)"/><use xlink:href="#h" transform="matrix(1,0,0,1,225,345) translate(24.990234375000014 44.6640625)"/><path d="M460 100h180v60H460z" stroke="#000" fill="#fff"/><use xlink:href="#e" transform="matrix(1,0,0,1,465,105) translate(3.98681640625 30.396484375)"/><path d="M400.5 130h56.27" stroke="#000" stroke-width="3" fill="none"/><path d="M400.5 131.5h-.5v-3h.5z"/><path d="M439.34 140.18l17.2-10.18-17.2-10.18" stroke="#000" stroke-width="3" fill="none"/><path d="M220 100h180v60H220z" stroke="#000" fill="#fff"/><use xlink:href="#f" transform="matrix(1,0,0,1,225,105) translate(52.5947265625 17.063151041666664)"/><use xlink:href="#g" transform="matrix(1,0,0,1,225,105) translate(52.994791666666664 31.330729166666664)"/><use xlink:href="#h" transform="matrix(1,0,0,1,225,105) translate(24.990234375000014 44.6640625)"/><path d="M460 223.76h180v60H460z" stroke="#000" fill="#fff"/><use xlink:href="#d" transform="matrix(1,0,0,1,465,228.75690920380043) translate(47.19384765625 30.396484375)"/><path d="M400.5 253.76h56.27" stroke="#000" stroke-width="3" fill="none"/><path d="M400.5 255.26h-.5v-3h.5z"/><path d="M439.34 263.94l17.2-10.18-17.2-10.18" stroke="#000" stroke-width="3" fill="none"/><path d="M220 223.76h180v60H220z" stroke="#000" fill="#fff"/><g><use xlink:href="#f" transform="matrix(1,0,0,1,225,228.75690920380043) translate(52.5947265625 17.063151041666664)"/><use xlink:href="#g" transform="matrix(1,0,0,1,225,228.75690920380043) translate(52.994791666666664 31.330729166666664)"/><use xlink:href="#h" transform="matrix(1,0,0,1,225,228.75690920380043) translate(24.990234375000014 44.6640625)"/></g><g><path d="M385.96 207.8l40.28 40.28 40.3-40.28 5.66 5.67-40.28 40.3 40.28 40.27-5.67 5.68-40.3-40.3-40.27 40.3-5.68-5.68 40.3-40.28-40.3-40.3z" stroke="#000" stroke-width="2" fill="#fff"/></g><path d="M476.24 130c0 27.6-22.38 50-50 50-27.6 0-50-22.4-50-50s22.4-50 50-50c27.62 0 50 22.4 50 50z" stroke="#000" stroke-width="2" fill-opacity="0"/><defs><path d="M1034 0L896-382H333L196 0H0l510-1349h217L1228 0h-194zM847-531c-77-225-157-447-231-674-69 231-154 451-232 674h463" id="i"/><path d="M865-914c-3-187-2-380-2-570h180v1261c0 76 1 155 6 223H877c-8-49-9-116-10-174h-5C801-44 708 26 530 26c-135 0-234-46-297-139s-95-232-95-419c0-377 131-566 392-566 176 0 271 63 335 184zm-286-51c-222 0-255 197-255 427 0 229 31 425 253 425 237 0 286-195 286-441 0-238-52-411-284-411" id="j"/><path d="M1000-272c3 95 12 159 101 161 21 0 41-3 59-7V-6c-44 10-86 16-139 16-141 2-191-84-197-217h-6C748-76 648 20 446 20c-207 0-318-120-318-322 0-266 194-348 454-354l236-4c12-191-40-305-222-305-140 0-220 47-232 172l-188-17c33-204 181-292 423-292 255 0 401 118 401 364v466zm-683-27c0 109 63 184 175 182 166-3 259-96 306-217 24-65 20-120 20-200-232 7-501-28-501 235" id="k"/><path d="M698-1104c312 3 392 244 392 558 0 315-82 566-392 566-169 0-277-65-331-184h-5c8 188 2 394 4 589H185V-858c0-76-1-156-6-224h175c6 52 9 120 10 178h4c58-122 150-202 330-200zm-49 991c225 0 255-203 255-433 0-225-32-419-253-419-236 0-285 192-285 441 0 237 53 411 283 411" id="l"/><path d="M682 16c-209 0-323-80-324-285v-671H190v-142h170l58-282h120v282h432v142H538v652c2 114 60 155 182 155 106 0 209-16 297-34v137C921-4 806 16 682 16" id="m"/><path d="M617-1102c355 0 481 238 477 599H322c5 222 84 388 301 388 144 0 244-59 284-166l158 45C1002-72 854 20 623 20c-342 0-490-220-490-568 0-346 151-554 484-554zm291 461c-18-192-90-328-289-328-194 0-287 128-295 328h584" id="n"/><path d="M839-1102c70 0 148 7 206 17v167c-112-18-268-36-363 15-129 69-208 203-208 395V0H294c-10-367 32-789-52-1082h171c21 75 41 161 48 250h5c67-152 152-270 373-270" id="o"/><g id="a"><use transform="matrix(0.0087890625,0,0,0.0087890625,0,0)" xlink:href="#i"/><use transform="matrix(0.0087890625,0,0,0.0087890625,10.8017578125,0)" xlink:href="#j"/><use transform="matrix(0.0087890625,0,0,0.0087890625,21.603515625,0)" xlink:href="#k"/><use transform="matrix(0.0087890625,0,0,0.0087890625,32.4052734375,0)" xlink:href="#l"/><use transform="matrix(0.0087890625,0,0,0.0087890625,43.20703125,0)" xlink:href="#m"/><use transform="matrix(0.0087890625,0,0,0.0087890625,54.0087890625,0)" xlink:href="#n"/><use transform="matrix(0.0087890625,0,0,0.0087890625,64.810546875,0)" xlink:href="#o"/></g><path fill="#c92d39" d="M648-963c-190 6-283 138-283 336V0H185v-1484h181c-2 197 6 404-9 587h3c62-120 159-205 339-205 242 0 351 135 350 381V0H868v-695c1-168-57-273-220-268" id="p"/><path fill="#c92d39" d="M1000-272c3 95 12 159 101 161 21 0 41-3 59-7V-6c-44 10-86 16-139 16-141 2-191-84-197-217h-6C748-76 648 20 446 20c-207 0-318-120-318-322 0-266 194-348 454-354l236-4c12-191-40-305-222-305-140 0-220 47-232 172l-188-17c33-204 181-292 423-292 255 0 401 118 401 364v466zm-683-27c0 109 63 184 175 182 166-3 259-96 306-217 24-65 20-120 20-200-232 7-501-28-501 235" id="q"/><path fill="#c92d39" d="M873-819c-18-114-119-146-250-146-163 0-245 50-245 151 0 151 170 148 294 185 182 54 388 94 388 320 0 240-189 325-439 329-245 4-410-69-454-268l159-31c24 133 136 168 295 165 144-2 270-31 270-171 0-164-195-160-331-202-167-52-350-87-350-299 0-218 173-315 413-313 220 2 373 77 412 260" id="r"/><g id="b"><use transform="matrix(0.006510416666666667,0,0,0.006510416666666667,0,0)" xlink:href="#p"/><use transform="matrix(0.006510416666666667,0,0,0.006510416666666667,8.001302083333334,0)" xlink:href="#q"/><use transform="matrix(0.006510416666666667,0,0,0.006510416666666667,16.002604166666668,0)" xlink:href="#r"/></g><g id="c"><use transform="matrix(0.006510416666666667,0,0,0.006510416666666667,0,0)" xlink:href="#i"/><use transform="matrix(0.006510416666666667,0,0,0.006510416666666667,8.001302083333334,0)" xlink:href="#j"/><use transform="matrix(0.006510416666666667,0,0,0.006510416666666667,16.002604166666668,0)" xlink:href="#k"/><use transform="matrix(0.006510416666666667,0,0,0.006510416666666667,24.00390625,0)" xlink:href="#l"/><use transform="matrix(0.006510416666666667,0,0,0.006510416666666667,32.005208333333336,0)" xlink:href="#m"/><use transform="matrix(0.006510416666666667,0,0,0.006510416666666667,40.00651041666667,0)" xlink:href="#n"/><use transform="matrix(0.006510416666666667,0,0,0.006510416666666667,48.00781250000001,0)" xlink:href="#n"/></g><g id="d"><use transform="matrix(0.0087890625,0,0,0.0087890625,0,0)" xlink:href="#i"/><use transform="matrix(0.0087890625,0,0,0.0087890625,10.8017578125,0)" xlink:href="#j"/><use transform="matrix(0.0087890625,0,0,0.0087890625,21.603515625,0)" xlink:href="#k"/><use transform="matrix(0.0087890625,0,0,0.0087890625,32.4052734375,0)" xlink:href="#l"/><use transform="matrix(0.0087890625,0,0,0.0087890625,43.20703125,0)" xlink:href="#m"/><use transform="matrix(0.0087890625,0,0,0.0087890625,54.0087890625,0)" xlink:href="#n"/><use transform="matrix(0.0087890625,0,0,0.0087890625,64.810546875,0)" xlink:href="#n"/></g><path d="M709-1193V0H519v-1193H76v-156h1076v156H709" id="s"/><path d="M1048-32c-2 300-135 456-433 456-222-1-358-88-400-267l184-25c22 99 100 157 222 156 184-2 248-125 248-315 0-64 3-133-2-194C807-100 706-13 524-12c-306 0-381-228-381-537 0-318 85-550 400-550 164 0 271 83 325 202h3c1-60 3-134 12-185h171c-13 339-4 702-6 1050zM585-145c210-8 284-178 284-406 0-192-52-331-177-392-33-16-69-22-104-22-223 2-259 184-259 414 0 229 31 415 256 406" id="t"/><path d="M202-1349h823v156H709v1037h316V0H202v-156h316v-1037H202v-156" id="u"/><path d="M706-1102c241 0 344 136 343 381V0H868v-695c1-168-57-273-220-268-190 6-283 138-283 336V0H185c-3-360 6-732-6-1082h170c4 54 7 126 8 185h3c63-121 164-204 346-205" id="v"/><path d="M839-1335c-182-6-269 67-259 253h491v142H580V0H400v-940H138v-142h262c-15-293 132-408 418-402 94 2 200 7 281 21v145c-75-10-177-14-260-17" id="w"/><path d="M631 20c-350 0-501-215-501-562 0-355 162-560 502-560 250 0 399 118 446 323l-192 14c-23-124-109-196-262-196-242 0-305 171-305 415 1 245 61 427 304 427 151 0 248-77 267-215l190 12C1039-107 883 20 631 20" id="x"/><g id="e"><use transform="matrix(0.0087890625,0,0,0.0087890625,0,0)" xlink:href="#s"/><use transform="matrix(0.0087890625,0,0,0.0087890625,10.8017578125,0)" xlink:href="#k"/><use transform="matrix(0.0087890625,0,0,0.0087890625,21.603515625,0)" xlink:href="#o"/><use transform="matrix(0.0087890625,0,0,0.0087890625,32.4052734375,0)" xlink:href="#t"/><use transform="matrix(0.0087890625,0,0,0.0087890625,43.20703125,0)" xlink:href="#n"/><use transform="matrix(0.0087890625,0,0,0.0087890625,54.0087890625,0)" xlink:href="#m"/><use transform="matrix(0.0087890625,0,0,0.0087890625,64.810546875,0)" xlink:href="#u"/><use transform="matrix(0.0087890625,0,0,0.0087890625,75.6123046875,0)" xlink:href="#v"/><use transform="matrix(0.0087890625,0,0,0.0087890625,86.4140625,0)" xlink:href="#m"/><use transform="matrix(0.0087890625,0,0,0.0087890625,97.2158203125,0)" xlink:href="#n"/><use transform="matrix(0.0087890625,0,0,0.0087890625,108.017578125,0)" xlink:href="#o"/><use transform="matrix(0.0087890625,0,0,0.0087890625,118.8193359375,0)" xlink:href="#w"/><use transform="matrix(0.0087890625,0,0,0.0087890625,129.62109375,0)" xlink:href="#k"/><use transform="matrix(0.0087890625,0,0,0.0087890625,140.4228515625,0)" xlink:href="#x"/><use transform="matrix(0.0087890625,0,0,0.0087890625,151.224609375,0)" xlink:href="#n"/></g><path d="M650-1214c-281 0-336 244-336 533 0 295 60 546 347 546 188 0 263-142 322-282l159 65C1058-155 935 20 659 20c-401 0-546-295-546-701 0-407 135-689 536-689 264 0 391 146 466 335l-168 65c-47-129-127-244-297-244" id="y"/><path d="M736-142h380V0H134v-142h422v-1200H267v-142h469v1342" id="z"/><path d="M745-142h380V0H143v-142h422v-798H246v-142h499v940zM545-1292v-192h200v192H545" id="A"/><g id="f"><use transform="matrix(0.0087890625,0,0,0.0087890625,0,0)" xlink:href="#y"/><use transform="matrix(0.0087890625,0,0,0.0087890625,10.8017578125,0)" xlink:href="#z"/><use transform="matrix(0.0087890625,0,0,0.0087890625,21.603515625,0)" xlink:href="#A"/><use transform="matrix(0.0087890625,0,0,0.0087890625,32.4052734375,0)" xlink:href="#n"/><use transform="matrix(0.0087890625,0,0,0.0087890625,43.20703125,0)" xlink:href="#v"/><use transform="matrix(0.0087890625,0,0,0.0087890625,54.0087890625,0)" xlink:href="#m"/></g><path fill="#c92d39" d="M891-1484c-201 251-362 514-362 954 0 441 161 704 362 955H701C500 176 342-90 342-532c0-440 159-704 359-952h190" id="B"/><path fill="#c92d39" d="M528 20c-247 0-343-132-343-381v-721h180v686c-4 177 45 284 224 277 194-8 279-136 279-336v-627h181c3 360-6 732 6 1082H885c-4-54-7-126-8-185h-3C809-64 714 20 528 20" id="C"/><path fill="#c92d39" d="M617-1102c355 0 481 238 477 599H322c5 222 84 388 301 388 144 0 244-59 284-166l158 45C1002-72 854 20 623 20c-342 0-490-220-490-568 0-346 151-554 484-554zm291 461c-18-192-90-328-289-328-194 0-287 128-295 328h584" id="D"/><path fill="#c92d39" d="M528-1484c201 248 357 511 357 952 0 442-156 709-357 957H336C537 174 700-89 700-530c0-440-163-703-364-954h192" id="E"/><g id="g"><use transform="matrix(0.006510416666666667,0,0,0.006510416666666667,0,0)" xlink:href="#p"/><use transform="matrix(0.006510416666666667,0,0,0.006510416666666667,8.001302083333334,0)" xlink:href="#q"/><use transform="matrix(0.006510416666666667,0,0,0.006510416666666667,16.002604166666668,0)" xlink:href="#r"/><use transform="matrix(0.006510416666666667,0,0,0.006510416666666667,24.00390625,0)" xlink:href="#B"/><use transform="matrix(0.006510416666666667,0,0,0.006510416666666667,32.005208333333336,0)" xlink:href="#C"/><use transform="matrix(0.006510416666666667,0,0,0.006510416666666667,40.00651041666667,0)" xlink:href="#r"/><use transform="matrix(0.006510416666666667,0,0,0.006510416666666667,48.00781250000001,0)" xlink:href="#D"/><use transform="matrix(0.006510416666666667,0,0,0.006510416666666667,56.00911458333335,0)" xlink:href="#E"/></g><g id="h"><use transform="matrix(0.006510416666666667,0,0,0.006510416666666667,0,0)" xlink:href="#s"/><use transform="matrix(0.006510416666666667,0,0,0.006510416666666667,8.001302083333334,0)" xlink:href="#k"/><use transform="matrix(0.006510416666666667,0,0,0.006510416666666667,16.002604166666668,0)" xlink:href="#o"/><use transform="matrix(0.006510416666666667,0,0,0.006510416666666667,24.00390625,0)" xlink:href="#t"/><use transform="matrix(0.006510416666666667,0,0,0.006510416666666667,32.005208333333336,0)" xlink:href="#n"/><use transform="matrix(0.006510416666666667,0,0,0.006510416666666667,40.00651041666667,0)" xlink:href="#m"/><use transform="matrix(0.006510416666666667,0,0,0.006510416666666667,48.00781250000001,0)" xlink:href="#u"/><use transform="matrix(0.006510416666666667,0,0,0.006510416666666667,56.00911458333335,0)" xlink:href="#v"/><use transform="matrix(0.006510416666666667,0,0,0.006510416666666667,64.01041666666667,0)" xlink:href="#m"/><use transform="matrix(0.006510416666666667,0,0,0.006510416666666667,72.01171875,0)" xlink:href="#n"/><use transform="matrix(0.006510416666666667,0,0,0.006510416666666667,80.01302083333333,0)" xlink:href="#o"/><use transform="matrix(0.006510416666666667,0,0,0.006510416666666667,88.01432291666666,0)" xlink:href="#w"/><use transform="matrix(0.006510416666666667,0,0,0.006510416666666667,96.01562499999999,0)" xlink:href="#k"/><use transform="matrix(0.006510416666666667,0,0,0.006510416666666667,104.01692708333331,0)" xlink:href="#x"/><use transform="matrix(0.006510416666666667,0,0,0.006510416666666667,112.01822916666664,0)" xlink:href="#n"/></g></defs></g></svg>