<svg xmlns="http://www.w3.org/2000/svg" xmlns:xlink="http://www.w3.org/1999/xlink" xmlns:lucid="lucid" width="1019" height="432"><g transform="translate(-201 -372)" lucid:page-tab-id="0_0"><path d="M0 0h1870.4v1323.2H0z" fill="#fff"/><path d="M477.77 520h480v250h-480z" stroke="#000" stroke-width="2" fill-opacity="0"/><path d="M825.53 550H890v60h-64.47zM545.53 550H610v60h-64.47z" stroke="#0c7cba" stroke-width="2" fill-opacity="0"/><path d="M560 410h35.53v40H560z" stroke="#000" stroke-opacity="0" stroke-width="2" fill="#fff" fill-opacity="0"/><use xlink:href="#a" transform="matrix(1,0,0,1,565,415) translate(5.665473090277777 22.32855902777778)"/><path d="M840 410h35.53v40H840z" stroke="#000" stroke-opacity="0" stroke-width="2" fill="#fff" fill-opacity="0"/><use xlink:href="#b" transform="matrix(1,0,0,1,845,415) translate(5.665473090277777 22.32855902777778)"/><path d="M596.53 430H821.5" stroke="#000" stroke-width="2" fill="none"/><path d="M596.56 431h-1.03v-2h1.03z"/><path d="M836.76 430l-14.26 4.64v-9.28z" stroke="#000" stroke-width="2"/><path d="M655.53 390H780v40H655.53z" stroke="#000" stroke-opacity="0" stroke-width="2" fill="#fff" fill-opacity="0"/><use xlink:href="#c" transform="matrix(1,0,0,1,660.5329949238578,395) translate(-20.5126953125 20.99609375)"/><path d="M515.53 430H640v40H515.53z" stroke="#000" stroke-opacity="0" stroke-width="2" fill="#fff" fill-opacity="0"/><use xlink:href="#d" transform="matrix(1,0,0,1,520.5329949238578,435) translate(36.16319444444444 20.32986111111111)"/><path d="M795.53 430H920v40H795.53z" stroke="#000" stroke-opacity="0" stroke-width="2" fill="#fff" fill-opacity="0"/><use xlink:href="#d" transform="matrix(1,0,0,1,800.5329949238578,435) translate(36.16319444444444 20.32986111111111)"/><path d="M477.77 720h200v50h-200z" stroke="#000" stroke-opacity="0" stroke-width="2" fill="#fff" fill-opacity="0"/><use xlink:href="#e" transform="matrix(1,0,0,1,482.7664974619289,725) translate(5.4853515625 25.99609375)"/><use xlink:href="#f" transform="matrix(1,0,0,1,482.7664974619289,725) translate(65.4951171875 25.99609375)"/><path d="M757.77 720h200v50h-200z" stroke="#000" stroke-opacity="0" stroke-width="2" fill="#fff" fill-opacity="0"/><use xlink:href="#e" transform="matrix(1,0,0,1,762.7664974619289,725) translate(5.4853515625 25.99609375)"/><use xlink:href="#f" transform="matrix(1,0,0,1,762.7664974619289,725) translate(65.4951171875 25.99609375)"/><path d="M560 560h35.53v40H560z" stroke="#000" stroke-opacity="0" stroke-width="2" fill="#fff" fill-opacity="0"/><use xlink:href="#a" transform="matrix(1,0,0,1,565,565) translate(5.665473090277777 22.32855902777778)"/><path d="M840 560h35.53v40H840z" stroke="#000" stroke-opacity="0" stroke-width="2" fill="#fff" fill-opacity="0"/><use xlink:href="#b" transform="matrix(1,0,0,1,845,565) translate(5.665473090277777 22.32855902777778)"/><path d="M596.53 580H821.5" stroke="#000" stroke-width="2" fill="none"/><path d="M596.56 581h-1.03v-2h1.03z"/><path d="M836.76 580l-14.26 4.64v-9.28z" stroke="#000" stroke-width="2"/><path d="M651.65 540H776.1v40H651.66z" stroke="#000" stroke-opacity="0" stroke-width="2" fill="#fff" fill-opacity="0"/><use xlink:href="#g" transform="matrix(1,0,0,1,656.6468551195903,545) translate(9.4921875 20.99609375)"/><path d="M515.53 580H640v40H515.53z" stroke="#000" stroke-opacity="0" stroke-width="2" fill="#fff" fill-opacity="0"/><use xlink:href="#d" transform="matrix(1,0,0,1,520.5329949238578,585) translate(36.16319444444444 20.32986111111111)"/><path d="M795.53 580H920v40H795.53z" stroke="#000" stroke-opacity="0" stroke-width="2" fill="#fff" fill-opacity="0"/><use xlink:href="#d" transform="matrix(1,0,0,1,800.5329949238578,585) translate(36.16319444444444 20.32986111111111)"/><path d="M545.53 610H610v60h-64.47zM825.53 610H890v60h-64.47zM825.53 670H890v60h-64.47zM545.53 670H610v60h-64.47z" stroke="#0c7cba" stroke-width="2" fill-opacity="0"/><path d="M560 620h35.53v40H560z" stroke="#000" stroke-opacity="0" stroke-width="2" fill="#fff" fill-opacity="0"/><use xlink:href="#b" transform="matrix(1,0,0,1,565,625) translate(5.665473090277777 22.32855902777778)"/><path d="M840 620h35.53v40H840z" stroke="#000" stroke-opacity="0" stroke-width="2" fill="#fff" fill-opacity="0"/><use xlink:href="#h" transform="matrix(1,0,0,1,845,625) translate(5.665473090277777 22.32855902777778)"/><path d="M560 680h35.53v40H560z" stroke="#000" stroke-opacity="0" stroke-width="2" fill="#fff" fill-opacity="0"/><use xlink:href="#h" transform="matrix(1,0,0,1,565,685) translate(5.665473090277777 22.32855902777778)"/><path d="M840 680h35.53v40H840z" stroke="#000" stroke-opacity="0" stroke-width="2" fill="#fff" fill-opacity="0"/><use xlink:href="#i" transform="matrix(1,0,0,1,845,685) translate(5.665473090277777 22.32855902777778)"/><path d="M655.53 480H780v40H655.53z" stroke="#000" stroke-opacity="0" stroke-width="2" fill="#fff" fill-opacity="0"/><g><use xlink:href="#j" transform="matrix(1,0,0,1,660.5329949238578,485) translate(-14.51171875 20.99609375)"/></g><defs><path fill="#19967d" d="M148-1120c216-7 379-89 463-229h166v1204h353V0H157v-145h439v-1021c-79 124-254 184-448 194v-148" id="k"/><use transform="matrix(0.01193576388888889,0,0,0.01193576388888889,0,0)" xlink:href="#k" id="a"/><path fill="#19967d" d="M611-1370c266 0 451 106 451 368 0 147-77 243-154 327-132 144-316 255-451 395-42 44-75 87-96 134h723V0H144v-117c124-264 387-411 582-603 73-72 151-147 151-271 0-161-104-231-266-231-163 0-249 90-268 238l-184-17c35-233 185-369 452-369" id="l"/><use transform="matrix(0.01193576388888889,0,0,0.01193576388888889,0,0)" xlink:href="#l" id="b"/><path d="M462-1121v384h621v228H462V0H167v-1349h939v228H462" id="m"/><path d="M471 20c-247 0-336-169-336-415v-687h281v607c4 148 31 285 172 285 152 0 207-150 207-312v-580h281c4 359-9 736 8 1082H816c-7-63-11-146-12-215h-5C736-76 644 20 471 20" id="n"/><path d="M768-1103c247 0 336 167 336 416V0H824v-619c-3-164-24-273-171-273-164 0-229 142-229 312V0H143c-4-359 9-736-8-1082h268c7 63 12 146 13 215h4c67-145 160-236 348-236" id="o"/><path d="M1109-360C1066-122 902 20 624 20c-347 0-514-209-514-555 0-353 168-567 518-567 270 0 425 136 473 361l-283 14c-16-106-75-183-196-182-75 0-130 31-165 93s-52 152-52 270c0 249 74 374 221 374 120 0 188-82 201-201" id="p"/><path d="M711 13c-250 0-386-99-385-349l2-556H161v-190h181l88-282h176v282h385v190H606v530c-10 130 45 186 174 184 91-2 176-11 255-27v186C933-1 833 13 711 13" id="q"/><path d="M794-190h353V0H118v-190h395v-702H223v-190h571v892zM513-1277v-207h281v207H513" id="r"/><path d="M616-1102c361 0 521 202 521 560 0 354-171 562-527 562C259 20 92-192 92-542c0-351 169-560 524-560zm-9 930c200-2 236-165 236-370 0-199-27-367-223-367-195 0-233 146-233 367 0 129 18 223 55 282s92 88 165 88" id="s"/><path d="M116-571v-205l995-418v154L253-674l858 367v153" id="t"/><path fill="#19967d" d="M202-1349h823v156H709v1037h316V0H202v-156h316v-1037H202v-156" id="u"/><path fill="#19967d" d="M706-1102c241 0 344 136 343 381V0H868v-695c1-168-57-273-220-268-190 6-283 138-283 336V0H185c-3-360 6-732-6-1082h170c4 54 7 126 8 185h3c63-121 164-204 346-205" id="v"/><path fill="#19967d" d="M682 16c-209 0-323-80-324-285v-671H190v-142h170l58-282h120v282h432v142H538v652c2 114 60 155 182 155 106 0 209-16 297-34v137C921-4 806 16 682 16" id="w"/><path d="M116-154v-153l858-367-858-366v-154l995 418v205" id="x"/><g id="c"><use transform="matrix(0.009765625,0,0,0.009765625,0,0)" xlink:href="#m"/><use transform="matrix(0.009765625,0,0,0.009765625,12.001953125,0)" xlink:href="#n"/><use transform="matrix(0.009765625,0,0,0.009765625,24.00390625,0)" xlink:href="#o"/><use transform="matrix(0.009765625,0,0,0.009765625,36.005859375,0)" xlink:href="#p"/><use transform="matrix(0.009765625,0,0,0.009765625,48.0078125,0)" xlink:href="#q"/><use transform="matrix(0.009765625,0,0,0.009765625,60.009765625,0)" xlink:href="#r"/><use transform="matrix(0.009765625,0,0,0.009765625,72.01171875,0)" xlink:href="#s"/><use transform="matrix(0.009765625,0,0,0.009765625,84.013671875,0)" xlink:href="#o"/><use transform="matrix(0.009765625,0,0,0.009765625,96.015625,0)" xlink:href="#t"/><use transform="matrix(0.009765625,0,0,0.009765625,108.017578125,0)" xlink:href="#u"/><use transform="matrix(0.009765625,0,0,0.009765625,120.01953125,0)" xlink:href="#v"/><use transform="matrix(0.009765625,0,0,0.009765625,132.021484375,0)" xlink:href="#w"/><use transform="matrix(0.009765625,0,0,0.009765625,144.0234375,0)" xlink:href="#x"/></g><path fill="#19967d" d="M473-1349c438-1 655 221 652 661C1122-268 945-8 532 0H162v-1349h311zm42 1193c308-4 416-205 418-532 2-330-131-509-459-505H353v1037h162" id="y"/><path fill="#19967d" d="M1000-272c3 95 12 159 101 161 21 0 41-3 59-7V-6c-44 10-86 16-139 16-141 2-191-84-197-217h-6C748-76 648 20 446 20c-207 0-318-120-318-322 0-266 194-348 454-354l236-4c12-191-40-305-222-305-140 0-220 47-232 172l-188-17c33-204 181-292 423-292 255 0 401 118 401 364v466zm-683-27c0 109 63 184 175 182 166-3 259-96 306-217 24-65 20-120 20-200-232 7-501-28-501 235" id="z"/><g id="d"><use transform="matrix(0.008680555555555556,0,0,0.008680555555555556,0,0)" xlink:href="#y"/><use transform="matrix(0.008680555555555556,0,0,0.008680555555555556,10.668402777777779,0)" xlink:href="#z"/><use transform="matrix(0.008680555555555556,0,0,0.008680555555555556,21.336805555555557,0)" xlink:href="#w"/><use transform="matrix(0.008680555555555556,0,0,0.008680555555555556,32.005208333333336,0)" xlink:href="#z"/></g><path fill="#19967d" d="M630-1349c335 0 545 126 545 459 0 418-179 721-489 846C517 24 281-7 57 0l262-1349h311zm346 567c33-285-98-417-375-411H480L278-156h162c141 0 254-45 341-133 100-101 170-285 195-493" id="A"/><path fill="#19967d" d="M948-272c-17 76-19 161 70 161 21 0 42-3 60-7L1056-6c-45 10-88 14-142 16-138 6-175-86-155-217h-6C661-83 550 15 337 20 138 24 42-104 82-302c49-247 238-349 523-354l236-4c9-47 22-94 22-148 0-118-65-155-184-157-151-3-231 57-266 172l-185-17c67-189 220-292 480-292 245 0 377 119 330 364zm-678-27c-21 109 31 185 140 182 176-5 282-102 348-217 37-66 43-123 59-200-145 7-304-9-409 44-71 36-119 96-138 191" id="B"/><path fill="#19967d" d="M574 16c-199 5-309-85-269-285l131-671H268l27-142h170l113-282h120l-55 282h432l-27 142H616c-43 233-105 457-132 696-16 144 198 111 324 99 46-6 96-14 136-22L918-30C819-5 700 13 574 16" id="C"/><g id="e"><use transform="matrix(0.009765625,0,0,0.009765625,0,0)" xlink:href="#A"/><use transform="matrix(0.009765625,0,0,0.009765625,12.001953125,0)" xlink:href="#B"/><use transform="matrix(0.009765625,0,0,0.009765625,24.00390625,0)" xlink:href="#C"/><use transform="matrix(0.009765625,0,0,0.009765625,36.005859375,0)" xlink:href="#B"/></g><path fill="#0c7cba" d="M1031-970c-23-138-92-244-250-244-306 0-381 266-440 533-17 75-25 147-25 229 1 197 73 317 266 317 202 0 293-151 377-282l146 65C986-167 844 20 550 20c-297 0-434-170-434-467 0-413 147-747 446-877 112-49 299-63 420-18 132 49 200 159 229 307" id="D"/><path fill="#0c7cba" d="M724-1102c292 0 423 159 388 460-35 307-154 537-400 628-65 24-136 34-212 34-254-2-388-131-388-387 0-255 97-480 226-595 103-92 231-140 386-140zM381-747C294-559 211-98 524-113c294-14 359-254 399-525 28-194-32-337-222-331-174 5-260 94-320 222" id="E"/><path fill="#0c7cba" d="M659-142h380L1011 0H29l28-142h422l233-1200H423l27-142h469" id="F"/><path fill="#0c7cba" d="M726-1102c256 0 385 126 386 379 1 67-11 147-25 220H315c-7 39-13 78-13 121 2 164 74 267 238 267 154 0 260-65 317-166l149 45C916-82 760 20 514 20c-259 0-398-131-398-390 0-357 148-615 421-704 62-20 125-28 189-28zm202 461c22-192-41-335-226-328-212 9-312 142-358 328h584" id="G"/><path fill="#0c7cba" d="M522 20c-267 0-410-127-410-389 0-365 156-619 438-707 169-53 390-23 481 68 54 54 92 128 93 229l-194 14c0-132-80-198-224-196-263 3-339 192-386 415-13 63-19 121-19 174-1 166 74 255 240 253 161-2 266-84 309-215l188 12C961-121 793 20 522 20" id="H"/><path fill="#0c7cba" d="M574 16c-199 5-309-85-269-285l131-671H268l27-142h170l113-282h120l-55 282h432l-27 142H616c-43 233-105 457-132 696-16 144 198 111 324 99 46-6 96-14 136-22L918-30C819-5 700 13 574 16" id="I"/><path fill="#0c7cba" d="M668-142h380L1020 0H38l28-142h422l155-798H324l27-142h499zm23-1150l37-192h200l-37 192H691" id="J"/><path fill="#0c7cba" d="M815-1102c202-2 311 102 279 314-40 267-101 525-150 788H763l135-695c7-39 11-71 11-98 2-119-62-175-179-170-208 9-312 151-348 336L260 0H80c67-361 144-713 204-1082h170c-6 58-17 130-28 185h3c86-116 194-203 386-205" id="K"/><g id="f"><use transform="matrix(0.009765625,0,0,0.009765625,0,0)" xlink:href="#D"/><use transform="matrix(0.009765625,0,0,0.009765625,12.001953125,0)" xlink:href="#E"/><use transform="matrix(0.009765625,0,0,0.009765625,24.00390625,0)" xlink:href="#F"/><use transform="matrix(0.009765625,0,0,0.009765625,36.005859375,0)" xlink:href="#F"/><use transform="matrix(0.009765625,0,0,0.009765625,48.0078125,0)" xlink:href="#G"/><use transform="matrix(0.009765625,0,0,0.009765625,60.009765625,0)" xlink:href="#H"/><use transform="matrix(0.009765625,0,0,0.009765625,72.01171875,0)" xlink:href="#I"/><use transform="matrix(0.009765625,0,0,0.009765625,84.013671875,0)" xlink:href="#J"/><use transform="matrix(0.009765625,0,0,0.009765625,96.015625,0)" xlink:href="#E"/><use transform="matrix(0.009765625,0,0,0.009765625,108.017578125,0)" xlink:href="#K"/></g><path d="M512-1193l-96 494h676l-31 158H385L280 0H89l262-1349h891l-30 156H512" id="L"/><path d="M419 20c-186 0-282-64-284-243 0-40 5-86 15-138l140-721h180c-47 251-101 497-144 752-25 145 40 219 181 211 211-12 308-150 344-336l122-627h181C1087-721 1010-369 950 0H780c6-58 18-129 28-185h-3C720-71 616 20 419 20" id="M"/><path d="M815-1102c202-2 311 102 279 314-40 267-101 525-150 788H763l135-695c7-39 11-71 11-98 2-119-62-175-179-170-208 9-312 151-348 336L260 0H80c67-361 144-713 204-1082h170c-6 58-17 130-28 185h3c86-116 194-203 386-205" id="N"/><path d="M522 20c-267 0-410-127-410-389 0-365 156-619 438-707 169-53 390-23 481 68 54 54 92 128 93 229l-194 14c0-132-80-198-224-196-263 3-339 192-386 415-13 63-19 121-19 174-1 166 74 255 240 253 161-2 266-84 309-215l188 12C961-121 793 20 522 20" id="O"/><path d="M574 16c-199 5-309-85-269-285l131-671H268l27-142h170l113-282h120l-55 282h432l-27 142H616c-43 233-105 457-132 696-16 144 198 111 324 99 46-6 96-14 136-22L918-30C819-5 700 13 574 16" id="P"/><path d="M668-142h380L1020 0H38l28-142h422l155-798H324l27-142h499zm23-1150l37-192h200l-37 192H691" id="Q"/><path d="M724-1102c292 0 423 159 388 460-35 307-154 537-400 628-65 24-136 34-212 34-254-2-388-131-388-387 0-255 97-480 226-595 103-92 231-140 386-140zM381-747C294-559 211-98 524-113c294-14 359-254 399-525 28-194-32-337-222-331-174 5-260 94-320 222" id="R"/><g id="g"><use transform="matrix(0.009765625,0,0,0.009765625,0,0)" xlink:href="#L"/><use transform="matrix(0.009765625,0,0,0.009765625,12.001953125,0)" xlink:href="#M"/><use transform="matrix(0.009765625,0,0,0.009765625,24.00390625,0)" xlink:href="#N"/><use transform="matrix(0.009765625,0,0,0.009765625,36.005859375,0)" xlink:href="#O"/><use transform="matrix(0.009765625,0,0,0.009765625,48.0078125,0)" xlink:href="#P"/><use transform="matrix(0.009765625,0,0,0.009765625,60.009765625,0)" xlink:href="#Q"/><use transform="matrix(0.009765625,0,0,0.009765625,72.01171875,0)" xlink:href="#R"/><use transform="matrix(0.009765625,0,0,0.009765625,84.013671875,0)" xlink:href="#N"/></g><path fill="#19967d" d="M1060-1016c0 191-128 285-295 323v4c154 18 262 91 313 209 14 35 21 72 21 110 0 277-194 390-478 390-292 0-457-129-493-382l186-17c24 161 121 250 307 250 172 1 298-80 291-247-8-208-220-239-446-233v-156c217 9 409-34 409-232 0-152-102-225-264-225-159 0-264 88-278 233l-181-14c33-239 196-367 461-367 264 0 447 102 447 354" id="S"/><use transform="matrix(0.01193576388888889,0,0,0.01193576388888889,0,0)" xlink:href="#S" id="h"/><path fill="#19967d" d="M937-319V0H757v-319H103v-140l635-890h199v888h188v142H937zm-180-835L257-461h500v-693" id="T"/><use transform="matrix(0.01193576388888889,0,0,0.01193576388888889,0,0)" xlink:href="#T" id="i"/><path d="M875-1102c70 0 148 7 206 17v237c-110-17-267-37-359 15-123 69-192 207-192 395V0H250c-10-367 32-789-52-1082h271c19 69 36 149 46 228h4c52-151 151-250 356-248" id="U"/><g id="j"><use transform="matrix(0.009765625,0,0,0.009765625,0,0)" xlink:href="#m"/><use transform="matrix(0.009765625,0,0,0.009765625,12.001953125,0)" xlink:href="#n"/><use transform="matrix(0.009765625,0,0,0.009765625,24.00390625,0)" xlink:href="#o"/><use transform="matrix(0.009765625,0,0,0.009765625,36.005859375,0)" xlink:href="#p"/><use transform="matrix(0.009765625,0,0,0.009765625,48.0078125,0)" xlink:href="#q"/><use transform="matrix(0.009765625,0,0,0.009765625,60.009765625,0)" xlink:href="#s"/><use transform="matrix(0.009765625,0,0,0.009765625,72.01171875,0)" xlink:href="#U"/><use transform="matrix(0.009765625,0,0,0.009765625,84.013671875,0)" xlink:href="#t"/><use transform="matrix(0.009765625,0,0,0.009765625,96.015625,0)" xlink:href="#u"/><use transform="matrix(0.009765625,0,0,0.009765625,108.017578125,0)" xlink:href="#v"/><use transform="matrix(0.009765625,0,0,0.009765625,120.01953125,0)" xlink:href="#w"/><use transform="matrix(0.009765625,0,0,0.009765625,132.021484375,0)" xlink:href="#x"/></g></defs></g></svg>