<svg xmlns="http://www.w3.org/2000/svg" xmlns:xlink="http://www.w3.org/1999/xlink" xmlns:lucid="lucid" width="1054" height="353"><g transform="translate(-180 -924)" lucid:page-tab-id="0_0"><path d="M0 0h1870.4v1323.2H0z" fill="#fff"/><path d="M177 921.1h1063v360H177z" stroke="#000" stroke-width="2" fill-opacity="0"/><path d="M420 976.1h580.43v250H420z" stroke="#000" stroke-width="2" fill-opacity="0"/><path d="M576.42 1092.78h272.23v50H576.42z" stroke="#000" stroke-opacity="0" stroke-width="2" fill="#fff" fill-opacity="0"/><use xlink:href="#a" transform="matrix(1,0,0,1,581.4177890256263,1097.7777777777778) translate(35.484375 25.99609375)"/><use xlink:href="#b" transform="matrix(1,0,0,1,581.4177890256263,1097.7777777777778) translate(71.490234375 25.99609375)"/><path d="M518.36 1012.78h35.54v40h-35.54z" stroke="#000" stroke-opacity="0" stroke-width="2" fill="#fff" fill-opacity="0"/><use xlink:href="#c" transform="matrix(1,0,0,1,523.3633309579114,1017.7777777777778) translate(5.665473090277777 22.32855902777778)"/><path d="M865.48 1012.78H901v40H865.5z" stroke="#000" stroke-opacity="0" stroke-width="2" fill="#fff" fill-opacity="0"/><use xlink:href="#d" transform="matrix(1,0,0,1,870.4813259175139,1017.7777777777778) translate(5.665473090277777 22.32855902777778)"/><path d="M554.9 1032.78h292.08" stroke="#000" stroke-width="2" fill="none"/><path d="M554.92 1033.78h-1.02v-2h1.02z"/><path d="M862.25 1032.78l-14.27 4.63v-9.26z" stroke="#000" stroke-width="2"/><path d="M581.94 989.45H840.3v50H581.93z" stroke="#000" stroke-opacity="0" stroke-width="2" fill="#fff" fill-opacity="0"/><use xlink:href="#e" transform="matrix(1,0,0,1,586.9416243654849,994.4460888793391) translate(28.484375 25.99609375)"/><use xlink:href="#f" transform="matrix(1,0,0,1,586.9416243654849,994.4460888793391) translate(64.490234375 25.99609375)"/><path d="M473.9 1032.78h124.46v40H473.9z" stroke="#000" stroke-opacity="0" stroke-width="2" fill="#fff" fill-opacity="0"/><use xlink:href="#g" transform="matrix(1,0,0,1,478.89632588176926,1037.7777777777778) translate(36.16319444444444 20.32986111111111)"/><path d="M821 1032.78H945.5v40H821z" stroke="#000" stroke-opacity="0" stroke-width="2" fill="#fff" fill-opacity="0"/><use xlink:href="#g" transform="matrix(1,0,0,1,826.0143208413717,1037.7777777777778) translate(36.16319444444444 20.32986111111111)"/><path d="M680.3 1137.78h64.47v60H680.3zM744.77 1137.78h64.47v60h-64.47z" stroke="#0c7cba" stroke-width="2" fill-opacity="0"/><path d="M615.83 1137.78h64.47v60h-64.47z" stroke="#0c7cba" stroke-width="2" fill-opacity="0"/><path d="M649.3 936.1H773.8v40H649.3z" stroke="#000" stroke-opacity="0" stroke-width="2" fill="#fff" fill-opacity="0"/><use xlink:href="#h" transform="matrix(1,0,0,1,654.310922153889,941.1143999809004) translate(-2.509765625 20.99609375)"/><path d="M689.66 1039.45h41.1v63.33h-41.1z" stroke="#000" stroke-opacity="0" stroke-width="2" fill="#fff" fill-opacity="0"/><use xlink:href="#i" transform="matrix(1,0,0,1,694.6554610769442,1044.4460888793392) translate(-0.002604166666667851 42.98958333333333)"/><path d="M420 1222.78h580.43v40H420z" stroke="#000" stroke-opacity="0" stroke-width="2" fill="#fff" fill-opacity="0"/><use xlink:href="#j" transform="matrix(1,0,0,1,425.00000000000006,1227.7777777777778) translate(5.4544270833332575 19.66362847222222)"/><use xlink:href="#k" transform="matrix(1,0,0,1,425.00000000000006,1227.7777777777778) translate(80.13324652777771 19.66362847222222)"/><use xlink:href="#l" transform="matrix(1,0,0,1,425.00000000000006,1227.7777777777778) translate(98.80295138888883 19.66362847222222)"/><use xlink:href="#m" transform="matrix(1,0,0,1,425.00000000000006,1227.7777777777778) translate(126.8075086805555 19.66362847222222)"/><use xlink:href="#n" transform="matrix(1,0,0,1,425.00000000000006,1227.7777777777778) translate(210.82118055555551 19.66362847222222)"/><use xlink:href="#o" transform="matrix(1,0,0,1,425.00000000000006,1227.7777777777778) translate(229.49088541666663 19.66362847222222)"/><use xlink:href="#p" transform="matrix(1,0,0,1,425.00000000000006,1227.7777777777778) translate(257.4954427083333 19.66362847222222)"/><use xlink:href="#k" transform="matrix(1,0,0,1,425.00000000000006,1227.7777777777778) translate(406.85308159722223 19.66362847222222)"/><use xlink:href="#m" transform="matrix(1,0,0,1,425.00000000000006,1227.7777777777778) translate(425.52278645833337 19.66362847222222)"/><use xlink:href="#q" transform="matrix(1,0,0,1,425.00000000000006,1227.7777777777778) translate(509.53645833333337 19.66362847222222)"/><path d="M900 1007.78h162.23v50H900z" stroke="#000" stroke-opacity="0" stroke-width="2" fill="#fff" fill-opacity="0"/><g><use xlink:href="#r" transform="matrix(1,0,0,1,905.0000000000001,1012.7777777777778) translate(28.4921875 15.99609375)"/><use xlink:href="#s" transform="matrix(1,0,0,1,905.0000000000001,1012.7777777777778) translate(10.4892578125 35.99609375)"/></g><path d="M900 1127.78h162.23v50H900z" stroke="#000" stroke-opacity="0" stroke-width="2" fill="#fff" fill-opacity="0"/><g><use xlink:href="#t" transform="matrix(1,0,0,1,905.0000000000001,1132.7777777777778) translate(16.490234375 15.99609375)"/><use xlink:href="#u" transform="matrix(1,0,0,1,905.0000000000001,1132.7777777777778) translate(34.4931640625 35.99609375)"/></g><path d="M1063.23 1032.78h39v119.2h-21.5" stroke="#000" stroke-width="2" fill="none"/><path d="M1063.26 1033.78h-1.03v-2h1.03z"/><path d="M1065.47 1151.97l14.27-4.64v9.27z" stroke="#000" stroke-width="2"/><path d="M933.87 1051h162.23v35H933.87z" stroke="#000" stroke-opacity="0" stroke-width="2" fill="#fff" fill-opacity="0"/><g><use xlink:href="#v" transform="matrix(1,0,0,1,938.8713248887547,1056.0140994670332) translate(0 10.6640625)"/><use xlink:href="#w" transform="matrix(1,0,0,1,938.8713248887547,1056.0140994670332) translate(24.00390625 10.6640625)"/><use xlink:href="#x" transform="matrix(1,0,0,1,938.8713248887547,1056.0140994670332) translate(0 23.997395833333336)"/><use xlink:href="#y" transform="matrix(1,0,0,1,938.8713248887547,1056.0140994670332) translate(24.00390625 23.997395833333336)"/></g><defs><path d="M135-968c34-256 187-402 480-402 217 0 371 75 441 220 45 93 40 219-8 308-114 212-348 323-508 488-38 39-66 80-85 123h654V0H123v-195c112-245 321-399 515-560 57-48 107-96 142-157 14-26 22-53 22-80-1-104-73-156-185-154-131 2-181 74-199 194" id="z"/><path d="M885-531c0 421-122 704-297 956H307c174-255 301-534 301-955 0-420-127-700-301-954h281c175 251 297 532 297 953" id="A"/><g id="a"><use transform="matrix(0.009765625,0,0,0.009765625,0,0)" xlink:href="#z"/><use transform="matrix(0.009765625,0,0,0.009765625,12.001953125,0)" xlink:href="#A"/></g><path fill="#0c7cba" d="M1031-970c-23-138-92-244-250-244-306 0-381 266-440 533-17 75-25 147-25 229 1 197 73 317 266 317 202 0 293-151 377-282l146 65C986-167 844 20 550 20c-297 0-434-170-434-467 0-413 147-747 446-877 112-49 299-63 420-18 132 49 200 159 229 307" id="B"/><path fill="#0c7cba" d="M724-1102c292 0 423 159 388 460-35 307-154 537-400 628-65 24-136 34-212 34-254-2-388-131-388-387 0-255 97-480 226-595 103-92 231-140 386-140zM381-747C294-559 211-98 524-113c294-14 359-254 399-525 28-194-32-337-222-331-174 5-260 94-320 222" id="C"/><path fill="#0c7cba" d="M659-142h380L1011 0H29l28-142h422l233-1200H423l27-142h469" id="D"/><path fill="#0c7cba" d="M726-1102c256 0 385 126 386 379 1 67-11 147-25 220H315c-7 39-13 78-13 121 2 164 74 267 238 267 154 0 260-65 317-166l149 45C916-82 760 20 514 20c-259 0-398-131-398-390 0-357 148-615 421-704 62-20 125-28 189-28zm202 461c22-192-41-335-226-328-212 9-312 142-358 328h584" id="E"/><path fill="#0c7cba" d="M522 20c-267 0-410-127-410-389 0-365 156-619 438-707 169-53 390-23 481 68 54 54 92 128 93 229l-194 14c0-132-80-198-224-196-263 3-339 192-386 415-13 63-19 121-19 174-1 166 74 255 240 253 161-2 266-84 309-215l188 12C961-121 793 20 522 20" id="F"/><path fill="#0c7cba" d="M574 16c-199 5-309-85-269-285l131-671H268l27-142h170l113-282h120l-55 282h432l-27 142H616c-43 233-105 457-132 696-16 144 198 111 324 99 46-6 96-14 136-22L918-30C819-5 700 13 574 16" id="G"/><path fill="#0c7cba" d="M668-142h380L1020 0H38l28-142h422l155-798H324l27-142h499zm23-1150l37-192h200l-37 192H691" id="H"/><path fill="#0c7cba" d="M815-1102c202-2 311 102 279 314-40 267-101 525-150 788H763l135-695c7-39 11-71 11-98 2-119-62-175-179-170-208 9-312 151-348 336L260 0H80c67-361 144-713 204-1082h170c-6 58-17 130-28 185h3c86-116 194-203 386-205" id="I"/><path d="M116-571v-205l995-418v154L253-674l858 367v153" id="J"/><path fill="#19967d" d="M836-1193L604 0H414l232-1193H203l30-156h1076l-30 156H836" id="K"/><path d="M116-154v-153l858-367-858-366v-154l995 418v205" id="L"/><g id="b"><use transform="matrix(0.009765625,0,0,0.009765625,0,0)" xlink:href="#B"/><use transform="matrix(0.009765625,0,0,0.009765625,12.001953125,0)" xlink:href="#C"/><use transform="matrix(0.009765625,0,0,0.009765625,24.00390625,0)" xlink:href="#D"/><use transform="matrix(0.009765625,0,0,0.009765625,36.005859375,0)" xlink:href="#D"/><use transform="matrix(0.009765625,0,0,0.009765625,48.0078125,0)" xlink:href="#E"/><use transform="matrix(0.009765625,0,0,0.009765625,60.009765625,0)" xlink:href="#F"/><use transform="matrix(0.009765625,0,0,0.009765625,72.01171875,0)" xlink:href="#G"/><use transform="matrix(0.009765625,0,0,0.009765625,84.013671875,0)" xlink:href="#H"/><use transform="matrix(0.009765625,0,0,0.009765625,96.015625,0)" xlink:href="#C"/><use transform="matrix(0.009765625,0,0,0.009765625,108.017578125,0)" xlink:href="#I"/><use transform="matrix(0.009765625,0,0,0.009765625,120.01953125,0)" xlink:href="#J"/><use transform="matrix(0.009765625,0,0,0.009765625,132.021484375,0)" xlink:href="#K"/><use transform="matrix(0.009765625,0,0,0.009765625,144.0234375,0)" xlink:href="#L"/></g><path fill="#19967d" d="M709-1193V0H519v-1193H76v-156h1076v156H709" id="M"/><use transform="matrix(0.01193576388888889,0,0,0.01193576388888889,0,0)" xlink:href="#M" id="c"/><path fill="#19967d" d="M1121-976c0 225-142 341-344 379L1177 0H957L591-575H353V0H162v-1349h482c281 3 477 100 477 373zM633-726c181-1 296-73 296-247 0-149-101-223-304-223H353v470h280" id="N"/><use transform="matrix(0.01193576388888889,0,0,0.01193576388888889,0,0)" xlink:href="#N" id="d"/><path d="M138-1120c207-4 339-93 415-229h266v1140h323V0H149v-209h389v-891c-70 121-216 187-400 194v-214" id="O"/><g id="e"><use transform="matrix(0.009765625,0,0,0.009765625,0,0)" xlink:href="#O"/><use transform="matrix(0.009765625,0,0,0.009765625,12.001953125,0)" xlink:href="#A"/></g><path d="M512-1193l-96 494h676l-31 158H385L280 0H89l262-1349h891l-30 156H512" id="P"/><path d="M419 20c-186 0-282-64-284-243 0-40 5-86 15-138l140-721h180c-47 251-101 497-144 752-25 145 40 219 181 211 211-12 308-150 344-336l122-627h181C1087-721 1010-369 950 0H780c6-58 18-129 28-185h-3C720-71 616 20 419 20" id="Q"/><path d="M815-1102c202-2 311 102 279 314-40 267-101 525-150 788H763l135-695c7-39 11-71 11-98 2-119-62-175-179-170-208 9-312 151-348 336L260 0H80c67-361 144-713 204-1082h170c-6 58-17 130-28 185h3c86-116 194-203 386-205" id="R"/><path d="M522 20c-267 0-410-127-410-389 0-365 156-619 438-707 169-53 390-23 481 68 54 54 92 128 93 229l-194 14c0-132-80-198-224-196-263 3-339 192-386 415-13 63-19 121-19 174-1 166 74 255 240 253 161-2 266-84 309-215l188 12C961-121 793 20 522 20" id="S"/><path d="M574 16c-199 5-309-85-269-285l131-671H268l27-142h170l113-282h120l-55 282h432l-27 142H616c-43 233-105 457-132 696-16 144 198 111 324 99 46-6 96-14 136-22L918-30C819-5 700 13 574 16" id="T"/><path d="M668-142h380L1020 0H38l28-142h422l155-798H324l27-142h499zm23-1150l37-192h200l-37 192H691" id="U"/><path d="M724-1102c292 0 423 159 388 460-35 307-154 537-400 628-65 24-136 34-212 34-254-2-388-131-388-387 0-255 97-480 226-595 103-92 231-140 386-140zM381-747C294-559 211-98 524-113c294-14 359-254 399-525 28-194-32-337-222-331-174 5-260 94-320 222" id="V"/><path fill="#19967d" d="M83 363l298-662h265L206 363H83" id="W"/><path fill="#19967d" d="M801-1349c273-6 458 108 405 373-42 211-195 340-418 379L1072 0H852L598-575H360L248 0H57l262-1349h482zM669-726c214-4 349-100 349-300 0-113-89-170-266-170H480l-91 470h280" id="X"/><g id="f"><use transform="matrix(0.009765625,0,0,0.009765625,0,0)" xlink:href="#P"/><use transform="matrix(0.009765625,0,0,0.009765625,12.001953125,0)" xlink:href="#Q"/><use transform="matrix(0.009765625,0,0,0.009765625,24.00390625,0)" xlink:href="#R"/><use transform="matrix(0.009765625,0,0,0.009765625,36.005859375,0)" xlink:href="#S"/><use transform="matrix(0.009765625,0,0,0.009765625,48.0078125,0)" xlink:href="#T"/><use transform="matrix(0.009765625,0,0,0.009765625,60.009765625,0)" xlink:href="#U"/><use transform="matrix(0.009765625,0,0,0.009765625,72.01171875,0)" xlink:href="#V"/><use transform="matrix(0.009765625,0,0,0.009765625,84.013671875,0)" xlink:href="#R"/><use transform="matrix(0.009765625,0,0,0.009765625,96.015625,0)" xlink:href="#J"/><use transform="matrix(0.009765625,0,0,0.009765625,108.017578125,0)" xlink:href="#K"/><use transform="matrix(0.009765625,0,0,0.009765625,120.01953125,0)" xlink:href="#W"/><use transform="matrix(0.009765625,0,0,0.009765625,132.021484375,0)" xlink:href="#X"/><use transform="matrix(0.009765625,0,0,0.009765625,144.0234375,0)" xlink:href="#L"/></g><path fill="#19967d" d="M473-1349c438-1 655 221 652 661C1122-268 945-8 532 0H162v-1349h311zm42 1193c308-4 416-205 418-532 2-330-131-509-459-505H353v1037h162" id="Y"/><path fill="#19967d" d="M1000-272c3 95 12 159 101 161 21 0 41-3 59-7V-6c-44 10-86 16-139 16-141 2-191-84-197-217h-6C748-76 648 20 446 20c-207 0-318-120-318-322 0-266 194-348 454-354l236-4c12-191-40-305-222-305-140 0-220 47-232 172l-188-17c33-204 181-292 423-292 255 0 401 118 401 364v466zm-683-27c0 109 63 184 175 182 166-3 259-96 306-217 24-65 20-120 20-200-232 7-501-28-501 235" id="Z"/><path fill="#19967d" d="M682 16c-209 0-323-80-324-285v-671H190v-142h170l58-282h120v282h432v142H538v652c2 114 60 155 182 155 106 0 209-16 297-34v137C921-4 806 16 682 16" id="aa"/><g id="g"><use transform="matrix(0.008680555555555556,0,0,0.008680555555555556,0,0)" xlink:href="#Y"/><use transform="matrix(0.008680555555555556,0,0,0.008680555555555556,10.668402777777779,0)" xlink:href="#Z"/><use transform="matrix(0.008680555555555556,0,0,0.008680555555555556,21.336805555555557,0)" xlink:href="#aa"/><use transform="matrix(0.008680555555555556,0,0,0.008680555555555556,32.005208333333336,0)" xlink:href="#Z"/></g><path d="M462-1121v384h621v228H462V0H167v-1349h939v228H462" id="ab"/><path d="M471 20c-247 0-336-169-336-415v-687h281v607c4 148 31 285 172 285 152 0 207-150 207-312v-580h281c4 359-9 736 8 1082H816c-7-63-11-146-12-215h-5C736-76 644 20 471 20" id="ac"/><path d="M768-1103c247 0 336 167 336 416V0H824v-619c-3-164-24-273-171-273-164 0-229 142-229 312V0H143c-4-359 9-736-8-1082h268c7 63 12 146 13 215h4c67-145 160-236 348-236" id="ad"/><path d="M1109-360C1066-122 902 20 624 20c-347 0-514-209-514-555 0-353 168-567 518-567 270 0 425 136 473 361l-283 14c-16-106-75-183-196-182-75 0-130 31-165 93s-52 152-52 270c0 249 74 374 221 374 120 0 188-82 201-201" id="ae"/><path d="M711 13c-250 0-386-99-385-349l2-556H161v-190h181l88-282h176v282h385v190H606v530c-10 130 45 186 174 184 91-2 176-11 255-27v186C933-1 833 13 711 13" id="af"/><path d="M616-1102c361 0 521 202 521 560 0 354-171 562-527 562C259 20 92-192 92-542c0-351 169-560 524-560zm-9 930c200-2 236-165 236-370 0-199-27-367-223-367-195 0-233 146-233 367 0 129 18 223 55 282s92 88 165 88" id="ag"/><path d="M875-1102c70 0 148 7 206 17v237c-110-17-267-37-359 15-123 69-192 207-192 395V0H250c-10-367 32-789-52-1082h271c19 69 36 149 46 228h4c52-151 151-250 356-248" id="ah"/><path d="M116-571v-205l995-418v154L253-674l858 367v153" id="ai"/><path d="M116-154v-153l858-367-858-366v-154l995 418v205" id="aj"/><g id="h"><use transform="matrix(0.009765625,0,0,0.009765625,0,0)" xlink:href="#ab"/><use transform="matrix(0.009765625,0,0,0.009765625,12.001953125,0)" xlink:href="#ac"/><use transform="matrix(0.009765625,0,0,0.009765625,24.00390625,0)" xlink:href="#ad"/><use transform="matrix(0.009765625,0,0,0.009765625,36.005859375,0)" xlink:href="#ae"/><use transform="matrix(0.009765625,0,0,0.009765625,48.0078125,0)" xlink:href="#af"/><use transform="matrix(0.009765625,0,0,0.009765625,60.009765625,0)" xlink:href="#ag"/><use transform="matrix(0.009765625,0,0,0.009765625,72.01171875,0)" xlink:href="#ah"/><use transform="matrix(0.009765625,0,0,0.009765625,84.013671875,0)" xlink:href="#ai"/><use transform="matrix(0.009765625,0,0,0.009765625,96.015625,0)" xlink:href="#M"/><use transform="matrix(0.009765625,0,0,0.009765625,108.017578125,0)" xlink:href="#aj"/></g><path d="M687-608v428H540v-428H116v-146h424v-428h147v428h424v146H687" id="ak"/><use transform="matrix(0.026041666666666668,0,0,0.026041666666666668,0,0)" xlink:href="#ak" id="i"/><path d="M385-1193v494h676v158H385V0H194v-1349h891v156H385" id="al"/><path d="M528 20c-247 0-343-132-343-381v-721h180v686c-4 177 45 284 224 277 194-8 279-136 279-336v-627h181c3 360-6 732 6 1082H885c-4-54-7-126-8-185h-3C809-64 714 20 528 20" id="am"/><path d="M706-1102c241 0 344 136 343 381V0H868v-695c1-168-57-273-220-268-190 6-283 138-283 336V0H185c-3-360 6-732-6-1082h170c4 54 7 126 8 185h3c63-121 164-204 346-205" id="an"/><path d="M631 20c-350 0-501-215-501-562 0-355 162-560 502-560 250 0 399 118 446 323l-192 14c-23-124-109-196-262-196-242 0-305 171-305 415 1 245 61 427 304 427 151 0 248-77 267-215l190 12C1039-107 883 20 631 20" id="ao"/><path d="M682 16c-209 0-323-80-324-285v-671H190v-142h170l58-282h120v282h432v142H538v652c2 114 60 155 182 155 106 0 209-16 297-34v137C921-4 806 16 682 16" id="ap"/><path d="M615-1102c343 0 484 203 482 560-1 347-147 562-488 562-336 0-475-219-479-562-4-349 156-560 485-560zm-8 989c240 0 301-180 301-429 0-245-55-427-290-427-236 0-299 181-299 427 0 243 61 429 288 429" id="aq"/><path d="M839-1102c70 0 148 7 206 17v167c-112-18-268-36-363 15-129 69-208 203-208 395V0H294c-10-367 32-789-52-1082h171c21 75 41 161 48 250h5c67-152 152-270 373-270" id="ar"/><g id="j"><use transform="matrix(0.007595486111111112,0,0,0.007595486111111112,0,0)" xlink:href="#al"/><use transform="matrix(0.007595486111111112,0,0,0.007595486111111112,9.334852430555557,0)" xlink:href="#am"/><use transform="matrix(0.007595486111111112,0,0,0.007595486111111112,18.669704861111114,0)" xlink:href="#an"/><use transform="matrix(0.007595486111111112,0,0,0.007595486111111112,28.00455729166667,0)" xlink:href="#ao"/><use transform="matrix(0.007595486111111112,0,0,0.007595486111111112,37.33940972222223,0)" xlink:href="#ap"/><use transform="matrix(0.007595486111111112,0,0,0.007595486111111112,46.674262152777786,0)" xlink:href="#aq"/><use transform="matrix(0.007595486111111112,0,0,0.007595486111111112,56.00911458333334,0)" xlink:href="#ar"/></g><path d="M116-856v-148h995v148H116zm0 512v-148h995v148H116" id="as"/><use transform="matrix(0.007595486111111112,0,0,0.007595486111111112,0,0)" xlink:href="#as" id="k"/><path d="M148-1120c216-7 379-89 463-229h166v1204h353V0H157v-145h439v-1021c-79 124-254 184-448 194v-148" id="at"/><path d="M528-1484c201 248 357 511 357 952 0 442-156 709-357 957H336C537 174 700-89 700-530c0-440-163-703-364-954h192" id="au"/><g id="l"><use transform="matrix(0.007595486111111112,0,0,0.007595486111111112,0,0)" xlink:href="#at"/><use transform="matrix(0.007595486111111112,0,0,0.007595486111111112,9.334852430555557,0)" xlink:href="#au"/></g><path d="M745-142h380V0H143v-142h422v-798H246v-142h499v940zM545-1292v-192h200v192H545" id="av"/><g id="m"><use transform="matrix(0.007595486111111112,0,0,0.007595486111111112,0,0)" xlink:href="#al"/><use transform="matrix(0.007595486111111112,0,0,0.007595486111111112,9.334852430555557,0)" xlink:href="#am"/><use transform="matrix(0.007595486111111112,0,0,0.007595486111111112,18.669704861111114,0)" xlink:href="#an"/><use transform="matrix(0.007595486111111112,0,0,0.007595486111111112,28.00455729166667,0)" xlink:href="#ao"/><use transform="matrix(0.007595486111111112,0,0,0.007595486111111112,37.33940972222223,0)" xlink:href="#ap"/><use transform="matrix(0.007595486111111112,0,0,0.007595486111111112,46.674262152777786,0)" xlink:href="#av"/><use transform="matrix(0.007595486111111112,0,0,0.007595486111111112,56.00911458333334,0)" xlink:href="#aq"/><use transform="matrix(0.007595486111111112,0,0,0.007595486111111112,65.3439670138889,0)" xlink:href="#an"/></g><use transform="matrix(0.007595486111111112,0,0,0.007595486111111112,0,0)" xlink:href="#ak" id="n"/><path d="M611-1370c266 0 451 106 451 368 0 147-77 243-154 327-132 144-316 255-451 395-42 44-75 87-96 134h723V0H144v-117c124-264 387-411 582-603 73-72 151-147 151-271 0-161-104-231-266-231-163 0-249 90-268 238l-184-17c35-233 185-369 452-369" id="aw"/><g id="o"><use transform="matrix(0.007595486111111112,0,0,0.007595486111111112,0,0)" xlink:href="#aw"/><use transform="matrix(0.007595486111111112,0,0,0.007595486111111112,9.334852430555557,0)" xlink:href="#au"/></g><path d="M622-1349c296 4 497 117 497 404 0 282-193 424-485 431H353V0H162v-1349h460zm-15 684c195-3 320-88 320-277 0-184-129-255-328-254H353v531h254" id="ax"/><path d="M698-1104c312 3 392 244 392 558 0 315-82 566-392 566-169 0-277-65-331-184h-5c8 188 2 394 4 589H185V-858c0-76-1-156-6-224h175c6 52 9 120 10 178h4c58-122 150-202 330-200zm-49 991c225 0 255-203 255-433 0-225-32-419-253-419-236 0-285 192-285 441 0 237 53 411 283 411" id="ay"/><path d="M617-1102c355 0 481 238 477 599H322c5 222 84 388 301 388 144 0 244-59 284-166l158 45C1002-72 854 20 623 20c-342 0-490-220-490-568 0-346 151-554 484-554zm291 461c-18-192-90-328-289-328-194 0-287 128-295 328h584" id="az"/><path d="M168 279c222 39 310-114 368-290L66-1082h192c120 299 249 590 362 896 115-301 235-597 351-896h190L705 0c-65 164-130 320-275 396-67 36-177 35-262 18V279" id="aA"/><path d="M891-1484c-201 251-362 514-362 954 0 441 161 704 362 955H701C500 176 342-90 342-532c0-440 159-704 359-952h190" id="aB"/><path d="M614-1226c-167 1-283 53-283 213 0 183 186 193 334 234 230 63 463 120 463 409 0 286-219 387-518 390C309 23 131-98 79-338l185-37c34 165 149 248 351 246 184-2 324-58 324-238 0-203-207-221-372-266-210-57-422-111-422-377 0-267 201-356 470-360 279-5 430 101 480 324l-188 33c-28-141-121-215-293-213" id="aC"/><path d="M1000-272c3 95 12 159 101 161 21 0 41-3 59-7V-6c-44 10-86 16-139 16-141 2-191-84-197-217h-6C748-76 648 20 446 20c-207 0-318-120-318-322 0-266 194-348 454-354l236-4c12-191-40-305-222-305-140 0-220 47-232 172l-188-17c33-204 181-292 423-292 255 0 401 118 401 364v466zm-683-27c0 109 63 184 175 182 166-3 259-96 306-217 24-65 20-120 20-200-232 7-501-28-501 235" id="aD"/><g id="p"><use transform="matrix(0.007595486111111112,0,0,0.007595486111111112,0,0)" xlink:href="#ax"/><use transform="matrix(0.007595486111111112,0,0,0.007595486111111112,9.334852430555557,0)" xlink:href="#ar"/><use transform="matrix(0.007595486111111112,0,0,0.007595486111111112,18.669704861111114,0)" xlink:href="#aq"/><use transform="matrix(0.007595486111111112,0,0,0.007595486111111112,28.00455729166667,0)" xlink:href="#ay"/><use transform="matrix(0.007595486111111112,0,0,0.007595486111111112,37.33940972222223,0)" xlink:href="#az"/><use transform="matrix(0.007595486111111112,0,0,0.007595486111111112,46.674262152777786,0)" xlink:href="#ar"/><use transform="matrix(0.007595486111111112,0,0,0.007595486111111112,56.00911458333334,0)" xlink:href="#ap"/><use transform="matrix(0.007595486111111112,0,0,0.007595486111111112,65.3439670138889,0)" xlink:href="#aA"/><use transform="matrix(0.007595486111111112,0,0,0.007595486111111112,74.67881944444446,0)" xlink:href="#aB"/><use transform="matrix(0.007595486111111112,0,0,0.007595486111111112,84.01367187500001,0)" xlink:href="#aC"/><use transform="matrix(0.007595486111111112,0,0,0.007595486111111112,93.34852430555557,0)" xlink:href="#ap"/><use transform="matrix(0.007595486111111112,0,0,0.007595486111111112,102.68337673611113,0)" xlink:href="#aD"/><use transform="matrix(0.007595486111111112,0,0,0.007595486111111112,112.01822916666669,0)" xlink:href="#ap"/><use transform="matrix(0.007595486111111112,0,0,0.007595486111111112,121.35308159722224,0)" xlink:href="#az"/><use transform="matrix(0.007595486111111112,0,0,0.007595486111111112,130.6879340277778,0)" xlink:href="#au"/></g><path d="M102-681c0-398 126-689 513-689 165 0 291 58 379 174s132 287 132 515c-1 318-88 554-298 657-123 61-317 58-438-3-206-104-288-341-288-654zm749 406c94-160 97-656-5-807-57-85-130-132-231-132-104 0-178 47-234 132-101 153-99 655 1 809 57 89 130 138 232 138 109 0 184-49 237-140" id="aE"/><path d="M365-904c58-129 161-200 334-200 130 0 228 46 293 138s98 233 98 420c0 189-34 331-102 425S824 20 698 20c-170 0-275-64-336-184 0 55-3 116-9 164H179c5-68 6-147 6-223v-1261h180c-2 193 4 394-4 580h4zm283 791c221 0 256-197 256-427 0-229-34-425-254-425-236 0-285 195-285 441 0 237 53 411 283 411" id="aF"/><path d="M390 276c167 0 266-82 266-251v-965H249v-142h587V28c-4 270-165 397-431 397-107 0-208-16-288-43V242c80 18 173 34 273 34zm246-1568v-192h200v192H636" id="aG"/><g id="q"><use transform="matrix(0.007595486111111112,0,0,0.007595486111111112,0,0)" xlink:href="#aE"/><use transform="matrix(0.007595486111111112,0,0,0.007595486111111112,9.334852430555557,0)" xlink:href="#aF"/><use transform="matrix(0.007595486111111112,0,0,0.007595486111111112,18.669704861111114,0)" xlink:href="#aG"/><use transform="matrix(0.007595486111111112,0,0,0.007595486111111112,28.00455729166667,0)" xlink:href="#az"/><use transform="matrix(0.007595486111111112,0,0,0.007595486111111112,37.33940972222223,0)" xlink:href="#ao"/><use transform="matrix(0.007595486111111112,0,0,0.007595486111111112,46.674262152777786,0)" xlink:href="#ap"/></g><g id="r"><use transform="matrix(0.009765625,0,0,0.009765625,0,0)" xlink:href="#P"/><use transform="matrix(0.009765625,0,0,0.009765625,12.001953125,0)" xlink:href="#Q"/><use transform="matrix(0.009765625,0,0,0.009765625,24.00390625,0)" xlink:href="#R"/><use transform="matrix(0.009765625,0,0,0.009765625,36.005859375,0)" xlink:href="#S"/><use transform="matrix(0.009765625,0,0,0.009765625,48.0078125,0)" xlink:href="#T"/><use transform="matrix(0.009765625,0,0,0.009765625,60.009765625,0)" xlink:href="#U"/><use transform="matrix(0.009765625,0,0,0.009765625,72.01171875,0)" xlink:href="#V"/><use transform="matrix(0.009765625,0,0,0.009765625,84.013671875,0)" xlink:href="#R"/></g><path d="M929 0l-64-382H302L91 0h-196l772-1349h217L1123 0H929zm-84-531c-33-225-70-447-100-674-114 230-242 451-363 674h463" id="aH"/><path d="M808-1104c255 0 336 185 302 442-38 281-118 532-328 640-56 28-120 42-193 42-158 0-262-57-295-184-10-1-5 5-7 18-33 194-73 381-109 571H-3C92-78 198-570 284-1082h175c-4 58-14 124-24 178h4c78-115 178-200 369-200zM343-350c-1 156 68 242 223 237 244-7 292-220 339-433 43-194 50-428-171-419-257 11-321 210-371 441-15 68-20 127-20 174" id="aI"/><path d="M659-142h380L1011 0H29l28-142h422l233-1200H423l27-142h469" id="aJ"/><path d="M948-272c-17 76-19 161 70 161 21 0 42-3 60-7L1056-6c-45 10-88 14-142 16-138 6-175-86-155-217h-6C661-83 550 15 337 20 138 24 42-104 82-302c49-247 238-349 523-354l236-4c9-47 22-94 22-148 0-118-65-155-184-157-151-3-231 57-266 172l-185-17c67-189 220-292 480-292 245 0 377 119 330 364zm-678-27c-21 109 31 185 140 182 176-5 282-102 348-217 37-66 43-123 59-200-145 7-304-9-409 44-71 36-119 96-138 191" id="aK"/><g id="s"><use transform="matrix(0.009765625,0,0,0.009765625,0,0)" xlink:href="#aH"/><use transform="matrix(0.009765625,0,0,0.009765625,12.001953125,0)" xlink:href="#aI"/><use transform="matrix(0.009765625,0,0,0.009765625,24.00390625,0)" xlink:href="#aI"/><use transform="matrix(0.009765625,0,0,0.009765625,36.005859375,0)" xlink:href="#aJ"/><use transform="matrix(0.009765625,0,0,0.009765625,48.0078125,0)" xlink:href="#U"/><use transform="matrix(0.009765625,0,0,0.009765625,60.009765625,0)" xlink:href="#S"/><use transform="matrix(0.009765625,0,0,0.009765625,72.01171875,0)" xlink:href="#aK"/><use transform="matrix(0.009765625,0,0,0.009765625,84.013671875,0)" xlink:href="#T"/><use transform="matrix(0.009765625,0,0,0.009765625,96.015625,0)" xlink:href="#U"/><use transform="matrix(0.009765625,0,0,0.009765625,108.017578125,0)" xlink:href="#V"/><use transform="matrix(0.009765625,0,0,0.009765625,120.01953125,0)" xlink:href="#R"/></g><path d="M779-1349c276-3 478 117 419 404-54 263-252 422-569 431H348L248 0H57l262-1349h460zM631-665c230-6 380-118 380-337 0-148-118-194-285-194H480L377-665h254" id="aL"/><path d="M523-832c93-143 191-271 425-270 69 0 147 7 203 17l-33 167c-114-19-266-34-366 15-148 73-248 213-284 395L369 0H189l136-701c21-116 30-253 22-381h171c8 76 8 174 0 250h5" id="aM"/><g id="t"><use transform="matrix(0.009765625,0,0,0.009765625,0,0)" xlink:href="#aL"/><use transform="matrix(0.009765625,0,0,0.009765625,12.001953125,0)" xlink:href="#aK"/><use transform="matrix(0.009765625,0,0,0.009765625,24.00390625,0)" xlink:href="#aM"/><use transform="matrix(0.009765625,0,0,0.009765625,36.005859375,0)" xlink:href="#T"/><use transform="matrix(0.009765625,0,0,0.009765625,48.0078125,0)" xlink:href="#U"/><use transform="matrix(0.009765625,0,0,0.009765625,60.009765625,0)" xlink:href="#S"/><use transform="matrix(0.009765625,0,0,0.009765625,72.01171875,0)" xlink:href="#Q"/><use transform="matrix(0.009765625,0,0,0.009765625,84.013671875,0)" xlink:href="#aJ"/><use transform="matrix(0.009765625,0,0,0.009765625,96.015625,0)" xlink:href="#aK"/><use transform="matrix(0.009765625,0,0,0.009765625,108.017578125,0)" xlink:href="#aM"/></g><path d="M1031-970c-23-138-92-244-250-244-306 0-381 266-440 533-17 75-25 147-25 229 1 197 73 317 266 317 202 0 293-151 377-282l146 65C986-167 844 20 550 20c-297 0-434-170-434-467 0-413 147-747 446-877 112-49 299-63 420-18 132 49 200 159 229 307" id="aN"/><path d="M726-1102c256 0 385 126 386 379 1 67-11 147-25 220H315c-7 39-13 78-13 121 2 164 74 267 238 267 154 0 260-65 317-166l149 45C916-82 760 20 514 20c-259 0-398-131-398-390 0-357 148-615 421-704 62-20 125-28 189-28zm202 461c22-192-41-335-226-328-212 9-312 142-358 328h584" id="aO"/><path d="M827 0L592-444 183 0H-11l523-556-295-526h199l218 421 380-421h201L716-558 1028 0H827" id="aP"/><g id="u"><use transform="matrix(0.009765625,0,0,0.009765625,0,0)" xlink:href="#aN"/><use transform="matrix(0.009765625,0,0,0.009765625,12.001953125,0)" xlink:href="#V"/><use transform="matrix(0.009765625,0,0,0.009765625,24.00390625,0)" xlink:href="#R"/><use transform="matrix(0.009765625,0,0,0.009765625,36.005859375,0)" xlink:href="#T"/><use transform="matrix(0.009765625,0,0,0.009765625,48.0078125,0)" xlink:href="#aO"/><use transform="matrix(0.009765625,0,0,0.009765625,60.009765625,0)" xlink:href="#aP"/><use transform="matrix(0.009765625,0,0,0.009765625,72.01171875,0)" xlink:href="#T"/></g><g id="v"><use transform="matrix(0.006510416666666667,0,0,0.006510416666666667,0,0)" xlink:href="#at"/><use transform="matrix(0.006510416666666667,0,0,0.006510416666666667,8.001302083333334,0)" xlink:href="#au"/></g><path d="M202-1349h823v156H709v1037h316V0H202v-156h316v-1037H202v-156" id="aQ"/><path d="M865-914c-3-187-2-380-2-570h180v1261c0 76 1 155 6 223H877c-8-49-9-116-10-174h-5C801-44 708 26 530 26c-135 0-234-46-297-139s-95-232-95-419c0-377 131-566 392-566 176 0 271 63 335 184zm-286-51c-222 0-255 197-255 427 0 229 31 425 253 425 237 0 286-195 286-441 0-238-52-411-284-411" id="aR"/><g id="w"><use transform="matrix(0.006510416666666667,0,0,0.006510416666666667,0,0)" xlink:href="#aQ"/><use transform="matrix(0.006510416666666667,0,0,0.006510416666666667,8.001302083333334,0)" xlink:href="#aR"/><use transform="matrix(0.006510416666666667,0,0,0.006510416666666667,16.002604166666668,0)" xlink:href="#az"/><use transform="matrix(0.006510416666666667,0,0,0.006510416666666667,24.00390625,0)" xlink:href="#an"/><use transform="matrix(0.006510416666666667,0,0,0.006510416666666667,32.005208333333336,0)" xlink:href="#ap"/><use transform="matrix(0.006510416666666667,0,0,0.006510416666666667,40.00651041666667,0)" xlink:href="#av"/><use transform="matrix(0.006510416666666667,0,0,0.006510416666666667,48.00781250000001,0)" xlink:href="#ap"/><use transform="matrix(0.006510416666666667,0,0,0.006510416666666667,56.00911458333335,0)" xlink:href="#aA"/></g><g id="x"><use transform="matrix(0.006510416666666667,0,0,0.006510416666666667,0,0)" xlink:href="#aw"/><use transform="matrix(0.006510416666666667,0,0,0.006510416666666667,8.001302083333334,0)" xlink:href="#au"/></g><path d="M650-1214c-281 0-336 244-336 533 0 295 60 546 347 546 188 0 263-142 322-282l159 65C1058-155 935 20 659 20c-401 0-546-295-546-701 0-407 135-689 536-689 264 0 391 146 466 335l-168 65c-47-129-127-244-297-244" id="aS"/><path d="M904-1102c199 0 220 177 220 381V0H956v-686c-3-114 0-215-60-264-70-33-125-4-158 71-26 56-39 140-39 252V0H531v-686c-3-114-1-215-61-264-78-41-136 24-157 84-24 69-39 159-39 259V0H105c-3-360 6-732-6-1082h149c6 50 3 123 8 175 36-100 83-195 216-195 135 0 166 79 196 196 42-105 93-196 236-196" id="aT"/><path d="M873-819c-18-114-119-146-250-146-163 0-245 50-245 151 0 151 170 148 294 185 182 54 388 94 388 320 0 240-189 325-439 329-245 4-410-69-454-268l159-31c24 133 136 168 295 165 144-2 270-31 270-171 0-164-195-160-331-202-167-52-350-87-350-299 0-218 173-315 413-313 220 2 373 77 412 260" id="aU"/><g id="y"><use transform="matrix(0.006510416666666667,0,0,0.006510416666666667,0,0)" xlink:href="#aS"/><use transform="matrix(0.006510416666666667,0,0,0.006510416666666667,8.001302083333334,0)" xlink:href="#aq"/><use transform="matrix(0.006510416666666667,0,0,0.006510416666666667,16.002604166666668,0)" xlink:href="#aT"/><use transform="matrix(0.006510416666666667,0,0,0.006510416666666667,24.00390625,0)" xlink:href="#ay"/><use transform="matrix(0.006510416666666667,0,0,0.006510416666666667,32.005208333333336,0)" xlink:href="#aq"/><use transform="matrix(0.006510416666666667,0,0,0.006510416666666667,40.00651041666667,0)" xlink:href="#aU"/><use transform="matrix(0.006510416666666667,0,0,0.006510416666666667,48.00781250000001,0)" xlink:href="#av"/><use transform="matrix(0.006510416666666667,0,0,0.006510416666666667,56.00911458333335,0)" xlink:href="#ap"/><use transform="matrix(0.006510416666666667,0,0,0.006510416666666667,64.01041666666667,0)" xlink:href="#av"/><use transform="matrix(0.006510416666666667,0,0,0.006510416666666667,72.01171875,0)" xlink:href="#aq"/><use transform="matrix(0.006510416666666667,0,0,0.006510416666666667,80.01302083333333,0)" xlink:href="#an"/></g></defs></g></svg>