<svg width="205" height="205" viewBox="0 0 205 205" fill="none" xmlns="http://www.w3.org/2000/svg">
<circle cx="102.5" cy="102.5" r="102.5" fill="#74635B"/>
<path d="M103 116C103 108.268 109.268 102 117 102H191C198.732 102 205 108.268 205 116V191C205 198.732 198.732 205 191 205H117C109.268 205 103 198.732 103 191V116Z" fill="#74635B"/>
<path fill-rule="evenodd" clip-rule="evenodd" d="M197 191C197 194.314 194.314 197 191 197H110H102V205H110H191C198.732 205 205 198.732 205 191V106V98H197V106V191Z" fill="#4F4F4F"/>
<path fill-rule="evenodd" clip-rule="evenodd" d="M103 196.999C102.833 197 102.667 197 102.5 197C50.3091 197 8 154.691 8 102.5C8 50.3091 50.3091 8 102.5 8C153.182 8 194.546 47.8986 196.895 98H197V102.5V142.267C202.152 130.039 205 116.602 205 102.5C205 45.8908 159.109 0 102.5 0C45.8908 0 0 45.8908 0 102.5C0 159.109 45.8908 205 102.5 205C116.602 205 130.039 202.152 142.267 197H103V196.999Z" fill="#4F4F4F"/>
<circle cx="102.5" cy="102.5" r="58.5" stroke="#DACFBF" stroke-width="18"/>
<circle cx="170" cy="170" r="9" stroke="#DACFBF" stroke-width="18"/>
</svg>
