<svg xmlns="http://www.w3.org/2000/svg" xmlns:xlink="http://www.w3.org/1999/xlink" xmlns:lucid="lucid" width="743" height="250"><g transform="translate(-98 -458)" lucid:page-tab-id="0_0"><path d="M0 0h1870.4v1323.2H0z" fill="#fff"/><path d="M210 660h120v40H210z" stroke="#000" stroke-opacity="0" stroke-width="2" fill="#fff" fill-opacity="0"/><use xlink:href="#a" transform="matrix(1,0,0,1,215,665) translate(38.307291666666664 20.32986111111111)"/><path d="M620 660h120v40H620z" stroke="#000" stroke-opacity="0" stroke-width="2" fill="#fff" fill-opacity="0"/><use xlink:href="#b" transform="matrix(1,0,0,1,625,665) translate(38.307291666666664 20.32986111111111)"/><path d="M560 500h180v60H560z" stroke="#000" fill="#fff"/><use xlink:href="#c" transform="matrix(1,0,0,1,565,505) translate(41.79296875 30.396484375)"/><path d="M360.5 560h176.27" stroke="#000" stroke-width="3" fill="none"/><path d="M360.5 561.5h-.5v-3h.5z"/><path d="M519.34 570.18l17.2-10.18-17.2-10.18" stroke="#000" stroke-width="3" fill="none"/><path d="M180 530h180v60H180z" stroke="#000" fill="#fff"/><use xlink:href="#d" transform="matrix(1,0,0,1,185,535) translate(30.9912109375 14.840928819444443)"/><use xlink:href="#e" transform="matrix(1,0,0,1,185,535) translate(28.990885416666657 30.885850694444443)"/><use xlink:href="#f" transform="matrix(1,0,0,1,185,535) translate(66.33029513888889 30.885850694444443)"/><use xlink:href="#g" transform="matrix(1,0,0,1,185,535) translate(94.33485243055556 30.885850694444443)"/><use xlink:href="#e" transform="matrix(1,0,0,1,185,535) translate(10.321180555555543 46.44140625)"/><use xlink:href="#h" transform="matrix(1,0,0,1,185,535) translate(47.66059027777777 46.44140625)"/><use xlink:href="#i" transform="matrix(1,0,0,1,185,535) translate(75.66514756944444 46.44140625)"/><path d="M580 520h180v60H580z" stroke="#000" fill="#fff"/><use xlink:href="#c" transform="matrix(1,0,0,1,585,525) translate(41.79296875 30.396484375)"/><path d="M600 540h180v60H600z" stroke="#000" fill="#fff"/><use xlink:href="#c" transform="matrix(1,0,0,1,605,545) translate(41.79296875 30.396484375)"/><path d="M620 560h180v60H620z" stroke="#000" fill="#fff"/><use xlink:href="#c" transform="matrix(1,0,0,1,625,565) translate(41.79296875 30.396484375)"/><path d="M540 480h280v160H540z" stroke="#000" fill-opacity="0"/><path d="M600 640h160v40H600z" stroke="#000" stroke-opacity="0" stroke-width="2" fill="#fff" fill-opacity="0"/><use xlink:href="#j" transform="matrix(1,0,0,1,605,645) translate(26.9921875 20.32986111111111)"/><path d="M190 640h160v40H190z" stroke="#000" stroke-opacity="0" stroke-width="2" fill="#fff" fill-opacity="0"/><g><use xlink:href="#k" transform="matrix(1,0,0,1,195,645) translate(21.657986111111114 20.32986111111111)"/></g><path d="M360 560h180v45.56H360z" stroke="#000" stroke-opacity="0" stroke-width="2" fill="#fff" fill-opacity="0"/><g><use xlink:href="#l" transform="matrix(1,0,0,1,365,565) translate(11.263020833333314 23.32986111111111)"/><use xlink:href="#m" transform="matrix(1,0,0,1,365,565) translate(75.27343749999999 23.32986111111111)"/></g><path d="M360 585.56h180v45.55H360z" stroke="#000" stroke-opacity="0" stroke-width="2" fill="#fff" fill-opacity="0"/><g><use xlink:href="#n" transform="matrix(1,0,0,1,365,590.5555555555555) translate(11.263020833333314 23.32986111111111)"/><use xlink:href="#o" transform="matrix(1,0,0,1,365,590.5555555555555) translate(75.27343749999999 23.32986111111111)"/></g><defs><path d="M398-68c23-535 1195-518 1223 0-23 535-1206 546-1223 0zm251-893C541-762 399-614 183-506 132-540 18-643 81-682c262-188 455-410 455-859 0-80 142-17 210-28 17 0 28 6 28 28 0 119-6 228-28 319 91 199 245 358 438 449 57 46-51 108-63 159-11 23-28 28-51 17-171-74-319-216-421-364zm1234-154c51 17 46 193 0 193h-279v410c-17 46-210 51-239 0v-1081c17-63 142-17 210-28 17 0 28 11 28 28v478h279zM643-57c34 284 700 267 740 0-23-296-728-296-740 0" id="p"/><path d="M1542-1593c17-63 142-17 205-28 17 0 28 11 28 28V296c-17 63-142 17-205 28-17 0-28-11-28-28v-967h-182v893c-17 46-193 51-222 0v-1781c23-51 131-11 193-23 17 0 28 6 28 23v694h182v-728zM973-432c74-6 91 176 34 182-154 34-358 57-546 63-171 11-330 11-330-148v-996c6-97 40-119 142-125h597c57 11 17 114 28 171 0 17-11 23-28 23H404c-28 0-40 11-40 34v302l518-6c17 34 23 154-6 182-154 17-336 17-512 17v296c63 137 444 17 609 6" id="q"/><g id="a"><use transform="matrix(0.008680555555555556,0,0,0.008680555555555556,0,0)" xlink:href="#p"/><use transform="matrix(0.008680555555555556,0,0,0.008680555555555556,16.692708333333336,0)" xlink:href="#q"/></g><path d="M1849-575c57 17 51 193 0 193h-774v660c-17 63-142 17-205 28-17 0-28-11-28-28v-660H68c-51-6-23-108-28-165-6-17 11-34 28-28h1781zm-216-603c-40 569-1303 563-1343 0 40-569 1303-563 1343 0zm-251 0c-57-313-791-307-848 0 51 313 796 307 848 0" id="r"/><path d="M1690 296c-17 63-142 17-210 28-17 0-28-11-28-28v-1889c17-63 142-17 210-28 17 0 28 11 28 28V296zm-438-706c68-11 85 176 28 188-262 57-603 68-910 68-279 0-119-404-159-637 11-250 410-102 631-142 23 0 28-6 28-28v-313c-188-17-415 0-614-6-57 0-17-108-28-165-6-11 17-28 28-23h711c114 0 137 28 137 137v455c6 114-40 131-142 137H478c-17 0-28 11-28 28v324c11 74 159 17 228 34 199-6 398-34 575-57" id="s"/><g id="b"><use transform="matrix(0.008680555555555556,0,0,0.008680555555555556,0,0)" xlink:href="#r"/><use transform="matrix(0.008680555555555556,0,0,0.008680555555555556,16.692708333333336,0)" xlink:href="#s"/></g><path d="M102-681c0-398 126-689 513-689 165 0 291 58 379 174s132 287 132 515c-1 318-88 554-298 657-123 61-317 58-438-3-206-104-288-341-288-654zm749 406c94-160 97-656-5-807-57-85-130-132-231-132-104 0-178 47-234 132-101 153-99 655 1 809 57 89 130 138 232 138 109 0 184-49 237-140" id="t"/><path d="M365-904c58-129 161-200 334-200 130 0 228 46 293 138s98 233 98 420c0 189-34 331-102 425S824 20 698 20c-170 0-275-64-336-184 0 55-3 116-9 164H179c5-68 6-147 6-223v-1261h180c-2 193 4 394-4 580h4zm283 791c221 0 256-197 256-427 0-229-34-425-254-425-236 0-285 195-285 441 0 237 53 411 283 411" id="u"/><path d="M873-819c-18-114-119-146-250-146-163 0-245 50-245 151 0 151 170 148 294 185 182 54 388 94 388 320 0 240-189 325-439 329-245 4-410-69-454-268l159-31c24 133 136 168 295 165 144-2 270-31 270-171 0-164-195-160-331-202-167-52-350-87-350-299 0-218 173-315 413-313 220 2 373 77 412 260" id="v"/><path d="M617-1102c355 0 481 238 477 599H322c5 222 84 388 301 388 144 0 244-59 284-166l158 45C1002-72 854 20 623 20c-342 0-490-220-490-568 0-346 151-554 484-554zm291 461c-18-192-90-328-289-328-194 0-287 128-295 328h584" id="w"/><path d="M839-1102c70 0 148 7 206 17v167c-112-18-268-36-363 15-129 69-208 203-208 395V0H294c-10-367 32-789-52-1082h171c21 75 41 161 48 250h5c67-152 152-270 373-270" id="x"/><path d="M715 0H502L69-1082h202c94 253 197 500 285 758 19 57 36 126 52 183 96-335 234-626 350-941h201" id="y"/><g id="c"><use transform="matrix(0.0087890625,0,0,0.0087890625,0,0)" xlink:href="#t"/><use transform="matrix(0.0087890625,0,0,0.0087890625,10.8017578125,0)" xlink:href="#u"/><use transform="matrix(0.0087890625,0,0,0.0087890625,21.603515625,0)" xlink:href="#v"/><use transform="matrix(0.0087890625,0,0,0.0087890625,32.4052734375,0)" xlink:href="#w"/><use transform="matrix(0.0087890625,0,0,0.0087890625,43.20703125,0)" xlink:href="#x"/><use transform="matrix(0.0087890625,0,0,0.0087890625,54.0087890625,0)" xlink:href="#y"/><use transform="matrix(0.0087890625,0,0,0.0087890625,64.810546875,0)" xlink:href="#w"/><use transform="matrix(0.0087890625,0,0,0.0087890625,75.6123046875,0)" xlink:href="#x"/></g><path d="M615-1370c385 0 542 273 542 691 0 230-47 404-140 522S790 20 615 20C231 20 72-262 72-679c0-419 158-691 543-691zM797-330c77-133 78-564 0-695-44-73-101-113-182-113s-139 40-183 114c-79 133-78 560 0 694 45 77 102 118 183 118s138-41 182-118" id="z"/><path d="M429-1484c1 190-1 388 0 572 54-116 155-191 317-191 300 0 386 257 386 563 0 241-73 429-226 518-49 28-106 42-169 42-162 0-251-81-306-196h-4c-1 59-5 127-15 176H140c4-67 9-153 8-236v-1248h281zm66 648c-93 114-92 466 1 585 35 45 77 79 142 79 64 0 112-31 148-92 69-115 68-440-2-561-39-68-131-111-221-70-25 11-46 32-68 59" id="A"/><path d="M622-916c-112 2-200 14-200 111 0 90 89 101 168 121 234 58 514 77 514 368C1104-4 751 54 434 5 267-21 161-112 121-270l247-37c24 111 113 145 252 141 114-3 226-12 226-124 0-101-103-113-192-134-225-54-490-76-490-351 0-247 201-328 458-328 245 0 413 88 457 292l-249 26c-16-98-92-133-208-131" id="B"/><path d="M1113-274C1038-96 884 20 626 20c-352 0-526-209-526-566 0-358 185-556 530-556 358 0 496 251 499 615H395c5 180 68 319 245 319 102 0 186-45 208-129zM857-663c-6-177-128-307-315-247-94 30-141 121-145 247h460" id="C"/><path d="M875-1102c70 0 148 7 206 17v237c-110-17-267-37-359 15-123 69-192 207-192 395V0H250c-10-367 32-789-52-1082h271c19 69 36 149 46 228h4c52-151 151-250 356-248" id="D"/><path d="M774 0H438L31-1082h297c94 290 200 568 280 872 83-304 194-581 291-872h294" id="E"/><path d="M775-193C708-75 621 20 439 20 226 20 106-93 106-306c0-251 170-341 417-346l223-4c4-143-12-264-148-264-103 0-141 58-150 153l-293-14c37-219 194-321 455-321 263 0 418 130 417 390v392c1 84 5 161 89 160 21 0 42-2 62-6v152c-57 15-108 27-180 26-145 0-202-73-217-205h-6zm-256 17c168 0 234-139 227-325-166 4-347-25-347 173 0 94 33 152 120 152" id="F"/><path d="M794-190h353V0H118v-190h395v-1104H223v-190h571v1294" id="G"/><g id="d"><use transform="matrix(0.0087890625,0,0,0.0087890625,0,0)" xlink:href="#z"/><use transform="matrix(0.0087890625,0,0,0.0087890625,10.8017578125,0)" xlink:href="#A"/><use transform="matrix(0.0087890625,0,0,0.0087890625,21.603515625,0)" xlink:href="#B"/><use transform="matrix(0.0087890625,0,0,0.0087890625,32.4052734375,0)" xlink:href="#C"/><use transform="matrix(0.0087890625,0,0,0.0087890625,43.20703125,0)" xlink:href="#D"/><use transform="matrix(0.0087890625,0,0,0.0087890625,54.0087890625,0)" xlink:href="#E"/><use transform="matrix(0.0087890625,0,0,0.0087890625,64.810546875,0)" xlink:href="#F"/><use transform="matrix(0.0087890625,0,0,0.0087890625,75.6123046875,0)" xlink:href="#A"/><use transform="matrix(0.0087890625,0,0,0.0087890625,86.4140625,0)" xlink:href="#G"/><use transform="matrix(0.0087890625,0,0,0.0087890625,97.2158203125,0)" xlink:href="#C"/></g><path fill="#c92d39" d="M648-963c-190 6-283 138-283 336V0H185v-1484h181c-2 197 6 404-9 587h3c62-120 159-205 339-205 242 0 351 135 350 381V0H868v-695c1-168-57-273-220-268" id="H"/><path fill="#c92d39" d="M1000-272c3 95 12 159 101 161 21 0 41-3 59-7V-6c-44 10-86 16-139 16-141 2-191-84-197-217h-6C748-76 648 20 446 20c-207 0-318-120-318-322 0-266 194-348 454-354l236-4c12-191-40-305-222-305-140 0-220 47-232 172l-188-17c33-204 181-292 423-292 255 0 401 118 401 364v466zm-683-27c0 109 63 184 175 182 166-3 259-96 306-217 24-65 20-120 20-200-232 7-501-28-501 235" id="I"/><path fill="#c92d39" d="M873-819c-18-114-119-146-250-146-163 0-245 50-245 151 0 151 170 148 294 185 182 54 388 94 388 320 0 240-189 325-439 329-245 4-410-69-454-268l159-31c24 133 136 168 295 165 144-2 270-31 270-171 0-164-195-160-331-202-167-52-350-87-350-299 0-218 173-315 413-313 220 2 373 77 412 260" id="J"/><g id="e"><use transform="matrix(0.007595486111111112,0,0,0.007595486111111112,0,0)" xlink:href="#H"/><use transform="matrix(0.007595486111111112,0,0,0.007595486111111112,9.334852430555557,0)" xlink:href="#I"/><use transform="matrix(0.007595486111111112,0,0,0.007595486111111112,18.669704861111114,0)" xlink:href="#J"/></g><path d="M148-1120c216-7 379-89 463-229h166v1204h353V0H157v-145h439v-1021c-79 124-254 184-448 194v-148" id="K"/><path d="M496 0v-299h235V0H496" id="L"/><g id="f"><use transform="matrix(0.007595486111111112,0,0,0.007595486111111112,0,0)" xlink:href="#K"/><use transform="matrix(0.007595486111111112,0,0,0.007595486111111112,9.334852430555557,0)" xlink:href="#L"/></g><path d="M614-1226c-167 1-283 53-283 213 0 183 186 193 334 234 230 63 463 120 463 409 0 286-219 387-518 390C309 23 131-98 79-338l185-37c34 165 149 248 351 246 184-2 324-58 324-238 0-203-207-221-372-266-210-57-422-111-422-377 0-267 201-356 470-360 279-5 430 101 480 324l-188 33c-28-141-121-215-293-213" id="M"/><path d="M682 16c-209 0-323-80-324-285v-671H190v-142h170l58-282h120v282h432v142H538v652c2 114 60 155 182 155 106 0 209-16 297-34v137C921-4 806 16 682 16" id="N"/><path d="M1000-272c3 95 12 159 101 161 21 0 41-3 59-7V-6c-44 10-86 16-139 16-141 2-191-84-197-217h-6C748-76 648 20 446 20c-207 0-318-120-318-322 0-266 194-348 454-354l236-4c12-191-40-305-222-305-140 0-220 47-232 172l-188-17c33-204 181-292 423-292 255 0 401 118 401 364v466zm-683-27c0 109 63 184 175 182 166-3 259-96 306-217 24-65 20-120 20-200-232 7-501-28-501 235" id="O"/><g id="g"><use transform="matrix(0.007595486111111112,0,0,0.007595486111111112,0,0)" xlink:href="#M"/><use transform="matrix(0.007595486111111112,0,0,0.007595486111111112,9.334852430555557,0)" xlink:href="#N"/><use transform="matrix(0.007595486111111112,0,0,0.007595486111111112,18.669704861111114,0)" xlink:href="#O"/><use transform="matrix(0.007595486111111112,0,0,0.007595486111111112,28.00455729166667,0)" xlink:href="#N"/><use transform="matrix(0.007595486111111112,0,0,0.007595486111111112,37.33940972222223,0)" xlink:href="#w"/></g><path d="M611-1370c266 0 451 106 451 368 0 147-77 243-154 327-132 144-316 255-451 395-42 44-75 87-96 134h723V0H144v-117c124-264 387-411 582-603 73-72 151-147 151-271 0-161-104-231-266-231-163 0-249 90-268 238l-184-17c35-233 185-369 452-369" id="P"/><g id="h"><use transform="matrix(0.007595486111111112,0,0,0.007595486111111112,0,0)" xlink:href="#P"/><use transform="matrix(0.007595486111111112,0,0,0.007595486111111112,9.334852430555557,0)" xlink:href="#L"/></g><g id="i"><use transform="matrix(0.007595486111111112,0,0,0.007595486111111112,0,0)" xlink:href="#t"/><use transform="matrix(0.007595486111111112,0,0,0.007595486111111112,9.334852430555557,0)" xlink:href="#u"/><use transform="matrix(0.007595486111111112,0,0,0.007595486111111112,18.669704861111114,0)" xlink:href="#v"/><use transform="matrix(0.007595486111111112,0,0,0.007595486111111112,28.00455729166667,0)" xlink:href="#w"/><use transform="matrix(0.007595486111111112,0,0,0.007595486111111112,37.33940972222223,0)" xlink:href="#x"/><use transform="matrix(0.007595486111111112,0,0,0.007595486111111112,46.674262152777786,0)" xlink:href="#y"/><use transform="matrix(0.007595486111111112,0,0,0.007595486111111112,56.00911458333334,0)" xlink:href="#w"/><use transform="matrix(0.007595486111111112,0,0,0.007595486111111112,65.3439670138889,0)" xlink:href="#x"/><use transform="matrix(0.007595486111111112,0,0,0.007595486111111112,74.67881944444446,0)" xlink:href="#v"/></g><g id="j"><use transform="matrix(0.008680555555555556,0,0,0.008680555555555556,0,0)" xlink:href="#z"/><use transform="matrix(0.008680555555555556,0,0,0.008680555555555556,10.668402777777779,0)" xlink:href="#A"/><use transform="matrix(0.008680555555555556,0,0,0.008680555555555556,21.336805555555557,0)" xlink:href="#B"/><use transform="matrix(0.008680555555555556,0,0,0.008680555555555556,32.005208333333336,0)" xlink:href="#C"/><use transform="matrix(0.008680555555555556,0,0,0.008680555555555556,42.673611111111114,0)" xlink:href="#D"/><use transform="matrix(0.008680555555555556,0,0,0.008680555555555556,53.34201388888889,0)" xlink:href="#E"/><use transform="matrix(0.008680555555555556,0,0,0.008680555555555556,64.01041666666667,0)" xlink:href="#C"/><use transform="matrix(0.008680555555555556,0,0,0.008680555555555556,74.67881944444446,0)" xlink:href="#D"/><use transform="matrix(0.008680555555555556,0,0,0.008680555555555556,85.34722222222223,0)" xlink:href="#B"/></g><g id="k"><use transform="matrix(0.008680555555555556,0,0,0.008680555555555556,0,0)" xlink:href="#z"/><use transform="matrix(0.008680555555555556,0,0,0.008680555555555556,10.668402777777779,0)" xlink:href="#A"/><use transform="matrix(0.008680555555555556,0,0,0.008680555555555556,21.336805555555557,0)" xlink:href="#B"/><use transform="matrix(0.008680555555555556,0,0,0.008680555555555556,32.005208333333336,0)" xlink:href="#C"/><use transform="matrix(0.008680555555555556,0,0,0.008680555555555556,42.673611111111114,0)" xlink:href="#D"/><use transform="matrix(0.008680555555555556,0,0,0.008680555555555556,53.34201388888889,0)" xlink:href="#E"/><use transform="matrix(0.008680555555555556,0,0,0.008680555555555556,64.01041666666667,0)" xlink:href="#F"/><use transform="matrix(0.008680555555555556,0,0,0.008680555555555556,74.67881944444446,0)" xlink:href="#A"/><use transform="matrix(0.008680555555555556,0,0,0.008680555555555556,85.34722222222223,0)" xlink:href="#G"/><use transform="matrix(0.008680555555555556,0,0,0.008680555555555556,96.015625,0)" xlink:href="#C"/></g><path d="M616-1349c316 3 526 118 526 426 0 301-201 442-514 447H431V0H136v-1349h480zm-25 646c164 1 254-62 254-215 0-157-99-200-262-202H431v417h160" id="Q"/><path d="M471 20c-247 0-336-169-336-415v-687h281v607c4 148 31 285 172 285 152 0 207-150 207-312v-580h281c4 359-9 736 8 1082H816c-7-63-11-146-12-215h-5C736-76 644 20 471 20" id="R"/><path d="M424-1484c-2 206 5 424-8 618h4c67-145 160-234 348-236 251-3 335 167 336 416V0H824v-621c0-150-23-276-173-270-163 7-227 142-227 312V0H143v-1484h281" id="S"/><path d="M470 0v-305h289V0H470zm0-780v-305h289v305H470" id="T"/><g id="l"><use transform="matrix(0.008680555555555556,0,0,0.008680555555555556,0,0)" xlink:href="#Q"/><use transform="matrix(0.008680555555555556,0,0,0.008680555555555556,10.668402777777779,0)" xlink:href="#R"/><use transform="matrix(0.008680555555555556,0,0,0.008680555555555556,21.336805555555557,0)" xlink:href="#B"/><use transform="matrix(0.008680555555555556,0,0,0.008680555555555556,32.005208333333336,0)" xlink:href="#S"/><use transform="matrix(0.008680555555555556,0,0,0.008680555555555556,42.673611111111114,0)" xlink:href="#T"/></g><path d="M649-1559c273 0 484 165 484 449 0 279-199 444-484 444-279 0-472-159-472-444 0-290 193-449 472-449zm944 1735c40 0 28 51 28 91 0 11-17 23-28 23H563C375 313 409 142 409-17c0-125 34-142 159-148h819c85 17 34-102 46-165 6-40-6-46-40-46H432c-40 0-28-57-28-97 0-11 17-23 28-23h984c182-23 159 142 159 307 0 125-40 137-165 142H591c-74-6-34 108-46 171 0 34 11 51 46 51h1001zM649-796c210 0 341-119 341-313 0-199-137-319-341-319-205 0-330 114-330 319 0 199 125 307 330 313zm1240-342c0 40 11 97-28 97h-284v404c0 46-74 23-114 28-17 0-28-11-28-28v-933c0-51 68-28 114-34 17 0 28 17 28 34v404h284c17-6 34 11 28 28" id="U"/><path d="M398-762c-40 0-40 6-46 46v375c0 34 17 46 46 46 279 6 506-17 740-68 40-11 40 51 46 85 0 17 0 34-23 40-233 51-506 63-791 63-262 0-142-347-159-563-23-256 370-148 580-148 40 0 40-6 46-46v-347c6-46-11-46-46-46H251c-46 6-23-63-28-102 0-11 23-23 28-23h563c256-23 148 330 165 540 17 250-364 148-580 148zm1110-336v-472c0-51 68-28 114-34 17 0 28 17 28 34V256c0 46-74 23-114 28-17 0-28-11-28-28v-779h-381c-40 0-17-63-23-97 0-17 6-23 23-23h381v-336h-381c-40 0-17-63-23-97 0-17 6-23 23-23h381" id="V"/><path d="M1576 142c-6 108-34 131-154 131H495c-279 11-108-427-154-660 6-34 142-40 142 0v188h950c6-102-46-250 119-210 11-6 28 11 23 23v529zM267-887c-51 11-40-46-57-80-6-23 0-34 17-34 398-63 774-199 1052-375 40-23 40-51-6-57H386c-46 6-23-63-28-97 0-17 11-23 28-23h939c210 0 245 80 114 205-80 74-171 137-284 188l552 131c46 17-6 119-46 114l-666-171c-216 85-461 159-728 199zm763 273c-23 114 74 330-114 290-63-46-17-199-28-290H92c-34 0-28-57-28-97-6-17 11-34 28-28h1741c46-6 34 51 34 97 0 11-23 28-34 28h-802zm358 768c91 0 28-154 46-228H484c11 80-40 228 51 228h853" id="W"/><path d="M1650 256c0 46-74 23-114 28-17 0-28-11-28-28v-1826c0-51 68-28 114-34 17 0 28 17 28 34V256zM404-461c11 102 176 34 267 57l654-74c46-11 40 51 51 85-176 125-631 114-950 114-119 0-165-57-165-171v-1007c0-46 74-23 114-28 17 0 28 11 28 28v996" id="X"/><path d="M336-432c11 102 165 34 256 51l643-80c51-11 40 51 51 85-182 119-614 108-933 119-125 0-154-51-159-171v-876c6-119 40-148 159-148h700c46 0 23 63 28 102 0 17-11 23-28 23H376c-40 0-40 6-40 46v848zm1553-370c0 40 11 102-28 97h-284v961c0 46-74 23-114 28-17 0-28-11-28-28v-1826c0-51 68-28 114-34 17 0 28 17 28 34v745c102 11 262-28 313 23" id="Y"/><g id="m"><use transform="matrix(0.008680555555555556,0,0,0.008680555555555556,0,0)" xlink:href="#U"/><use transform="matrix(0.008680555555555556,0,0,0.008680555555555556,16.692708333333336,0)" xlink:href="#V"/><use transform="matrix(0.008680555555555556,0,0,0.008680555555555556,33.38541666666667,0)" xlink:href="#W"/><use transform="matrix(0.008680555555555556,0,0,0.008680555555555556,50.07812500000001,0)" xlink:href="#X"/><use transform="matrix(0.008680555555555556,0,0,0.008680555555555556,66.77083333333334,0)" xlink:href="#Y"/></g><g id="n"><use transform="matrix(0.008680555555555556,0,0,0.008680555555555556,0,0)" xlink:href="#Q"/><use transform="matrix(0.008680555555555556,0,0,0.008680555555555556,10.668402777777779,0)" xlink:href="#R"/><use transform="matrix(0.008680555555555556,0,0,0.008680555555555556,21.336805555555557,0)" xlink:href="#G"/><use transform="matrix(0.008680555555555556,0,0,0.008680555555555556,32.005208333333336,0)" xlink:href="#G"/><use transform="matrix(0.008680555555555556,0,0,0.008680555555555556,42.673611111111114,0)" xlink:href="#T"/></g><path d="M637-1479c358 0 495 302 495 660 0 347-137 654-495 654-364 0-484-313-484-654 0-353 119-660 484-660zm0 1183c472 0 472-1052 0-1052-267 0-336 262-336 523 0 262 68 529 336 529zm1252-506c0 40 11 102-28 97h-284v961c0 46-74 23-114 28-17 0-28-11-28-28v-1826c0-51 68-28 114-34 17 0 28 17 28 34v745c102 11 262-28 313 23" id="Z"/><path d="M1564-996c11 233-347 97-535 131v188h802c46-6 34 51 34 97 0 11-17 28-34 23H90c-40 6-28-57-28-97-6-11 17-28 28-23h796v-188c-199-28-529 97-529-142v-563c-6-46 68-23 114-28 51 34 11 171 23 250h933c17-108-63-290 114-250 11-6 28 17 23 28v575zm12 1138c-6 108-34 131-154 131H495c-114 6-148-40-154-142v-540c6-34 142-40 142 0v199h950c11-108-51-262 119-222 11-6 28 11 23 23v552zM1377-984c97 0 34-165 51-245H495c17 85-46 245 51 245h831zm11 1138c91 0 28-159 46-239H484c17 80-40 239 51 239h853" id="aa"/><g id="o"><use transform="matrix(0.008680555555555556,0,0,0.008680555555555556,0,0)" xlink:href="#U"/><use transform="matrix(0.008680555555555556,0,0,0.008680555555555556,16.692708333333336,0)" xlink:href="#Z"/><use transform="matrix(0.008680555555555556,0,0,0.008680555555555556,33.38541666666667,0)" xlink:href="#aa"/><use transform="matrix(0.008680555555555556,0,0,0.008680555555555556,50.07812500000001,0)" xlink:href="#X"/><use transform="matrix(0.008680555555555556,0,0,0.008680555555555556,66.77083333333334,0)" xlink:href="#Y"/></g></defs></g></svg>