<svg xmlns="http://www.w3.org/2000/svg" xmlns:xlink="http://www.w3.org/1999/xlink" xmlns:lucid="lucid" width="741" height="313"><g transform="translate(-989 -304)" lucid:page-tab-id="ZF~YElThioYa"><path d="M0 0h1870.4v1323.2H0z" fill="#fff"/><path d="M1060 578.88h220v27.78h-220z" stroke="#000" stroke-opacity="0" stroke-width="2" fill="#fff" fill-opacity="0"/><use xlink:href="#a" transform="matrix(1,0,0,1,1065,583.8820389970044) translate(9.484374999999986 14.32986111111111)"/><use xlink:href="#b" transform="matrix(1,0,0,1,1065,583.8820389970044) translate(30.821180555555543 14.32986111111111)"/><use xlink:href="#c" transform="matrix(1,0,0,1,1065,583.8820389970044) translate(116.16840277777777 14.32986111111111)"/><use xlink:href="#d" transform="matrix(1,0,0,1,1065,583.8820389970044) translate(148.1736111111111 14.32986111111111)"/><use xlink:href="#e" transform="matrix(1,0,0,1,1065,583.8820389970044) translate(169.51041666666669 14.32986111111111)"/><path d="M1400 460.18h140v99.16h-140z" stroke="#000" fill="#fff"/><use xlink:href="#f" transform="matrix(1,0,0,1,1405,465.1835529487514) translate(37.99560546875 23.396484375)"/><use xlink:href="#g" transform="matrix(1,0,0,1,1405,465.1835529487514) translate(81.20263671875 23.396484375)"/><use xlink:href="#h" transform="matrix(1,0,0,1,1405,465.1835529487514) translate(65 41.396484375)"/><use xlink:href="#h" transform="matrix(1,0,0,1,1405,465.1835529487514) translate(65 59.396484375)"/><use xlink:href="#i" transform="matrix(1,0,0,1,1405,465.1835529487514) translate(65 77.396484375)"/><path d="M1400 320h140v105.07h-140z" stroke="#000" fill="#fff"/><use xlink:href="#f" transform="matrix(1,0,0,1,1405,325) translate(37.99560546875 26.396484375)"/><use xlink:href="#j" transform="matrix(1,0,0,1,1405,325) translate(81.20263671875 26.396484375)"/><use xlink:href="#h" transform="matrix(1,0,0,1,1405,325) translate(65 44.396484375)"/><use xlink:href="#h" transform="matrix(1,0,0,1,1405,325) translate(65 62.396484375)"/><use xlink:href="#i" transform="matrix(1,0,0,1,1405,325) translate(65 80.396484375)"/><path d="M1411.06 372.67h90.55v41.16h-90.54z" stroke="#000" fill="#fff"/><use xlink:href="#k" transform="matrix(1,0,0,1,1416.064221759401,377.6683081085975) translate(3.1605902777777715 20.66362847222222)"/><use xlink:href="#l" transform="matrix(1,0,0,1,1416.064221759401,377.6683081085975) translate(68.50455729166667 20.66362847222222)"/><path d="M1411.06 507.84h90.55V549h-90.54z" stroke="#000" fill="#fff"/><use xlink:href="#k" transform="matrix(1,0,0,1,1416.064221759401,512.8416171443691) translate(3.1605902777777715 20.66362847222222)"/><use xlink:href="#m" transform="matrix(1,0,0,1,1416.064221759401,512.8416171443691) translate(68.50455729166667 20.66362847222222)"/><path d="M1520 372.67h80v41.16h-80z" stroke="#000" fill="#fff"/><use xlink:href="#n" transform="matrix(1,0,0,1,1525,377.6683081085975) translate(2.32801649305555 13.996961805555557)"/><use xlink:href="#o" transform="matrix(1,0,0,1,1525,377.6683081085975) translate(58.33713107638889 13.996961805555557)"/><use xlink:href="#p" transform="matrix(1,0,0,1,1525,377.6683081085975) translate(6.995442708333332 27.775173611111114)"/><use xlink:href="#q" transform="matrix(1,0,0,1,1525,377.6683081085975) translate(39.00065104166667 27.775173611111114)"/><use xlink:href="#r" transform="matrix(1,0,0,1,1525,377.6683081085975) translate(55.00325520833333 27.775173611111114)"/><path d="M1520 507.84h80V549h-80z" stroke="#000" fill="#fff"/><use xlink:href="#n" transform="matrix(1,0,0,1,1525,512.8416171443691) translate(2.32801649305555 13.996961805555557)"/><use xlink:href="#s" transform="matrix(1,0,0,1,1525,512.8416171443691) translate(58.33713107638889 13.996961805555557)"/><use xlink:href="#p" transform="matrix(1,0,0,1,1525,512.8416171443691) translate(6.995442708333332 27.775173611111114)"/><use xlink:href="#q" transform="matrix(1,0,0,1,1525,512.8416171443691) translate(39.00065104166667 27.775173611111114)"/><use xlink:href="#t" transform="matrix(1,0,0,1,1525,512.8416171443691) translate(55.00325520833333 27.775173611111114)"/><path d="M1618.4 320h80v239.34h-80z" stroke="#000" fill="#fff"/><use xlink:href="#u" transform="matrix(1,0,0,1,1623.3940684386284,325) translate(13.663194444444443 104.77430555555556)"/><use xlink:href="#v" transform="matrix(1,0,0,1,1623.3940684386284,325) translate(2.9947916666666643 122.55208333333334)"/><use xlink:href="#p" transform="matrix(1,0,0,1,1623.3940684386284,325) translate(6.995442708333332 136.77517361111111)"/><use xlink:href="#q" transform="matrix(1,0,0,1,1623.3940684386284,325) translate(39.00065104166667 136.77517361111111)"/><use xlink:href="#t" transform="matrix(1,0,0,1,1623.3940684386284,325) translate(55.00325520833333 136.77517361111111)"/><path d="M1502.1 393.25h17.4" stroke="#000" stroke-width="3" fill="none"/><path d="M1502.1 394.75h-.5v-3h.5zM1520 394.75h-.5v-3h.5z"/><path d="M1502.1 528.42h17.4" stroke="#000" stroke-width="3" fill="none"/><path d="M1502.1 529.92h-.5v-3h.5zM1520 529.92h-.5v-3h.5z"/><path d="M1617.9 393.25h-17.4" stroke="#000" stroke-width="3" fill="none"/><path d="M1618.4 394.75h-.5v-3h.5zM1600.5 394.75h-.5v-3h.5z"/><path d="M1617.9 528.42h-17.4" stroke="#000" stroke-width="3" fill="none"/><path d="M1618.4 529.92h-.5v-3h.5zM1600.5 529.92h-.5v-3h.5z"/><path d="M1025.8 320h140v239.34h-140z" stroke="#000" fill="#fff"/><g><use xlink:href="#f" transform="matrix(1,0,0,1,1030.8029657806858,325) translate(37.99560546875 30.396484375)"/><use xlink:href="#j" transform="matrix(1,0,0,1,1030.8029657806858,325) translate(81.20263671875 30.396484375)"/><use xlink:href="#h" transform="matrix(1,0,0,1,1030.8029657806858,325) translate(65 48.396484375)"/><use xlink:href="#h" transform="matrix(1,0,0,1,1030.8029657806858,325) translate(65 66.396484375)"/><use xlink:href="#h" transform="matrix(1,0,0,1,1030.8029657806858,325) translate(65 84.396484375)"/><use xlink:href="#h" transform="matrix(1,0,0,1,1030.8029657806858,325) translate(65 102.396484375)"/><use xlink:href="#h" transform="matrix(1,0,0,1,1030.8029657806858,325) translate(65 120.396484375)"/><use xlink:href="#h" transform="matrix(1,0,0,1,1030.8029657806858,325) translate(65 138.396484375)"/><use xlink:href="#h" transform="matrix(1,0,0,1,1030.8029657806858,325) translate(65 156.396484375)"/><use xlink:href="#h" transform="matrix(1,0,0,1,1030.8029657806858,325) translate(65 174.396484375)"/><use xlink:href="#h" transform="matrix(1,0,0,1,1030.8029657806858,325) translate(65 192.396484375)"/><use xlink:href="#i" transform="matrix(1,0,0,1,1030.8029657806858,325) translate(65 210.396484375)"/></g><path d="M1036.87 372.67h90.54v41.16h-90.53z" stroke="#000" fill="#fff"/><g><use xlink:href="#k" transform="matrix(1,0,0,1,1041.867187540087,377.6683081085975) translate(3.1605902777777715 20.66362847222222)"/><use xlink:href="#l" transform="matrix(1,0,0,1,1041.867187540087,377.6683081085975) translate(68.50455729166667 20.66362847222222)"/></g><path d="M1036.87 507.84h90.54V549h-90.53z" stroke="#000" fill="#fff"/><g><use xlink:href="#k" transform="matrix(1,0,0,1,1041.867187540087,512.8416171443691) translate(3.1605902777777715 20.66362847222222)"/><use xlink:href="#m" transform="matrix(1,0,0,1,1041.867187540087,512.8416171443691) translate(68.50455729166667 20.66362847222222)"/></g><path d="M1145.8 434.22h80v41.16h-80z" stroke="#000" fill="#fff"/><g><use xlink:href="#n" transform="matrix(1,0,0,1,1150.8029657806858,439.21810184719345) translate(2.32801649305555 13.996961805555557)"/><use xlink:href="#o" transform="matrix(1,0,0,1,1150.8029657806858,439.21810184719345) translate(58.33713107638889 13.996961805555557)"/><use xlink:href="#p" transform="matrix(1,0,0,1,1150.8029657806858,439.21810184719345) translate(6.995442708333332 27.775173611111114)"/><use xlink:href="#q" transform="matrix(1,0,0,1,1150.8029657806858,439.21810184719345) translate(39.00065104166667 27.775173611111114)"/><use xlink:href="#r" transform="matrix(1,0,0,1,1150.8029657806858,439.21810184719345) translate(55.00325520833333 27.775173611111114)"/></g><path d="M1244.2 320h80v239.34h-80z" stroke="#000" fill="#fff"/><g><use xlink:href="#u" transform="matrix(1,0,0,1,1249.1970342193142,325) translate(13.663194444444443 104.77430555555556)"/><use xlink:href="#v" transform="matrix(1,0,0,1,1249.1970342193142,325) translate(2.9947916666666643 122.55208333333334)"/><use xlink:href="#p" transform="matrix(1,0,0,1,1249.1970342193142,325) translate(6.995442708333332 136.77517361111111)"/><use xlink:href="#q" transform="matrix(1,0,0,1,1249.1970342193142,325) translate(39.00065104166667 136.77517361111111)"/><use xlink:href="#t" transform="matrix(1,0,0,1,1249.1970342193142,325) translate(55.00325520833333 136.77517361111111)"/></g><path d="M1127.9 393.25h8.7v61.55h8.7" stroke="#000" stroke-width="3" fill="none"/><path d="M1128.8 392.03l-1.4 1.9v-2.9zM1145.8 457l-1.38-1 1.38-1.9z"/><path d="M1127.9 528.42h8.7V454.8h8.7" stroke="#000" stroke-width="3" fill="none"/><path d="M1128.8 529.63l-1.4 1v-2.9zM1145.8 455.5l-1.38-1.92 1.38-1z"/><path d="M1243.7 454.8h-17.4" stroke="#000" stroke-width="3" fill="none"/><path d="M1244.2 456.3h-.5v-3h.5zM1226.3 456.3h-.5v-3h.5z"/><path d="M1559.33 489.52" stroke="#000" stroke-width="3" fill="none"/><path/><path/><g><path d="M1604.33 429.52v60h-90v-60z" stroke="#000" stroke-opacity="0" stroke-width="2" fill="#fff" fill-opacity="0"/></g><g><use xlink:href="#w" transform="matrix(6.123233995736766e-17,1,-1,6.123233995736766e-17,1599.3290839643703,434.5216895977858) translate(6.759259259259256 53.833333333333336)"/></g><path d="M1440 570h220v45.55h-220z" stroke="#000" stroke-opacity="0" stroke-width="2" fill="#fff" fill-opacity="0"/><g><use xlink:href="#a" transform="matrix(1,0,0,1,1445,574.9931501081155) translate(4.1501736111111 23.32986111111111)"/><use xlink:href="#b" transform="matrix(1,0,0,1,1445,574.9931501081155) translate(25.486979166666657 23.32986111111111)"/><use xlink:href="#c" transform="matrix(1,0,0,1,1445,574.9931501081155) translate(110.83420138888889 23.32986111111111)"/><use xlink:href="#x" transform="matrix(1,0,0,1,1445,574.9931501081155) translate(142.83940972222223 23.32986111111111)"/><use xlink:href="#y" transform="matrix(1,0,0,1,1445,574.9931501081155) translate(164.17621527777777 23.32986111111111)"/></g><defs><path d="M611-1370c266 0 451 106 451 368 0 147-77 243-154 327-132 144-316 255-451 395-42 44-75 87-96 134h723V0H144v-117c124-264 387-411 582-603 73-72 151-147 151-271 0-161-104-231-266-231-163 0-249 90-268 238l-184-17c35-233 185-369 452-369" id="z"/><use transform="matrix(0.008680555555555556,0,0,0.008680555555555556,0,0)" xlink:href="#z" id="a"/><path d="M709-1193V0H519v-1193H76v-156h1076v156H709" id="A"/><path d="M648-963c-190 6-283 138-283 336V0H185v-1484h181c-2 197 6 404-9 587h3c62-120 159-205 339-205 242 0 351 135 350 381V0H868v-695c1-168-57-273-220-268" id="B"/><path d="M839-1102c70 0 148 7 206 17v167c-112-18-268-36-363 15-129 69-208 203-208 395V0H294c-10-367 32-789-52-1082h171c21 75 41 161 48 250h5c67-152 152-270 373-270" id="C"/><path d="M617-1102c355 0 481 238 477 599H322c5 222 84 388 301 388 144 0 244-59 284-166l158 45C1002-72 854 20 623 20c-342 0-490-220-490-568 0-346 151-554 484-554zm291 461c-18-192-90-328-289-328-194 0-287 128-295 328h584" id="D"/><path d="M1000-272c3 95 12 159 101 161 21 0 41-3 59-7V-6c-44 10-86 16-139 16-141 2-191-84-197-217h-6C748-76 648 20 446 20c-207 0-318-120-318-322 0-266 194-348 454-354l236-4c12-191-40-305-222-305-140 0-220 47-232 172l-188-17c33-204 181-292 423-292 255 0 401 118 401 364v466zm-683-27c0 109 63 184 175 182 166-3 259-96 306-217 24-65 20-120 20-200-232 7-501-28-501 235" id="E"/><path d="M865-914c-3-187-2-380-2-570h180v1261c0 76 1 155 6 223H877c-8-49-9-116-10-174h-5C801-44 708 26 530 26c-135 0-234-46-297-139s-95-232-95-419c0-377 131-566 392-566 176 0 271 63 335 184zm-286-51c-222 0-255 197-255 427 0 229 31 425 253 425 237 0 286-195 286-441 0-238-52-411-284-411" id="F"/><path d="M873-819c-18-114-119-146-250-146-163 0-245 50-245 151 0 151 170 148 294 185 182 54 388 94 388 320 0 240-189 325-439 329-245 4-410-69-454-268l159-31c24 133 136 168 295 165 144-2 270-31 270-171 0-164-195-160-331-202-167-52-350-87-350-299 0-218 173-315 413-313 220 2 373 77 412 260" id="G"/><g id="b"><use transform="matrix(0.008680555555555556,0,0,0.008680555555555556,0,0)" xlink:href="#A"/><use transform="matrix(0.008680555555555556,0,0,0.008680555555555556,10.668402777777779,0)" xlink:href="#B"/><use transform="matrix(0.008680555555555556,0,0,0.008680555555555556,21.336805555555557,0)" xlink:href="#C"/><use transform="matrix(0.008680555555555556,0,0,0.008680555555555556,32.005208333333336,0)" xlink:href="#D"/><use transform="matrix(0.008680555555555556,0,0,0.008680555555555556,42.673611111111114,0)" xlink:href="#E"/><use transform="matrix(0.008680555555555556,0,0,0.008680555555555556,53.34201388888889,0)" xlink:href="#F"/><use transform="matrix(0.008680555555555556,0,0,0.008680555555555556,64.01041666666667,0)" xlink:href="#G"/></g><path d="M615-1102c343 0 484 203 482 560-1 347-147 562-488 562-336 0-475-219-479-562-4-349 156-560 485-560zm-8 989c240 0 301-180 301-429 0-245-55-427-290-427-236 0-299 181-299 427 0 243 61 429 288 429" id="H"/><path d="M706-1102c241 0 344 136 343 381V0H868v-695c1-168-57-273-220-268-190 6-283 138-283 336V0H185c-3-360 6-732-6-1082h170c4 54 7 126 8 185h3c63-121 164-204 346-205" id="I"/><g id="c"><use transform="matrix(0.008680555555555556,0,0,0.008680555555555556,0,0)" xlink:href="#H"/><use transform="matrix(0.008680555555555556,0,0,0.008680555555555556,10.668402777777779,0)" xlink:href="#I"/></g><path d="M148-1120c216-7 379-89 463-229h166v1204h353V0H157v-145h439v-1021c-79 124-254 184-448 194v-148" id="J"/><use transform="matrix(0.008680555555555556,0,0,0.008680555555555556,0,0)" xlink:href="#J" id="d"/><path d="M650-1214c-281 0-336 244-336 533 0 295 60 546 347 546 188 0 263-142 322-282l159 65C1058-155 935 20 659 20c-401 0-546-295-546-701 0-407 135-689 536-689 264 0 391 146 466 335l-168 65c-47-129-127-244-297-244" id="K"/><path d="M622-1349c296 4 497 117 497 404 0 282-193 424-485 431H353V0H162v-1349h460zm-15 684c195-3 320-88 320-277 0-184-129-255-328-254H353v531h254" id="L"/><path d="M604-135c236 0 291-142 291-376v-838h190v859c5 340-142 510-480 510-326 0-463-164-463-492v-877h191v851c-3 222 46 363 271 363" id="M"/><g id="e"><use transform="matrix(0.008680555555555556,0,0,0.008680555555555556,0,0)" xlink:href="#K"/><use transform="matrix(0.008680555555555556,0,0,0.008680555555555556,10.668402777777779,0)" xlink:href="#L"/><use transform="matrix(0.008680555555555556,0,0,0.008680555555555556,21.336805555555557,0)" xlink:href="#M"/></g><g id="f"><use transform="matrix(0.0087890625,0,0,0.0087890625,0,0)" xlink:href="#K"/><use transform="matrix(0.0087890625,0,0,0.0087890625,10.8017578125,0)" xlink:href="#L"/><use transform="matrix(0.0087890625,0,0,0.0087890625,21.603515625,0)" xlink:href="#M"/></g><use transform="matrix(0.0087890625,0,0,0.0087890625,0,0)" xlink:href="#z" id="g"/><use transform="matrix(0.0087890625,0,0,0.0087890625,0,0)" xlink:href="#J" id="j"/><g id="k"><use transform="matrix(0.007595486111111112,0,0,0.007595486111111112,0,0)" xlink:href="#A"/><use transform="matrix(0.007595486111111112,0,0,0.007595486111111112,9.334852430555557,0)" xlink:href="#B"/><use transform="matrix(0.007595486111111112,0,0,0.007595486111111112,18.669704861111114,0)" xlink:href="#C"/><use transform="matrix(0.007595486111111112,0,0,0.007595486111111112,28.00455729166667,0)" xlink:href="#D"/><use transform="matrix(0.007595486111111112,0,0,0.007595486111111112,37.33940972222223,0)" xlink:href="#E"/><use transform="matrix(0.007595486111111112,0,0,0.007595486111111112,46.674262152777786,0)" xlink:href="#F"/></g><use transform="matrix(0.007595486111111112,0,0,0.007595486111111112,0,0)" xlink:href="#J" id="l"/><use transform="matrix(0.007595486111111112,0,0,0.007595486111111112,0,0)" xlink:href="#z" id="m"/><path d="M631 20c-350 0-501-215-501-562 0-355 162-560 502-560 250 0 399 118 446 323l-192 14c-23-124-109-196-262-196-242 0-305 171-305 415 1 245 61 427 304 427 151 0 248-77 267-215l190 12C1039-107 883 20 631 20" id="N"/><g id="n"><use transform="matrix(0.007595486111111112,0,0,0.007595486111111112,0,0)" xlink:href="#K"/><use transform="matrix(0.007595486111111112,0,0,0.007595486111111112,9.334852430555557,0)" xlink:href="#E"/><use transform="matrix(0.007595486111111112,0,0,0.007595486111111112,18.669704861111114,0)" xlink:href="#N"/><use transform="matrix(0.007595486111111112,0,0,0.007595486111111112,28.00455729166667,0)" xlink:href="#B"/><use transform="matrix(0.007595486111111112,0,0,0.007595486111111112,37.33940972222223,0)" xlink:href="#D"/></g><use transform="matrix(0.007595486111111112,0,0,0.007595486111111112,0,0)" xlink:href="#J" id="o"/><path fill="#c92d39" d="M715 0H502L69-1082h202c94 253 197 500 285 758 19 57 36 126 52 183 96-335 234-626 350-941h201" id="O"/><path fill="#c92d39" d="M1000-272c3 95 12 159 101 161 21 0 41-3 59-7V-6c-44 10-86 16-139 16-141 2-191-84-197-217h-6C748-76 648 20 446 20c-207 0-318-120-318-322 0-266 194-348 454-354l236-4c12-191-40-305-222-305-140 0-220 47-232 172l-188-17c33-204 181-292 423-292 255 0 401 118 401 364v466zm-683-27c0 109 63 184 175 182 166-3 259-96 306-217 24-65 20-120 20-200-232 7-501-28-501 235" id="P"/><path fill="#c92d39" d="M839-1102c70 0 148 7 206 17v167c-112-18-268-36-363 15-129 69-208 203-208 395V0H294c-10-367 32-789-52-1082h171c21 75 41 161 48 250h5c67-152 152-270 373-270" id="Q"/><g id="p"><use transform="matrix(0.006510416666666667,0,0,0.006510416666666667,0,0)" xlink:href="#O"/><use transform="matrix(0.006510416666666667,0,0,0.006510416666666667,8.001302083333334,0)" xlink:href="#P"/><use transform="matrix(0.006510416666666667,0,0,0.006510416666666667,16.002604166666668,0)" xlink:href="#Q"/></g><path fill="#c92d39" d="M116-856v-148h995v148H116zm0 512v-148h995v148H116" id="R"/><use transform="matrix(0.006510416666666667,0,0,0.006510416666666667,0,0)" xlink:href="#R" id="q"/><path fill="#c92d39" d="M148-1120c216-7 379-89 463-229h166v1204h353V0H157v-145h439v-1021c-79 124-254 184-448 194v-148" id="S"/><use transform="matrix(0.006510416666666667,0,0,0.006510416666666667,0,0)" xlink:href="#S" id="r"/><use transform="matrix(0.007595486111111112,0,0,0.007595486111111112,0,0)" xlink:href="#z" id="s"/><path fill="#c92d39" d="M1065-1013c47 164 49 500-1 665C999-130 875 20 611 20c-377 0-484-300-487-695-2-245 41-425 141-551 77-98 191-144 352-144 261 0 386 140 448 357zM741-155c199-92 203-504 159-785-26-168-96-284-283-284-281 0-308 256-311 549-2 181 18 324 80 428 46 77 115 118 227 120 47 0 90-10 128-28zM496-555v-249h235v249H496" id="T"/><use transform="matrix(0.006510416666666667,0,0,0.006510416666666667,0,0)" xlink:href="#T" id="t"/><path d="M285-1169c8 382 2 780 4 1169H129v-1349h237c86 239 188 461 253 720 69-258 169-481 255-720h225V0H937c2-390-5-788 6-1169-75 255-170 488-259 729H547c-90-240-185-475-262-729" id="U"/><path d="M745-142h380V0H143v-142h422v-798H246v-142h499v940zM545-1292v-192h200v192H545" id="V"/><g id="u"><use transform="matrix(0.008680555555555556,0,0,0.008680555555555556,0,0)" xlink:href="#U"/><use transform="matrix(0.008680555555555556,0,0,0.008680555555555556,10.668402777777779,0)" xlink:href="#E"/><use transform="matrix(0.008680555555555556,0,0,0.008680555555555556,21.336805555555557,0)" xlink:href="#V"/><use transform="matrix(0.008680555555555556,0,0,0.008680555555555556,32.005208333333336,0)" xlink:href="#I"/></g><path d="M904-1102c199 0 220 177 220 381V0H956v-686c-3-114 0-215-60-264-70-33-125-4-158 71-26 56-39 140-39 252V0H531v-686c-3-114-1-215-61-264-78-41-136 24-157 84-24 69-39 159-39 259V0H105c-3-360 6-732-6-1082h149c6 50 3 123 8 175 36-100 83-195 216-195 135 0 166 79 196 196 42-105 93-196 236-196" id="W"/><path d="M168 279c222 39 310-114 368-290L66-1082h192c120 299 249 590 362 896 115-301 235-597 351-896h190L705 0c-65 164-130 320-275 396-67 36-177 35-262 18V279" id="X"/><g id="v"><use transform="matrix(0.008680555555555556,0,0,0.008680555555555556,0,0)" xlink:href="#U"/><use transform="matrix(0.008680555555555556,0,0,0.008680555555555556,10.668402777777779,0)" xlink:href="#D"/><use transform="matrix(0.008680555555555556,0,0,0.008680555555555556,21.336805555555557,0)" xlink:href="#W"/><use transform="matrix(0.008680555555555556,0,0,0.008680555555555556,32.005208333333336,0)" xlink:href="#H"/><use transform="matrix(0.008680555555555556,0,0,0.008680555555555556,42.673611111111114,0)" xlink:href="#C"/><use transform="matrix(0.008680555555555556,0,0,0.008680555555555556,53.34201388888889,0)" xlink:href="#X"/></g><path fill="#333" d="M79-60L52-10H27l26-50H11v-26h55l33-64H11v-26h101l27-52h25l-26 52h48v26h-61L91-86h95v26H79" id="Y"/><use transform="matrix(0.1851851851851852,0,0,0.1851851851851852,0,0)" xlink:href="#Y" id="w"/><use transform="matrix(0.008680555555555556,0,0,0.008680555555555556,0,0)" xlink:href="#z" id="x"/><g id="y"><use transform="matrix(0.008680555555555556,0,0,0.008680555555555556,0,0)" xlink:href="#K"/><use transform="matrix(0.008680555555555556,0,0,0.008680555555555556,10.668402777777779,0)" xlink:href="#L"/><use transform="matrix(0.008680555555555556,0,0,0.008680555555555556,21.336805555555557,0)" xlink:href="#M"/><use transform="matrix(0.008680555555555556,0,0,0.008680555555555556,32.005208333333336,0)" xlink:href="#G"/></g></defs></g></svg>