<svg xmlns="http://www.w3.org/2000/svg" xmlns:xlink="http://www.w3.org/1999/xlink" xmlns:lucid="lucid" width="1057" height="329"><g transform="translate(-87 -1363)" lucid:page-tab-id="n1pXkfntTfIS"><path d="M0 0h1870.4v2582.4H0z" fill="#fff"/><path d="M83.04 1360h1062.98v340H83.04z" stroke="#000" stroke-width="2" fill-opacity="0"/><path d="M241.5 1400h740v240h-740z" stroke="#000" stroke-width="2" fill-opacity="0"/><path d="M382.97 1436.66h35.54v40h-35.53z" stroke="#000" stroke-opacity="0" stroke-width="2" fill="#fff" fill-opacity="0"/><use xlink:href="#a" transform="matrix(1,0,0,1,387.97441624730396,1441.6633777968773) translate(5.665473090277777 22.32855902777778)"/><path d="M800.6 1482.47h35.53v40H800.6z" stroke="#000" stroke-opacity="0" stroke-width="2" fill="#fff" fill-opacity="0"/><use xlink:href="#b" transform="matrix(1,0,0,1,805.5935885630449,1487.474407040469) translate(-65.0126953125 20.99609375)"/><path d="M419.86 1405.5h380.28v50H419.86z" stroke="#000" stroke-opacity="0" stroke-width="2" fill="#fff" fill-opacity="0"/><use xlink:href="#c" transform="matrix(1,0,0,1,424.85687098877133,1410.5066203694187) translate(35.4755859375 25.99609375)"/><path d="M338.5 1456.66h124.47v40H338.5z" stroke="#000" stroke-opacity="0" stroke-width="2" fill="#fff" fill-opacity="0"/><use xlink:href="#d" transform="matrix(1,0,0,1,343.5074111711617,1461.6633777968773) translate(36.16319444444444 20.32986111111111)"/><path d="M550.8 1360h124.47v40H550.8z" stroke="#000" stroke-opacity="0" stroke-width="2" fill="#fff" fill-opacity="0"/><use xlink:href="#e" transform="matrix(1,0,0,1,555.8044621847489,1365) translate(9.4921875 20.99609375)"/><path d="M785.86 1426.66h64.46v60h-64.46z" stroke="#0c7cba" stroke-width="2" fill-opacity="0"/><path d="M800.5 1436.66h35.54v40H800.5z" stroke="#000" stroke-opacity="0" stroke-width="2" fill="#fff" fill-opacity="0"/><use xlink:href="#a" transform="matrix(1,0,0,1,805.503839266856,1441.6633777968773) translate(5.665473090277777 22.32855902777778)"/><path d="M419.5 1456.66l348.14-1.1" stroke="#000" stroke-width="2" fill="none"/><path d="M419.54 1457.66h-1.03v-2h1.03z"/><path d="M782.9 1455.52l-14.25 4.68-.03-9.27z" stroke="#000" stroke-width="2"/><path d="M339.6 1583.42h151.87v40H339.6z" stroke="#000" stroke-opacity="0" stroke-width="2" fill="#fff" fill-opacity="0"/><use xlink:href="#f" transform="matrix(1,0,0,1,344.6009457558135,1588.4189702005335) translate(28.9931640625 20.99609375)"/><path d="M503.53 1582.5h-103v-77.03" stroke="#000" stroke-width="2" fill="none"/><path d="M504.53 1583.5h-1.02v-2h1.03z"/><path d="M400.54 1490.2l4.63 14.27h-9.27z" stroke="#000" stroke-width="2"/><path d="M466.12 1507.5h272.23v50H466.12z" stroke="#000" stroke-opacity="0" stroke-width="2" fill="#fff" fill-opacity="0"/><use xlink:href="#b" transform="matrix(1,0,0,1,471.11675126901935,1512.5) translate(53.4873046875 25.99609375)"/><path d="M570 1552.5h64.47v60H570zM634.47 1552.5h64.46v60h-64.46zM505.53 1552.5H570v60h-64.47z" stroke="#0c7cba" stroke-width="2" fill-opacity="0"/><path d="M852.32 1456.66H1030v125.84H718.44" stroke="#000" stroke-width="2" fill="none"/><path d="M852.35 1457.66h-1.03v-2h1.03z"/><path d="M703.17 1582.5l14.27-4.64v9.28z" stroke="#000" stroke-width="2"/><path d="M757.62 1577.74h312.77v50H757.6z" stroke="#000" stroke-opacity="0" stroke-width="2" fill="#fff" fill-opacity="0"/><use xlink:href="#g" transform="matrix(1,0,0,1,762.6161540899302,1582.7401962478025) translate(11.1484375 25.99609375)"/><use xlink:href="#h" transform="matrix(1,0,0,1,762.6161540899302,1582.7401962478025) translate(254.29296875 25.99609375)"/><path d="M241.5 1640h740v50h-740z" stroke="#000" stroke-opacity="0" stroke-width="2" fill="#fff" fill-opacity="0"/><use xlink:href="#i" transform="matrix(1,0,0,1,246.49258882883828,1645) translate(30.5048828125 25.99609375)"/><use xlink:href="#j" transform="matrix(1,0,0,1,246.49258882883828,1645) translate(273.6494140625 25.99609375)"/><use xlink:href="#k" transform="matrix(1,0,0,1,246.49258882883828,1645) translate(316.4326171875 25.99609375)"/><defs><path fill="#19967d" d="M709-1193V0H519v-1193H76v-156h1076v156H709" id="l"/><use transform="matrix(0.01193576388888889,0,0,0.01193576388888889,0,0)" xlink:href="#l" id="a"/><path fill="#0c7cba" d="M1031-970c-23-138-92-244-250-244-306 0-381 266-440 533-17 75-25 147-25 229 1 197 73 317 266 317 202 0 293-151 377-282l146 65C986-167 844 20 550 20c-297 0-434-170-434-467 0-413 147-747 446-877 112-49 299-63 420-18 132 49 200 159 229 307" id="m"/><path fill="#0c7cba" d="M724-1102c292 0 423 159 388 460-35 307-154 537-400 628-65 24-136 34-212 34-254-2-388-131-388-387 0-255 97-480 226-595 103-92 231-140 386-140zM381-747C294-559 211-98 524-113c294-14 359-254 399-525 28-194-32-337-222-331-174 5-260 94-320 222" id="n"/><path fill="#0c7cba" d="M659-142h380L1011 0H29l28-142h422l233-1200H423l27-142h469" id="o"/><path fill="#0c7cba" d="M726-1102c256 0 385 126 386 379 1 67-11 147-25 220H315c-7 39-13 78-13 121 2 164 74 267 238 267 154 0 260-65 317-166l149 45C916-82 760 20 514 20c-259 0-398-131-398-390 0-357 148-615 421-704 62-20 125-28 189-28zm202 461c22-192-41-335-226-328-212 9-312 142-358 328h584" id="p"/><path fill="#0c7cba" d="M522 20c-267 0-410-127-410-389 0-365 156-619 438-707 169-53 390-23 481 68 54 54 92 128 93 229l-194 14c0-132-80-198-224-196-263 3-339 192-386 415-13 63-19 121-19 174-1 166 74 255 240 253 161-2 266-84 309-215l188 12C961-121 793 20 522 20" id="q"/><path fill="#0c7cba" d="M574 16c-199 5-309-85-269-285l131-671H268l27-142h170l113-282h120l-55 282h432l-27 142H616c-43 233-105 457-132 696-16 144 198 111 324 99 46-6 96-14 136-22L918-30C819-5 700 13 574 16" id="r"/><path fill="#0c7cba" d="M668-142h380L1020 0H38l28-142h422l155-798H324l27-142h499zm23-1150l37-192h200l-37 192H691" id="s"/><path fill="#0c7cba" d="M815-1102c202-2 311 102 279 314-40 267-101 525-150 788H763l135-695c7-39 11-71 11-98 2-119-62-175-179-170-208 9-312 151-348 336L260 0H80c67-361 144-713 204-1082h170c-6 58-17 130-28 185h3c86-116 194-203 386-205" id="t"/><path d="M116-571v-205l995-418v154L253-674l858 367v153" id="u"/><path fill="#19967d" d="M836-1193L604 0H414l232-1193H203l30-156h1076l-30 156H836" id="v"/><path d="M116-154v-153l858-367-858-366v-154l995 418v205" id="w"/><g id="b"><use transform="matrix(0.009765625,0,0,0.009765625,0,0)" xlink:href="#m"/><use transform="matrix(0.009765625,0,0,0.009765625,12.001953125,0)" xlink:href="#n"/><use transform="matrix(0.009765625,0,0,0.009765625,24.00390625,0)" xlink:href="#o"/><use transform="matrix(0.009765625,0,0,0.009765625,36.005859375,0)" xlink:href="#o"/><use transform="matrix(0.009765625,0,0,0.009765625,48.0078125,0)" xlink:href="#p"/><use transform="matrix(0.009765625,0,0,0.009765625,60.009765625,0)" xlink:href="#q"/><use transform="matrix(0.009765625,0,0,0.009765625,72.01171875,0)" xlink:href="#r"/><use transform="matrix(0.009765625,0,0,0.009765625,84.013671875,0)" xlink:href="#s"/><use transform="matrix(0.009765625,0,0,0.009765625,96.015625,0)" xlink:href="#n"/><use transform="matrix(0.009765625,0,0,0.009765625,108.017578125,0)" xlink:href="#t"/><use transform="matrix(0.009765625,0,0,0.009765625,120.01953125,0)" xlink:href="#u"/><use transform="matrix(0.009765625,0,0,0.009765625,132.021484375,0)" xlink:href="#v"/><use transform="matrix(0.009765625,0,0,0.009765625,144.0234375,0)" xlink:href="#w"/></g><path d="M512-1193l-96 494h676l-31 158H385L280 0H89l262-1349h891l-30 156H512" id="x"/><path d="M419 20c-186 0-282-64-284-243 0-40 5-86 15-138l140-721h180c-47 251-101 497-144 752-25 145 40 219 181 211 211-12 308-150 344-336l122-627h181C1087-721 1010-369 950 0H780c6-58 18-129 28-185h-3C720-71 616 20 419 20" id="y"/><path d="M815-1102c202-2 311 102 279 314-40 267-101 525-150 788H763l135-695c7-39 11-71 11-98 2-119-62-175-179-170-208 9-312 151-348 336L260 0H80c67-361 144-713 204-1082h170c-6 58-17 130-28 185h3c86-116 194-203 386-205" id="z"/><path d="M522 20c-267 0-410-127-410-389 0-365 156-619 438-707 169-53 390-23 481 68 54 54 92 128 93 229l-194 14c0-132-80-198-224-196-263 3-339 192-386 415-13 63-19 121-19 174-1 166 74 255 240 253 161-2 266-84 309-215l188 12C961-121 793 20 522 20" id="A"/><path d="M574 16c-199 5-309-85-269-285l131-671H268l27-142h170l113-282h120l-55 282h432l-27 142H616c-43 233-105 457-132 696-16 144 198 111 324 99 46-6 96-14 136-22L918-30C819-5 700 13 574 16" id="B"/><path d="M668-142h380L1020 0H38l28-142h422l155-798H324l27-142h499zm23-1150l37-192h200l-37 192H691" id="C"/><path d="M724-1102c292 0 423 159 388 460-35 307-154 537-400 628-65 24-136 34-212 34-254-2-388-131-388-387 0-255 97-480 226-595 103-92 231-140 386-140zM381-747C294-559 211-98 524-113c294-14 359-254 399-525 28-194-32-337-222-331-174 5-260 94-320 222" id="D"/><path fill="#19967d" d="M83 363l298-662h265L206 363H83" id="E"/><g id="c"><use transform="matrix(0.009765625,0,0,0.009765625,0,0)" xlink:href="#x"/><use transform="matrix(0.009765625,0,0,0.009765625,12.001953125,0)" xlink:href="#y"/><use transform="matrix(0.009765625,0,0,0.009765625,24.00390625,0)" xlink:href="#z"/><use transform="matrix(0.009765625,0,0,0.009765625,36.005859375,0)" xlink:href="#A"/><use transform="matrix(0.009765625,0,0,0.009765625,48.0078125,0)" xlink:href="#B"/><use transform="matrix(0.009765625,0,0,0.009765625,60.009765625,0)" xlink:href="#C"/><use transform="matrix(0.009765625,0,0,0.009765625,72.01171875,0)" xlink:href="#D"/><use transform="matrix(0.009765625,0,0,0.009765625,84.013671875,0)" xlink:href="#z"/><use transform="matrix(0.009765625,0,0,0.009765625,96.015625,0)" xlink:href="#u"/><use transform="matrix(0.009765625,0,0,0.009765625,108.017578125,0)" xlink:href="#v"/><use transform="matrix(0.009765625,0,0,0.009765625,120.01953125,0)" xlink:href="#E"/><use transform="matrix(0.009765625,0,0,0.009765625,132.021484375,0)" xlink:href="#m"/><use transform="matrix(0.009765625,0,0,0.009765625,144.0234375,0)" xlink:href="#n"/><use transform="matrix(0.009765625,0,0,0.009765625,156.025390625,0)" xlink:href="#o"/><use transform="matrix(0.009765625,0,0,0.009765625,168.02734375,0)" xlink:href="#o"/><use transform="matrix(0.009765625,0,0,0.009765625,180.029296875,0)" xlink:href="#p"/><use transform="matrix(0.009765625,0,0,0.009765625,192.03125,0)" xlink:href="#q"/><use transform="matrix(0.009765625,0,0,0.009765625,204.033203125,0)" xlink:href="#r"/><use transform="matrix(0.009765625,0,0,0.009765625,216.03515625,0)" xlink:href="#s"/><use transform="matrix(0.009765625,0,0,0.009765625,228.037109375,0)" xlink:href="#n"/><use transform="matrix(0.009765625,0,0,0.009765625,240.0390625,0)" xlink:href="#t"/><use transform="matrix(0.009765625,0,0,0.009765625,252.041015625,0)" xlink:href="#u"/><use transform="matrix(0.009765625,0,0,0.009765625,264.04296875,0)" xlink:href="#v"/><use transform="matrix(0.009765625,0,0,0.009765625,276.044921875,0)" xlink:href="#w"/><use transform="matrix(0.009765625,0,0,0.009765625,288.046875,0)" xlink:href="#w"/></g><path fill="#19967d" d="M473-1349c438-1 655 221 652 661C1122-268 945-8 532 0H162v-1349h311zm42 1193c308-4 416-205 418-532 2-330-131-509-459-505H353v1037h162" id="F"/><path fill="#19967d" d="M1000-272c3 95 12 159 101 161 21 0 41-3 59-7V-6c-44 10-86 16-139 16-141 2-191-84-197-217h-6C748-76 648 20 446 20c-207 0-318-120-318-322 0-266 194-348 454-354l236-4c12-191-40-305-222-305-140 0-220 47-232 172l-188-17c33-204 181-292 423-292 255 0 401 118 401 364v466zm-683-27c0 109 63 184 175 182 166-3 259-96 306-217 24-65 20-120 20-200-232 7-501-28-501 235" id="G"/><path fill="#19967d" d="M682 16c-209 0-323-80-324-285v-671H190v-142h170l58-282h120v282h432v142H538v652c2 114 60 155 182 155 106 0 209-16 297-34v137C921-4 806 16 682 16" id="H"/><g id="d"><use transform="matrix(0.008680555555555556,0,0,0.008680555555555556,0,0)" xlink:href="#F"/><use transform="matrix(0.008680555555555556,0,0,0.008680555555555556,10.668402777777779,0)" xlink:href="#G"/><use transform="matrix(0.008680555555555556,0,0,0.008680555555555556,21.336805555555557,0)" xlink:href="#H"/><use transform="matrix(0.008680555555555556,0,0,0.008680555555555556,32.005208333333336,0)" xlink:href="#G"/></g><path d="M305-1169c27 366 9 780 14 1169H99v-1349h347c49 189 108 371 150 564 12 56 15 107 23 166 33-270 117-487 176-730h335V0H908c5-390-13-801 16-1169-52 285-130 541-199 809H507c-70-267-148-525-202-809" id="I"/><path d="M616-1102c361 0 521 202 521 560 0 354-171 562-527 562C259 20 92-192 92-542c0-351 169-560 524-560zm-9 930c200-2 236-165 236-370 0-199-27-367-223-367-195 0-233 146-233 367 0 129 18 223 55 282s92 88 165 88" id="J"/><path d="M768-1103c247 0 336 167 336 416V0H824v-619c-3-164-24-273-171-273-164 0-229 142-229 312V0H143c-4-359 9-736-8-1082h268c7 63 12 146 13 215h4c67-145 160-236 348-236" id="K"/><path d="M775-193C708-75 621 20 439 20 226 20 106-93 106-306c0-251 170-341 417-346l223-4c4-143-12-264-148-264-103 0-141 58-150 153l-293-14c37-219 194-321 455-321 263 0 418 130 417 390v392c1 84 5 161 89 160 21 0 42-2 62-6v152c-57 15-108 27-180 26-145 0-202-73-217-205h-6zm-256 17c168 0 234-139 227-325-166 4-347-25-347 173 0 94 33 152 120 152" id="L"/><path d="M802-909c-3-189-2-383-2-575h281v1248c-1 83 4 168 8 236H817c-9-50-14-117-15-176h-4C735-49 651 20 482 20 191 20 97-238 97-539c0-243 66-432 221-519 50-28 108-42 175-42 162 2 253 78 309 191zm-70 658c91-113 93-462 2-584-46-61-145-100-224-53-96 56-119 190-120 349 0 123 17 214 52 275 46 82 130 115 222 74 25-12 46-33 68-61" id="M"/><path d="M116-571v-205l995-418v154L253-674l858 367v153" id="N"/><path d="M116-154v-153l858-367-858-366v-154l995 418v205" id="O"/><g id="e"><use transform="matrix(0.009765625,0,0,0.009765625,0,0)" xlink:href="#I"/><use transform="matrix(0.009765625,0,0,0.009765625,12.001953125,0)" xlink:href="#J"/><use transform="matrix(0.009765625,0,0,0.009765625,24.00390625,0)" xlink:href="#K"/><use transform="matrix(0.009765625,0,0,0.009765625,36.005859375,0)" xlink:href="#L"/><use transform="matrix(0.009765625,0,0,0.009765625,48.0078125,0)" xlink:href="#M"/><use transform="matrix(0.009765625,0,0,0.009765625,60.009765625,0)" xlink:href="#N"/><use transform="matrix(0.009765625,0,0,0.009765625,72.01171875,0)" xlink:href="#l"/><use transform="matrix(0.009765625,0,0,0.009765625,84.013671875,0)" xlink:href="#O"/></g><path d="M1250-1318c-146-12-362-44-462 30-59 45-85 113-103 206h491l-27 142H658L475 0H295l183-940H216l27-142h262c39-288 215-425 565-400 70 5 148 8 208 19" id="P"/><path d="M659-142h380L1011 0H29l28-142h422l233-1200H423l27-142h469" id="Q"/><path d="M948-272c-17 76-19 161 70 161 21 0 42-3 60-7L1056-6c-45 10-88 14-142 16-138 6-175-86-155-217h-6C661-83 550 15 337 20 138 24 42-104 82-302c49-247 238-349 523-354l236-4c9-47 22-94 22-148 0-118-65-155-184-157-151-3-231 57-266 172l-185-17c67-189 220-292 480-292 245 0 377 119 330 364zm-678-27c-21 109 31 185 140 182 176-5 282-102 348-217 37-66 43-123 59-200-145 7-304-9-409 44-71 36-119 96-138 191" id="R"/><path d="M832 0c78-390 148-786 233-1169-124 253-264 488-400 729H528c-43-241-94-472-121-729C339-774 258-390 184 0H24l262-1349h237c39 239 98 457 113 720 117-256 262-480 395-720h225L994 0H832" id="S"/><path d="M808-1104c255 0 336 185 302 442-38 281-118 532-328 640-56 28-120 42-193 42-158 0-262-57-295-184-10-1-5 5-7 18-33 194-73 381-109 571H-3C92-78 198-570 284-1082h175c-4 58-14 124-24 178h4c78-115 178-200 369-200zM343-350c-1 156 68 242 223 237 244-7 292-220 339-433 43-194 50-428-171-419-257 11-321 210-371 441-15 68-20 127-20 174" id="T"/><g id="f"><use transform="matrix(0.009765625,0,0,0.009765625,0,0)" xlink:href="#P"/><use transform="matrix(0.009765625,0,0,0.009765625,12.001953125,0)" xlink:href="#Q"/><use transform="matrix(0.009765625,0,0,0.009765625,24.00390625,0)" xlink:href="#R"/><use transform="matrix(0.009765625,0,0,0.009765625,36.005859375,0)" xlink:href="#B"/><use transform="matrix(0.009765625,0,0,0.009765625,48.0078125,0)" xlink:href="#S"/><use transform="matrix(0.009765625,0,0,0.009765625,60.009765625,0)" xlink:href="#R"/><use transform="matrix(0.009765625,0,0,0.009765625,72.01171875,0)" xlink:href="#T"/></g><path d="M1206-1343c51 23 40 165 0 182H119c-51-6-57-165 0-182h1087zm-267-256c57 17 51 182 0 182H404c-51-6-63-182 0-182h535zm426 1701c0-63 34-199-23-216l-711 6c-11 57-6 154 0 210h734zm239-256c0 182 74 444-148 444H546C313 318 392 34 392-154c0-108 40-148 148-148h910c119 0 154 34 154 148zm273-898c57 23 51 199 0 199h-273v444c-17 63-142 17-210 28-17 0-28-11-28-34v-1178c17-63 142-17 210-28 17 0 28 11 28 28v540h273zM899-762c0-102-102-159-222-159-114 0-222 57-222 159s102 171 222 171c125 0 222-68 222-171zm-666 0c0-444 887-455 887 0 0 239-199 347-444 347S232-529 232-762" id="U"/><path d="M1849-586c57 23 51 199 0 199h-774v666c-17 63-142 17-205 28-17 0-28-11-28-28v-666H68c-46-6-46-182 0-199h1781zm-876-626C825-996 586-831 262-774c-46-28-119-142-68-182 330-102 614-245 654-631 11-74 142-23 210-34 51 6 17 108 17 148 102 273 393 398 677 489-11 63-40 165-102 182-290-57-535-205-677-410" id="V"/><path d="M1877-1126c63 11 51 193 0 193h-273c-17 142 40 347-28 438-74-11-193 28-210-34v-1064c17-63 142-17 210-28 17 0 28 11 28 28v466h273zM1365-28H631c6 51-28 137 40 137h660c63 0 23-85 34-137zm239 182c0 97-40 137-154 137H557c-125 0-154-28-159-142v-518c17-40 205-40 233 0v159h734c11-68-28-176 28-193 68 11 193-28 210 28v529zM899-814c-6-193-432-193-444 0 6 199 438 205 444 0zm-660 0c6-432 876-427 882 0-6 432-876 432-882 0zm961-551c46 11 46 165 0 171H119c-51-6-57-171 6-171h1075zm-267-245c57 17 51 165 0 171H404c-57 0-28-91-34-142 0-17 17-28 34-28h529" id="W"/><path d="M1707-63c-28 523-1200 535-1223 0 23-540 1195-518 1223 0zM688-939C574-746 443-592 227-484c-46-46-176-131-102-182 273-176 455-421 455-876 0-80 142-17 210-28 17 0 28 6 28 28 0 131-11 239-34 347 80 199 256 341 432 438 57 51-46 114-57 165-102 63-205-91-290-137-74-63-131-131-182-210zm768-85c-125-11-313 34-393-23 11-57-28-171 28-171h364v-375c17-51 205-51 233 0v1087c-6 57-137 17-205 28-17 0-28-11-28-28v-518zm6 967c-23-290-722-279-740 0 34 273 705 267 740 0" id="X"/><path d="M584-193c0 251 61 432 150 618H453C364 245 305 68 305-181c0-590 228-980 519-1303h281C818-1158 584-780 584-193" id="Y"/><path d="M945-915c-13-119-52-223-177-223-91 0-164 41-226 116-82 99-156 334-156 536 0 164 55 274 209 274 161 0 224-131 288-244l263 52C1025-182 874 20 547 20 236 20 83-141 83-449c0-420 155-750 465-876 120-49 313-64 440-16 146 55 221 182 242 360" id="Z"/><path d="M725-1102c305 0 463 153 426 468-36 300-163 518-405 612-72 28-154 42-245 42C201 22 46-148 80-460c32-293 164-506 400-600 72-28 153-42 245-42zM432-707c-57 152-149 543 103 535 249-8 288-238 323-464 24-154-11-278-166-273-150 5-217 88-260 202" id="aa"/><path d="M966-761c11-69 20-163-53-162-34 0-66 27-96 81s-55 134-76 241L624 0H396c48-253 104-503 145-761 11-69 20-166-53-162-50 3-75 49-98 93-36 67-60 156-78 248L199 0H-30c67-361 144-713 204-1082h209c-6 55-18 122-28 175h2c54-95 112-192 254-195 127-2 153 72 158 196 61-99 122-196 274-196 124 0 168 64 168 192 0 67-10 125-22 189L1049 0H821c48-253 104-503 145-761" id="ab"/><path d="M627 20c-151 0-237-72-272-191-34 202-76 398-114 596H-40C50-46 147-511 232-986c7-41 10-73 13-96h272c0 58-10 124-19 176h4c78-109 179-192 354-197 376-13 326 531 209 786C984-140 869 20 627 20zm213-563c31-152 35-378-130-368-124 7-184 95-231 195-66 140-154 545 85 545 132 0 184-99 228-203 20-47 35-103 48-169" id="ac"/><path d="M878-785c2-107-76-132-183-131-119 2-205 19-222 111-16 90 70 102 145 121 212 54 501 76 442 368C1012-80 798 20 511 20 263 20 83-39 68-270l255-37c-3 153 168 150 315 135 82-9 147-41 159-118 16-101-81-113-165-134-152-39-331-58-402-177-56-94-15-240 36-311 90-126 249-191 465-191 227 0 393 72 401 292" id="ad"/><path d="M726-190h353L1042 0H13l37-190h395l136-702H291l37-190h571zm-70-1087l40-207h281l-40 207H656" id="ae"/><path d="M934-19C661 27 215 78 277-280c36-207 80-407 119-612H229l37-190h181l143-282h176l-55 282h385l-37 190H674c-37 191-72 381-110 573-40 205 250 136 406 114" id="af"/><path d="M877-1103c184-4 269 96 271 273 0 43-5 91-15 143L999 0H719l120-619c29-130 29-284-118-273-178 13-258 152-289 312L319 0H38c66-362 146-710 202-1082h268c-5 70-17 151-28 215h4c91-138 196-231 393-236" id="ag"/><path d="M920-880c0 590-229 982-520 1305H119C407 100 641-278 641-866c0-253-60-432-151-618h281c84 170 149 355 149 604" id="ah"/><g id="g"><use transform="matrix(0.009765625,0,0,0.009765625,0,0)" xlink:href="#U"/><use transform="matrix(0.009765625,0,0,0.009765625,18.779296875,0)" xlink:href="#V"/><use transform="matrix(0.009765625,0,0,0.009765625,37.55859375,0)" xlink:href="#W"/><use transform="matrix(0.009765625,0,0,0.009765625,56.337890625,0)" xlink:href="#X"/><use transform="matrix(0.009765625,0,0,0.009765625,75.1171875,0)" xlink:href="#Y"/><use transform="matrix(0.009765625,0,0,0.009765625,87.119140625,0)" xlink:href="#Z"/><use transform="matrix(0.009765625,0,0,0.009765625,99.12109375,0)" xlink:href="#aa"/><use transform="matrix(0.009765625,0,0,0.009765625,111.123046875,0)" xlink:href="#ab"/><use transform="matrix(0.009765625,0,0,0.009765625,123.125,0)" xlink:href="#ac"/><use transform="matrix(0.009765625,0,0,0.009765625,135.126953125,0)" xlink:href="#aa"/><use transform="matrix(0.009765625,0,0,0.009765625,147.12890625,0)" xlink:href="#ad"/><use transform="matrix(0.009765625,0,0,0.009765625,159.130859375,0)" xlink:href="#ae"/><use transform="matrix(0.009765625,0,0,0.009765625,171.1328125,0)" xlink:href="#af"/><use transform="matrix(0.009765625,0,0,0.009765625,183.134765625,0)" xlink:href="#ae"/><use transform="matrix(0.009765625,0,0,0.009765625,195.13671875,0)" xlink:href="#aa"/><use transform="matrix(0.009765625,0,0,0.009765625,207.138671875,0)" xlink:href="#ag"/><use transform="matrix(0.009765625,0,0,0.009765625,219.140625,0)" xlink:href="#ah"/></g><path d="M939-1468c267 6 119 364 68 512C876-563 586-262 199-97c-46-46-137-119-97-188 364-205 683-495 722-973-182-28-427 6-626-11-46-6-51-176 0-199h740zm938 598c63 11 51 193 0 193h-273v973c-17 63-142 17-210 28-17 0-28-11-28-28v-1889c17-63 142-17 210-28 17 0 28 11 28 28v722h273" id="ai"/><path d="M1849-717c51 17 46 199 0 199H68c-46-6-51-176 0-199h1781zM1371-28c-34-250-791-245-825 0 34 245 791 245 825 0zM956-387c336 0 649 80 649 358 0 279-313 353-649 353S313 250 313-29c0-273 313-358 643-358zm643-705c51 28 46 188 0 199H495c-119 0-154-34-154-148v-512c17-51 199-46 239 0v427c0 28 6 34 34 34h984" id="aj"/><g id="h"><use transform="matrix(0.009765625,0,0,0.009765625,0,0)" xlink:href="#ai"/><use transform="matrix(0.009765625,0,0,0.009765625,18.779296875,0)" xlink:href="#aj"/></g><g id="i"><use transform="matrix(0.009765625,0,0,0.009765625,0,0)" xlink:href="#U"/><use transform="matrix(0.009765625,0,0,0.009765625,18.779296875,0)" xlink:href="#V"/><use transform="matrix(0.009765625,0,0,0.009765625,37.55859375,0)" xlink:href="#W"/><use transform="matrix(0.009765625,0,0,0.009765625,56.337890625,0)" xlink:href="#X"/><use transform="matrix(0.009765625,0,0,0.009765625,75.1171875,0)" xlink:href="#Y"/><use transform="matrix(0.009765625,0,0,0.009765625,87.119140625,0)" xlink:href="#Z"/><use transform="matrix(0.009765625,0,0,0.009765625,99.12109375,0)" xlink:href="#aa"/><use transform="matrix(0.009765625,0,0,0.009765625,111.123046875,0)" xlink:href="#ab"/><use transform="matrix(0.009765625,0,0,0.009765625,123.125,0)" xlink:href="#ac"/><use transform="matrix(0.009765625,0,0,0.009765625,135.126953125,0)" xlink:href="#aa"/><use transform="matrix(0.009765625,0,0,0.009765625,147.12890625,0)" xlink:href="#ad"/><use transform="matrix(0.009765625,0,0,0.009765625,159.130859375,0)" xlink:href="#ae"/><use transform="matrix(0.009765625,0,0,0.009765625,171.1328125,0)" xlink:href="#af"/><use transform="matrix(0.009765625,0,0,0.009765625,183.134765625,0)" xlink:href="#ae"/><use transform="matrix(0.009765625,0,0,0.009765625,195.13671875,0)" xlink:href="#aa"/><use transform="matrix(0.009765625,0,0,0.009765625,207.138671875,0)" xlink:href="#ag"/><use transform="matrix(0.009765625,0,0,0.009765625,219.140625,0)" xlink:href="#ah"/></g><path d="M546-1473c210 0 341 131 398 313h273v-375c0-46 68-23 108-28 17 0 28 11 28 28V183c0 46-68 23-108 28-17 0-28-11-28-28v-666H927c-63 159-188 273-381 273-324 0-427-290-427-637 0-341 102-626 427-626zm0 1137c415 0 410-1018 0-1018-233 0-284 267-284 506 0 245 51 512 284 512zm1172 592c0 46-68 23-108 28-17 0-28-11-28-28v-1826c0-46 63-34 108-34 17 0 28 17 28 34V256zM973-1041c23 131 23 313-6 432h250v-432H972" id="ak"/><path d="M915-832c0 594-261 950-575 1257H148C458 120 728-231 728-816c0-288-97-482-209-668h192c111 180 204 370 204 652" id="al"/><g id="j"><use transform="matrix(0.009765625,0,0,0.009765625,0,0)" xlink:href="#ak"/><use transform="matrix(0.009765625,0,0,0.009765625,18.779296875,0)" xlink:href="#al"/></g><path d="M747-1226c-195 1-328 74-328 254 0 150 168 158 292 193 206 58 444 122 384 409-56 265-271 388-594 390C217 22 49-81 40-338l192-37c3 179 117 247 303 246 215-2 375-80 375-283 0-168-187-179-325-221-168-51-357-87-357-299 0-308 229-433 548-438 258-4 409 81 417 324l-194 33c-2-154-93-214-252-213" id="am"/><path d="M523-832c93-143 191-271 425-270 69 0 147 7 203 17l-33 167c-114-19-266-34-366 15-148 73-248 213-284 395L369 0H189l136-701c21-116 30-253 22-381h171c8 76 8 174 0 250h5" id="an"/><path d="M726-1102c256 0 385 126 386 379 1 67-11 147-25 220H315c-7 39-13 78-13 121 2 164 74 267 238 267 154 0 260-65 317-166l149 45C916-82 760 20 514 20c-259 0-398-131-398-390 0-357 148-615 421-704 62-20 125-28 189-28zm202 461c22-192-41-335-226-328-212 9-312 142-358 328h584" id="ao"/><path d="M1000-783c14-86 16-180-76-180-43 0-83 29-120 85s-67 140-88 251L594 0H426c49-261 107-518 150-783 14-86 14-191-77-180-103 13-137 116-173 209-17 43-28 93-39 147L169 0H0c67-361 144-713 204-1082h149c-6 55-18 122-28 175h2c54-95 112-192 254-195 127-2 153 72 158 196 61-99 122-196 274-196 124 0 168 64 168 192 0 67-10 125-22 189L1019 0H851c49-261 106-518 149-783" id="ap"/><path d="M391 0l58-299h235L626 0H391" id="aq"/><path d="M1074-1484C764-1178 497-826 497-240c0 287 95 480 206 665H513C401 244 309 50 309-234c0-588 264-946 575-1250h190" id="ar"/><g id="k"><use transform="matrix(0.009765625,0,0,0.009765625,0,0)" xlink:href="#am"/><use transform="matrix(0.009765625,0,0,0.009765625,12.001953125,0)" xlink:href="#B"/><use transform="matrix(0.009765625,0,0,0.009765625,24.00390625,0)" xlink:href="#an"/><use transform="matrix(0.009765625,0,0,0.009765625,36.005859375,0)" xlink:href="#ao"/><use transform="matrix(0.009765625,0,0,0.009765625,48.0078125,0)" xlink:href="#R"/><use transform="matrix(0.009765625,0,0,0.009765625,60.009765625,0)" xlink:href="#ap"/><use transform="matrix(0.009765625,0,0,0.009765625,72.01171875,0)" xlink:href="#aq"/><use transform="matrix(0.009765625,0,0,0.009765625,84.013671875,0)" xlink:href="#ap"/><use transform="matrix(0.009765625,0,0,0.009765625,96.015625,0)" xlink:href="#R"/><use transform="matrix(0.009765625,0,0,0.009765625,108.017578125,0)" xlink:href="#T"/><use transform="matrix(0.009765625,0,0,0.009765625,120.01953125,0)" xlink:href="#ar"/><use transform="matrix(0.009765625,0,0,0.009765625,132.021484375,0)" xlink:href="#aq"/><use transform="matrix(0.009765625,0,0,0.009765625,144.0234375,0)" xlink:href="#aq"/><use transform="matrix(0.009765625,0,0,0.009765625,156.025390625,0)" xlink:href="#al"/><use transform="matrix(0.009765625,0,0,0.009765625,168.02734375,0)" xlink:href="#aq"/><use transform="matrix(0.009765625,0,0,0.009765625,180.029296875,0)" xlink:href="#ap"/><use transform="matrix(0.009765625,0,0,0.009765625,192.03125,0)" xlink:href="#R"/><use transform="matrix(0.009765625,0,0,0.009765625,204.033203125,0)" xlink:href="#T"/><use transform="matrix(0.009765625,0,0,0.009765625,216.03515625,0)" xlink:href="#ar"/><use transform="matrix(0.009765625,0,0,0.009765625,228.037109375,0)" xlink:href="#aq"/><use transform="matrix(0.009765625,0,0,0.009765625,240.0390625,0)" xlink:href="#aq"/><use transform="matrix(0.009765625,0,0,0.009765625,252.041015625,0)" xlink:href="#al"/><use transform="matrix(0.009765625,0,0,0.009765625,264.04296875,0)" xlink:href="#aq"/><use transform="matrix(0.009765625,0,0,0.009765625,276.044921875,0)" xlink:href="#ap"/><use transform="matrix(0.009765625,0,0,0.009765625,288.046875,0)" xlink:href="#R"/><use transform="matrix(0.009765625,0,0,0.009765625,300.048828125,0)" xlink:href="#T"/><use transform="matrix(0.009765625,0,0,0.009765625,312.05078125,0)" xlink:href="#ar"/><use transform="matrix(0.009765625,0,0,0.009765625,324.052734375,0)" xlink:href="#aq"/><use transform="matrix(0.009765625,0,0,0.009765625,336.0546875,0)" xlink:href="#aq"/><use transform="matrix(0.009765625,0,0,0.009765625,348.056640625,0)" xlink:href="#al"/><use transform="matrix(0.009765625,0,0,0.009765625,360.05859375,0)" xlink:href="#aq"/><use transform="matrix(0.009765625,0,0,0.009765625,372.060546875,0)" xlink:href="#aq"/></g></defs></g></svg>